<?xml version="1.0" encoding="UTF-8" standalone="no"?>
<!DOCTYPE svg  PUBLIC '-//W3C//DTD SVG 1.1//EN'  'http://www.w3.org/Graphics/SVG/1.1/DTD/svg11.dtd'>
<svg xmlns="http://www.w3.org/2000/svg" version="1.1">
<defs>
<font id="PragmaticaBlack" horiz-adv-x="818">
<font-face panose-1="2 11 9 3 4 5 2 2 2 4" x-height="508" font-family="Pragmatica Black" units-per-em="1000" bbox="-444 -352 1327 984" font-weight="800" cap-height="700" descent="-200" underline-position="-150" underline-thickness="50" unicode-range="U+0020-F8FF" ascent="800"/>
<missing-glyph horiz-adv-x="233"/>
<glyph d="M666 508v-508h-208v370h-152v-370h-208v370h-93v138h93v8q0 93 45 138q46 46 153 46q58 0 120 -10v-125q-24 6 -49 6q-34 0 -48 -13q-13 -12 -13 -40v-10h360zM458 568v132h208v-132h-208z" horiz-adv-x="731" unicode="fi" glyph-name="fi"/>
<glyph d="M458 508v192h210v-700h-210v370h-152v-370h-208v370h-93v138h93v8q0 93 45 138q46 46 153 46q58 0 120 -10v-125q-24 6 -49 6q-34 0 -48 -13q-13 -12 -13 -40v-10h152z" horiz-adv-x="733" unicode="fl" glyph-name="fl"/>
<glyph d="M245 99l-32 -99h-226l259 700h215l259 -700h-226l-32 99h-217zM288 243h131l-66 210zM329 908h199l-112 -142h-153z" horiz-adv-x="710" unicode="А`" glyph-name="afii10017.var.accented"/>
<glyph d="M303 436h311v-165h-311v-86h371v-185h-589v700h581v-185h-363v-79zM334 908h199l-112 -142h-153z" horiz-adv-x="719" unicode="Е`" glyph-name="afii10022.var.accented"/>
<glyph d="M297 325l211 375h212v-700h-212v379l-211 -379h-212v700h212v-375zM377 908h199l-112 -142h-153z" horiz-adv-x="805" unicode="И`" glyph-name="afii10026.var.accented"/>
<glyph d="M40 348q0 170 99 273q95 98 267 98q182 0 279 -99q93 -97 93 -266q0 -175 -91 -273q-93 -100 -275 -100q-187 0 -282 102q-90 96 -90 265zM272 350q0 -101 44 -148q36 -37 93 -37q61 0 94 37q43 47 43 148q0 103 -43 148q-36 37 -90 37q-59 0 -95 -37q-46 -48 -46 -148z M383 908h199l-112 -142h-153z" unicode="О`" glyph-name="afii10032.var.accented"/>
<glyph d="M352 392l95 308h227l-221 -535q-38 -91 -91 -133q-25 -19 -53.5 -28.5t-45.5 -11t-46 -1.5q-81 0 -136 20v174q32 -17 74 -17q61 0 80 49l-235 483h239zM305 908h199l-112 -142h-153z" horiz-adv-x="661" unicode="У`" glyph-name="afii10037.var.accented"/>
<glyph d="M759 700h218v-700h-218v700zM302 700v-237h139q141 0 211 -70q60 -60 60 -163q0 -111 -61 -170q-62 -60 -209 -60h-357v700h217zM302 297v-125h114q42 0 61 18q16 15 16 46q0 30 -21 46q-20 15 -56 15h-114zM505 908h199l-112 -142h-153z" horiz-adv-x="1062" unicode="Ы`" glyph-name="afii10045.var.accented"/>
<glyph d="M246 450h-218q12 104 87 176q95 89 270 89q184 0 275 -94q89 -91 89 -263q0 -185 -94 -282q-93 -96 -280 -96t-275 88q-69 69 -80 177h219q4 -44 35 -75q36 -35 101 -35q66 0 99 32q19 18 30.5 50.5t11.5 62.5h-219v141h219q2 58 -35 95q-35 35 -101 35q-57 0 -92 -27 q-34 -27 -42 -74zM369 908h199l-112 -142h-153z" horiz-adv-x="789" unicode="Э`" glyph-name="afii10047.var.accented"/>
<glyph d="M385 276h-82v-276h-218v700h218v-246h88q19 98 83 165q95 100 272 100t274 -101q93 -97 93 -262q0 -175 -102 -279q-57 -57 -124.5 -76.5t-148.5 -19.5q-173 0 -260 84q-86 82 -93 211zM607 350q0 -101 44 -148q36 -37 93 -37q61 0 94 37q43 47 43 148q0 103 -43 148 q-36 37 -90 37q-59 0 -95 -37q-46 -48 -46 -148zM551 908h199l-112 -142h-153z" horiz-adv-x="1153" unicode="Ю`" glyph-name="afii10048.var.accented"/>
<glyph d="M457 230h-40l-139 -230h-252l181 248q-70 12 -116 56q-58 56 -58 154q0 106 62 170q70 72 205 72h375v-700h-218v230zM457 526h-124q-42 0 -63 -21q-17 -17 -17 -46q0 -33 19 -50q22 -20 67 -20h118v137zM345 908h199l-112 -142h-153z" horiz-adv-x="741" unicode="Я`" glyph-name="afii10049.var.accented"/>
<glyph d="M249 335h-197q6 71 51 118q66 68 214 68q150 0 210 -59q52 -50 52 -145v-229q0 -45 7 -58q8 -16 28 -23v-7h-226l-13 55h-2q-26 -31 -62 -49q-47 -24 -114 -24q-86 0 -128 39q-43 41 -43 110q0 61 38 99q44 44 137 55l60 7q74 9 87 17q3 2 6 5q15 15 15 38q0 22 -13 33 q-15 14 -44 14q-31 0 -47 -16q-18 -18 -16 -48zM369 217v13q-23 -17 -60 -22q-45 -8 -60 -24q-12 -13 -12 -32q0 -20 13 -33t35 -13q35 0 57 23q27 28 27 88zM296 700h189l-112 -132h-143z" horiz-adv-x="634" unicode="а`" glyph-name="afii10065.var.accented"/>
<glyph d="M404 147h206q-27 -84 -101 -127q-66 -38 -185 -38q-73 0 -127.5 13.5t-97.5 56.5q-69 69 -69 187q0 126 76 205q78 82 220 82q149 0 222 -75q32 -33 48.5 -79.5t19 -75.5t2.5 -72v-12h-373q-2 -48 19 -77q22 -29 64 -29q32 0 50 10q20 11 26 31zM246 312h156q0 44 -22 68 q-19 21 -52 21q-38 0 -57 -22q-23 -24 -25 -67zM303 700h189l-112 -132h-143z" horiz-adv-x="648" unicode="е`" glyph-name="afii10070.var.accented"/>
<glyph d="M265 222l179 286h208v-508h-200v260l4 27h-4l-179 -287h-208v508h200v-260l-4 -26h4zM338 700h189l-112 -132h-143z" horiz-adv-x="717" unicode="и`" glyph-name="afii10074.var.accented"/>
<glyph d="M327 394q-28 0 -48 -20q-33 -34 -33 -120q0 -87 34 -121q19 -19 47 -19t48 20q33 34 33 120t-33 120q-20 20 -48 20zM624 255q0 -127 -76 -199q-77 -74 -221 -74t-221 74q-76 73 -76 199q0 124 77 197q76 74 221 74q144 0 221 -74q75 -72 75 -197zM306 700h189l-112 -132 h-143z" horiz-adv-x="654" unicode="о`" glyph-name="afii10080.var.accented"/>
<glyph d="M62 -173v135q26 -10 56 -10q33 0 50 13q20 14 26 43l5 22l-199 478h212l101 -317l80 317h195l-179 -500q-32 -91 -58 -125q-9 -10 -18 -19q-54 -50 -156 -50q-57 0 -115 13zM273 700h189l-112 -132h-143z" horiz-adv-x="588" unicode="у`" glyph-name="afii10085.var.accented"/>
<glyph d="M635 508h208v-508h-208v508zM275 508v-174h102q117 0 167 -47q45 -43 45 -119q0 -80 -45 -123q-47 -45 -147 -45h-332v508h210zM275 224v-117h52q34 0 51 14q18 15 18 47q0 27 -20 43q-17 13 -50 13h-51zM433 700h189l-112 -132h-143z" horiz-adv-x="908" unicode="ы`" glyph-name="afii10093.var.accented"/>
<glyph d="M262 204v103h144q-1 39 -26 64t-70 25q-48 0 -73 -26q-23 -24 -26 -58h-179q10 86 65 141q71 72 218 72q160 0 237 -81q64 -69 64 -187q0 -131 -74 -205q-73 -71 -226 -71q-144 0 -212 58q-67 57 -74 155h181q3 -33 25 -56q25 -26 75 -26q43 0 67 23q26 25 28 69h-144z M302 700h189l-112 -132h-143z" horiz-adv-x="646" unicode="э`" glyph-name="afii10095.var.accented"/>
<glyph d="M616 394q-28 0 -48 -20q-33 -34 -33 -120q0 -87 34 -121q19 -19 47 -19t48 20q33 34 33 120t-33 120q-20 20 -48 20zM273 331h66q15 80 70 129q71 66 204 66q148 0 225 -74q75 -73 75 -196q0 -121 -72 -196q-76 -78 -226 -78q-140 0 -211 66q-60 56 -70 151h-61v-199 h-208v508h208v-177zM451 700h189l-112 -132h-143z" horiz-adv-x="943" unicode="ю`" glyph-name="afii10096.var.accented"/>
<glyph d="M338 166l-98 -166h-215l131 175q-49 11 -81 41q-43 41 -43 110q0 85 49 132q52 50 160 50h325v-508h-210v166h-18zM356 396h-44q-40 0 -59 -15q-21 -17 -21 -49q0 -27 18 -43q20 -17 68 -17h38v124zM295 700h189l-112 -132h-143z" horiz-adv-x="631" unicode="я`" glyph-name="afii10097.var.accented"/>
<glyph horiz-adv-x="233" glyph-name=".notdef"/>
<glyph horiz-adv-x="233" glyph-name=".notdef"/>
<glyph horiz-adv-x="0" glyph-name=".null"/>
<glyph horiz-adv-x="333" glyph-name="nonmarkingreturn"/>
<glyph horiz-adv-x="233" unicode=" " glyph-name="space"/>
<glyph horiz-adv-x="233" unicode=" " glyph-name="space"/>
<glyph d="M81 0v191h209v-191h-209zM240 270h-106l-59 264v182h224v-182z" horiz-adv-x="374" unicode="!" glyph-name="exclam"/>
<glyph d="M272 700l-57 -197h-98l-57 197h212zM534 700l-57 -197h-98l-57 197h212z" horiz-adv-x="594" unicode='&quot;' glyph-name="quotedbl"/>
<glyph d="M523 0h-96l26 163h-161l-26 -163h-97l26 163h-152l18 103h152l33 187h-154l18 103h152l25 144h97l-24 -144h160l25 144h96l-23 -144h152l-18 -103h-151l-32 -187h153l-19 -103h-153zM472 266l33 187h-162l-33 -187h162z" horiz-adv-x="813" unicode="#" glyph-name="numbersign"/>
<glyph d="M53 239h197q0 -43 23 -71q23 -27 61 -28v141q-146 31 -208 93q-52 52 -52 132q0 91 58 148q68 67 200 65v75h79v-75q43 0 91.5 -13.5t80.5 -39.5q71 -58 71 -168v-5h-182v5q0 34 -17 54q-17 19 -48 23v-129q154 -38 207 -93q54 -54 54 -139q0 -121 -90 -185 q-70 -48 -167 -48v-77h-79v77q-129 -2 -204 65t-75 193zM409 269v-129q30 2 48 18q20 18 20 50q0 29 -23 45q-17 12 -45 16zM336 460v117q-29 0 -47 -15q-20 -17 -20 -45q0 -24 18 -38q17 -13 49 -19z" horiz-adv-x="720" unicode="$" glyph-name="dollar"/>
<glyph d="M400 522q0 -96 -59 -151q-51 -49 -133 -49q-83 0 -134 48q-59 55 -59 152q0 94 59 151q53 49 134 49q82 0 133 -49q59 -55 59 -151zM206 607q-28 0 -43 -22q-15 -20 -15 -63q0 -44 17 -65q15 -20 41 -20t41 20q17 23 17 65q0 45 -16 65q-15 20 -42 20zM161 0l472 713h101 l-467 -713h-106zM870 178q0 -96 -59 -151q-51 -49 -133 -49q-83 0 -134 48q-59 55 -59 152q0 94 59 151q53 49 134 49q82 0 133 -49q59 -55 59 -151zM676 263q-28 0 -43 -22q-15 -20 -15 -63q0 -44 17 -65q15 -20 41 -20t41 20q17 23 17 65q0 45 -16 65q-15 20 -42 20z" horiz-adv-x="885" unicode="%" glyph-name="percent"/>
<glyph d="M489 335h159q-20 -93 -81 -163l141 -172h-229l-41 52q-73 -69 -196 -69q-109 0 -172 63q-60 60 -60 147q0 96 63 158q44 39 88 56q-51 49 -51 119q0 81 52 131q54 54 158 54q88 0 141 -41q61 -47 61 -129q0 -53 -30.5 -99t-87.5 -72l66 -78q14 20 19 43zM345 171l-88 116 q-16 -8 -32 -24q-22 -22 -22 -53q0 -29 17 -46q19 -19 55 -19q37 0 70 26zM318 471q26 11 42 26q20 20 20 45q0 24 -15 39q-13 13 -38 13q-21 0 -36 -13q-14 -14 -14 -38q0 -22 18 -44t23 -28z" horiz-adv-x="698" unicode="&amp;" glyph-name="ampersand"/>
<glyph d="M272 700l-57 -197h-98l-57 197h212z" horiz-adv-x="332" unicode="&apos;" glyph-name="quotesingle"/>
<glyph d="M196 761h162q-44 -116 -70 -209q-38 -135 -38 -249q0 -130 49 -284q25 -78 59 -171h-162q-56 97 -92 191q-51 133 -51 264q0 138 46 258q31 81 97 200z" horiz-adv-x="450" unicode="(" glyph-name="parenleft"/>
<glyph d="M92 761h162q63 -109 97 -200q46 -122 46 -270q0 -122 -51 -252q-33 -86 -92 -191h-162q33 84 59 171q49 162 49 284q0 113 -38 249q-28 96 -70 209z" horiz-adv-x="450" unicode=")" glyph-name="parenright"/>
<glyph d="M240 548l-64 -85l-74 57l61 82l-97 33l31 89l97 -34v102h93v-102l97 34l30 -89l-97 -33l62 -82l-74 -57z" horiz-adv-x="480" unicode="*" glyph-name="asterisk"/>
<glyph d="M53 390h243v243h85v-243h243v-85h-243v-243h-85v243h-243v85z" horiz-adv-x="680" unicode="+" glyph-name="plus"/>
<glyph d="M70 0v199h213v-180q0 -111 -58 -166q-53 -50 -149 -50h-6v103h4q57 0 83 26t26 68h-113z" horiz-adv-x="353" unicode="," glyph-name="comma"/>
<glyph d="M53 205v185h399v-185h-399z" horiz-adv-x="505" unicode="-" glyph-name="hyphen"/>
<glyph d="M53 205v185h399v-185h-399z" horiz-adv-x="505" unicode="‐" glyph-name="hyphen"/>
<glyph d="M53 205v185h399v-185h-399z" horiz-adv-x="505" unicode="­" glyph-name="hyphen"/>
<glyph d="M70 0v206h213v-206h-213z" horiz-adv-x="353" unicode="." glyph-name="period"/>
<glyph d="M0 -185l367 885h85l-367 -885h-85z" horiz-adv-x="452" unicode="/" glyph-name="slash"/>
<glyph d="M362 -10q-147 0 -227 79q-99 97 -99 285q0 185 97 278q86 81 229 81q147 0 230 -81q93 -91 93 -278q0 -90 -20.5 -161.5t-79.5 -126.5q-82 -76 -223 -76zM362 141q39 0 65 24q48 43 48 191q0 136 -49 182q-26 24 -64 24q-42 0 -70 -30q-43 -46 -43 -173q0 -149 45 -193 q25 -25 68 -25z" horiz-adv-x="720" unicode="0" glyph-name="zero"/>
<glyph d="M131 466v110h12q73 0 122 26q59 30 78 98h171v-700h-222v466h-161z" horiz-adv-x="720" unicode="1" glyph-name="one"/>
<glyph d="M641 171v-171h-579v9q0 69 14.5 117t58.5 93q43 44 116 84l88 49q52 28 75 50q37 34 37 83q0 37 -22 59q-22 23 -68 23t-70 -23q-32 -31 -25 -97h-199q-5 55 14.5 106t59.5 87q82 74 232 74q153 0 227 -74q59 -59 59 -153q0 -85 -54 -142q-34 -36 -116 -76l-23 -11 q-69 -32 -77 -36q-52 -27 -63 -51h315z" horiz-adv-x="720" unicode="2" glyph-name="two"/>
<glyph d="M50 253h199v-5q0 -60 24 -85q27 -29 76 -29q50 0 73 20q27 23 27 64t-30 61q-26 17 -80 17h-39v131h48q52 0 77 17q30 20 30 59q0 35 -27 54q-21 16 -63 16q-54 0 -81 -30q-25 -27 -25 -78h-192q-1 118 87 187q77 59 218 59q128 0 196 -47q77 -54 77 -147q0 -66 -43 -109 q-33 -33 -80 -43v-5q55 -9 90 -44q44 -42 44 -112q0 -107 -84 -166q-70 -50 -216 -50q-165 0 -238 73q-68 68 -68 189v3z" horiz-adv-x="720" unicode="3" glyph-name="three"/>
<glyph d="M369 149h-330v164l340 387h202v-393h90v-158h-90v-149h-212v149zM199 307h180v198z" horiz-adv-x="720" unicode="4" glyph-name="four"/>
<glyph d="M61 215h202q1 -32 24 -55q24 -24 65 -24q45 0 70 26q30 31 30 93q0 56 -31 83q-23 19 -66 19q-59 0 -81 -45h-205l42 388h496v-155h-357l-11 -102q56 44 153 44q129 0 196 -63t67 -170q0 -122 -70 -192q-76 -76 -240 -76q-134 0 -203 56q-80 65 -81 173z" horiz-adv-x="720" unicode="5" glyph-name="five"/>
<glyph d="M655 526h-185q-6 27 -27 39q-21 13 -57 13q-57 0 -90 -33q-38 -38 -43 -103q56 45 149 45q116 0 183 -58q76 -66 76 -174q0 -116 -76 -192q-78 -78 -226 -78q-66 0 -119.5 15.5t-98.5 64.5q-81 87 -81 250q0 94 26.5 176.5t78.5 135.5q85 86 231 86q116 0 180 -49 q65 -49 79 -138zM369 360q-53 0 -83 -28q-33 -31 -33 -88q0 -59 33 -90q31 -29 79 -29t77 29q35 35 35 94q0 53 -31 84q-28 28 -77 28z" horiz-adv-x="720" unicode="6" glyph-name="six"/>
<glyph d="M64 529v171h592v-154q-111 -113 -169 -269q-47 -125 -45 -277h-224q-1 69 21.5 156.5t56.5 153.5q56 108 151 219h-383z" horiz-adv-x="720" unicode="7" glyph-name="seven"/>
<glyph d="M360 309q-55 0 -83 -26q-28 -25 -28 -63q0 -40 30 -64q28 -23 79 -23q47 0 77 21q35 25 35 71q0 39 -30 61q-30 23 -80 23zM361 581q-50 0 -75 -21q-31 -26 -31 -63t23 -58q26 -25 81 -25q48 0 75 21q30 23 30 64t-31 64q-25 18 -72 18zM360 713q128 0 204 -52 q86 -60 86 -154q0 -56 -30 -94q-26 -32 -68 -46q43 -12 75 -47q43 -49 43 -116q0 -101 -70 -158q-46 -37 -103.5 -48.5t-136.5 -11.5t-136.5 11.5t-103.5 48.5q-70 57 -70 158q0 67 43 116q32 35 75 47q-42 14 -68 46q-30 38 -30 94q0 94 86 154q76 52 204 52z" horiz-adv-x="720" unicode="8" glyph-name="eight"/>
<glyph d="M66 172h185q6 -27 27 -39q21 -13 57 -13q57 0 90 33q38 38 43 103q-56 -45 -149 -45q-116 0 -183 58q-76 66 -76 174q0 116 76 192q78 78 226 78q66 0 119.5 -15.5t98.5 -64.5q81 -87 81 -250q0 -94 -26.5 -176.5t-78.5 -135.5q-85 -86 -231 -86q-116 0 -180 49 q-65 49 -79 138zM352 338q53 0 83 28q33 31 33 88q0 59 -33 90q-31 29 -79 29t-77 -29q-35 -35 -35 -94q0 -53 31 -84q28 -28 77 -28z" horiz-adv-x="720" unicode="9" glyph-name="nine"/>
<glyph d="M70 0v206h213v-206h-213zM70 291v207h213v-207h-213z" horiz-adv-x="353" unicode=":" glyph-name="colon"/>
<glyph d="M70 298v207h213v-207h-213zM70 14v199h213v-180q0 -111 -58 -166q-53 -50 -149 -50h-6v103h4q57 0 83 26t26 68h-113z" horiz-adv-x="353" unicode=";" glyph-name="semicolon"/>
<glyph d="M70 298v207h213v-207h-213zM70 14v199h213v-180q0 -111 -58 -166q-53 -50 -149 -50h-6v103h4q57 0 83 26t26 68h-113z" horiz-adv-x="353" unicode=";" glyph-name="semicolon"/>
<glyph d="M132 357l456 -255l-41 -80l-506 283v104l506 283l41 -80z" horiz-adv-x="648" unicode="&lt;" glyph-name="less"/>
<glyph d="M50 462h566v-85h-566v85zM50 282h566v-85h-566v85z" horiz-adv-x="666" unicode="=" glyph-name="equal"/>
<glyph d="M516 357l-456 255l41 80l506 -283v-104l-506 -283l-41 80z" horiz-adv-x="648" unicode="&gt;" glyph-name="greater"/>
<glyph d="M191 0v187h213v-187h-213zM242 473h-202v9q0 102 64 162q68 65 213 65q133 0 196 -44q74 -52 74 -145q0 -71 -46 -117q-18 -18 -66 -46q-50 -28 -63 -42q-27 -30 -27 -64v-6h-164v17q0 52 13 82q15 36 62 71l27 20q1 1 7.5 5.5t8.5 6t8.5 7t9 9t7 9.5t7 11.5t4 13.5 t1.5 16q0 28 -15 41q-16 16 -48 16q-33 0 -52 -21q-19 -22 -19 -73v-3z" horiz-adv-x="627" unicode="?" glyph-name="question"/>
<glyph d="M493 519v22h156v-246q0 -57 35 -57q32 0 51 36q18 36 18 93q0 140 -92 226q-84 77 -216 77q-143 0 -232 -86q-93 -89 -93 -241q0 -144 93 -235q88 -84 223 -84q97 0 173 52l41 -77q-94 -59 -214 -59q-178 0 -285 97q-57 53 -89 133t-32 174q0 182 119 299 q112 111 289 111q192 0 302 -112q103 -104 103 -268q0 -130 -64 -189q-44 -41 -119 -41q-48 0 -81 17q-26 14 -38 36q-39 -53 -129 -53t-145 58q-54 58 -54 147q0 96 49 153q48 55 131 55q66 0 100 -38zM431 457q-24 0 -38 -14q-26 -25 -26 -88q0 -73 25 -97q15 -15 39 -15 t39 15q25 25 25 97q0 64 -24 88q-14 14 -40 14z" horiz-adv-x="873" unicode="@" glyph-name="at"/>
<glyph d="M245 99l-32 -99h-226l259 700h215l259 -700h-226l-32 99h-217zM288 243h131l-66 210z" horiz-adv-x="710" unicode="A" glyph-name="A"/>
<glyph d="M85 700h396q115 0 166 -42q56 -46 56 -133q0 -64 -43 -108q-31 -32 -71 -42v-4q62 -12 99 -49q50 -48 50 -131q0 -95 -66 -143q-63 -48 -194 -48h-393v700zM303 542v-112h112q39 0 54 14q16 14 16 42q0 29 -18 43q-17 13 -55 13h-109zM303 285v-127h132q40 0 57 15 q19 17 19 49q0 34 -20 49q-18 14 -57 14h-131z" horiz-adv-x="778" unicode="B" glyph-name="B"/>
<glyph d="M526 258h213q-11 -122 -87 -197q-82 -81 -259 -81q-167 0 -252 80q-101 95 -101 283q0 182 104 283q94 92 263 92q162 0 245 -85q11 -11 23.5 -27.5t32.5 -62t25 -96.5h-211q-6 39 -33 63q-26 22 -75 22q-62 0 -97 -35q-45 -45 -45 -148q0 -96 39 -142q34 -40 97 -40 q53 0 84 27q29 25 34 64z" horiz-adv-x="759" unicode="C" glyph-name="C"/>
<glyph d="M85 700h336q75 0 134 -15.5t109 -62.5q49 -46 75 -121t26 -161q0 -174 -102 -267q-36 -33 -81 -50t-77 -20t-84 -3h-336v700zM303 516v-328h78q75 0 110 33q42 39 42 129q0 93 -38 131q-35 35 -115 35h-77z" horiz-adv-x="800" unicode="D" glyph-name="D"/>
<glyph d="M303 436h311v-165h-311v-86h371v-185h-589v700h581v-185h-363v-79z" horiz-adv-x="719" unicode="E" glyph-name="E"/>
<glyph d="M303 417h286v-171h-286v-246h-218v700h563v-192h-345v-91z" horiz-adv-x="663" unicode="F" glyph-name="F"/>
<glyph d="M449 386h306v-386h-160l-13 59q-32 -39 -79 -59.5t-127 -20.5q-152 0 -235 77q-101 94 -101 276q0 178 106 286q98 99 259 99q156 0 240 -66q38 -30 66.5 -80t36.5 -113h-225q-5 37 -26 58q-29 30 -82 30q-58 0 -93 -37q-46 -49 -46 -159q0 -117 54 -167q33 -32 93 -32 q47 0 80 25q28 22 42 56h-96v154z" horiz-adv-x="800" unicode="G" glyph-name="G"/>
<glyph d="M303 275v-275h-218v700h218v-241h195v241h218v-700h-218v275h-195z" horiz-adv-x="801" unicode="H" glyph-name="H"/>
<glyph d="M85 700h218v-700h-218v700z" horiz-adv-x="388" unicode="I" glyph-name="I"/>
<glyph d="M20 276h214v-41q0 -42 14 -60q16 -20 44 -20q26 0 40 19q13 17 13 54v472h218v-440q0 -149 -70 -217q-65 -63 -199 -63q-141 0 -207 67q-30 30 -46 73t-18.5 71.5t-2.5 70.5v14z" horiz-adv-x="648" unicode="J" glyph-name="J"/>
<glyph d="M303 471l220 229h255l-279 -291l295 -409h-263l-174 266l-54 -57v-209h-218v700h218v-229z" horiz-adv-x="779" unicode="K" glyph-name="K"/>
<glyph d="M606 185v-185h-521v700h218v-515h303z" horiz-adv-x="611" unicode="L" glyph-name="L"/>
<glyph d="M423 0l-140 460l-5 -1l5 -53v-406h-198v700h296l113 -396l6 -48h5l7 48l112 396h296v-700h-198v406l5 53l-5 1l-140 -460h-159z" horiz-adv-x="1005" unicode="M" glyph-name="M"/>
<glyph d="M303 388h-5l5 -53v-335h-218v700h218l214 -388h5l-5 53v335h218v-700h-218z" horiz-adv-x="820" unicode="N" glyph-name="N"/>
<glyph d="M40 348q0 168 99 273q56 59 121.5 78.5t143.5 19.5q186 0 281 -99q93 -95 93 -264q0 -177 -91 -275q-93 -100 -275 -100q-187 0 -282 102q-90 96 -90 265zM272 350q0 -101 44 -148q36 -37 93 -37q61 0 94 37q43 47 43 148q0 103 -43 148q-36 37 -90 37q-59 0 -95 -37 q-46 -48 -46 -148z" unicode="O" glyph-name="O"/>
<glyph d="M85 700h356q138 0 207 -66q67 -64 67 -181q0 -124 -66 -188q-23 -23 -50.5 -37t-59.5 -19t-50 -6t-48 -1h-138v-202h-218v700zM303 511v-141h104q48 0 69 20q20 18 20 56q0 31 -18 47q-20 18 -71 18h-104z" horiz-adv-x="740" unicode="P" glyph-name="P"/>
<glyph d="M673 102l86 -85l-93 -96l-94 98q-71 -38 -173 -38q-81 0 -147 17.5t-120 72.5q-92 93 -92 262q0 187 98 287q96 99 281 99q179 0 271 -99q86 -92 86 -250q0 -168 -103 -268zM468 308l63 -64q13 55 13 112q0 96 -33 142q-34 48 -100 48q-60 0 -95 -44q-44 -55 -44 -159 q0 -111 49 -160q33 -33 92 -33q27 0 45 13l-67 71z" horiz-adv-x="816" unicode="Q" glyph-name="Q"/>
<glyph d="M85 0v700h395q112 0 173 -57q60 -56 60 -160q0 -80 -46 -126q-28 -27 -63 -36v-5q44 -12 71 -47q26 -35 28 -109l2 -57q2 -63 25 -103h-223q-22 33 -24 86l-2 42q0 2 -0.5 13t-0.5 14.5t-1 13.5t-2.5 15t-4 12.5t-7 13.5t-9.5 11q-22 21 -77 21h-76v-242h-218zM303 530 v-138h123q39 0 58 17q22 18 22 54q0 31 -19 49q-20 18 -62 18h-122z" horiz-adv-x="770" unicode="R" glyph-name="R"/>
<glyph d="M30 231h219q-3 -47 24 -76q26 -28 85 -28q40 0 62 15q26 17 26 50q0 32 -26 50q-22 15 -82 28l-70 14q-119 24 -173 74q-54 48 -54 132q0 104 82 169q76 59 215 59q148 0 218 -60q29 -25 49.5 -66t22.5 -92h-206q0 31 -16 48q-20 22 -68 22q-40 0 -60 -12 q-24 -15 -24 -41q0 -21 14 -34q3 -3 6 -5.5t7.5 -4.5t8.5 -3.5t10.5 -3.5t10.5 -3t12.5 -3t13.5 -3t15.5 -3.5t16.5 -3.5l68 -15q113 -24 163 -74q54 -54 54 -136q0 -47 -18.5 -94t-47.5 -76q-76 -77 -247 -77q-169 0 -245 79q-28 29 -46.5 75t-19.5 99z" horiz-adv-x="684" unicode="S" glyph-name="S"/>
<glyph d="M208 508h-198v192h614v-192h-198v-508h-218v508z" horiz-adv-x="634" unicode="T" glyph-name="T"/>
<glyph d="M733 700v-438q0 -63 -12.5 -109.5t-55.5 -89.5q-81 -82 -255 -82q-176 0 -257 82q-41 42 -54.5 89.5t-13.5 110.5v437h219v-428q0 -60 27 -88q26 -27 78 -27t78 27q27 28 27 88v428h219z" unicode="U" glyph-name="U"/>
<glyph d="M350 256l14 71l95 373h236l-236 -700h-224l-235 700h235l97 -373l13 -71h5z" horiz-adv-x="695" unicode="V" glyph-name="V"/>
<glyph d="M499 455l-85 -455h-221l-193 700h215l85 -375l13 -81l16 87l75 369h188l81 -377l12 -79l13 91l85 365h214l-192 -700h-218z" horiz-adv-x="997" unicode="W" glyph-name="W"/>
<glyph d="M379 204l-119 -204h-270l260 366l-225 334h240l114 -195l116 195h246l-233 -334l252 -366h-265z" horiz-adv-x="750" unicode="X" glyph-name="X"/>
<glyph d="M344 416l116 284h235l-244 -455v-245h-218v245l-243 455h235z" horiz-adv-x="685" unicode="Y" glyph-name="Y"/>
<glyph d="M356 508h-302v192h575v-155l-340 -353h367v-192h-616v189z" horiz-adv-x="696" unicode="Z" glyph-name="Z"/>
<glyph d="M53 761h295v-133h-96v-644h96v-136h-295v913z" horiz-adv-x="401" unicode="[" glyph-name="bracketleft"/>
<glyph d="M452 -185h-85l-367 885h85z" horiz-adv-x="452" unicode="\" glyph-name="backslash"/>
<glyph d="M348 761v-913h-295v136h96v644h-96v133h295z" horiz-adv-x="401" unicode="]" glyph-name="bracketright"/>
<glyph d="M259 627l-85 -145h-145l140 218h180l140 -218h-145z" horiz-adv-x="520" unicode="^" glyph-name="asciicircum"/>
<glyph d="M0 -190v85h497v-85h-497z" horiz-adv-x="497" unicode="_" glyph-name="underscore"/>
<glyph d="M208 700l66 -132h-143l-112 132h189z" horiz-adv-x="375" unicode="`" glyph-name="grave"/>
<glyph d="M249 335h-197q6 71 51 118q66 68 214 68q150 0 210 -59q52 -50 52 -145v-229q0 -45 7 -58q8 -16 28 -23v-7h-226l-13 55h-2q-26 -31 -62 -49q-47 -24 -114 -24q-86 0 -128 39q-43 41 -43 110q0 61 38 99q44 44 137 55l60 7q74 9 87 17q3 2 6 5q15 15 15 38q0 22 -13 33 q-15 14 -44 14q-31 0 -47 -16q-18 -18 -16 -48zM369 217v13q-23 -17 -60 -22q-45 -8 -60 -24q-12 -13 -12 -32q0 -20 13 -33t35 -13q35 0 57 23q27 28 27 88z" horiz-adv-x="634" unicode="a" glyph-name="a"/>
<glyph d="M265 49v-49h-200v700h210v-235q58 61 154 61q99 0 163 -65q73 -76 73 -207q0 -136 -77 -211q-61 -61 -168 -61q-100 0 -151 67h-4zM266 248q0 -74 33 -109q23 -25 56 -25q37 0 59 24q35 36 35 116q0 74 -33 107q-23 23 -57 23q-37 0 -61 -25q-32 -35 -32 -111z" horiz-adv-x="695" unicode="b" glyph-name="b"/>
<glyph d="M400 200h196q-9 -87 -68 -146q-72 -72 -217 -72q-138 0 -208 67q-73 69 -73 193q0 129 82 211q78 76 213 76q133 0 205 -72q57 -58 62 -146h-193q0 44 -24 68q-18 18 -48 18q-31 0 -51 -21q-30 -32 -30 -117q0 -91 31 -124q19 -21 51 -21q31 0 48 17q24 26 24 69z" horiz-adv-x="626" unicode="c" glyph-name="c"/>
<glyph d="M630 0h-200v49h-4q-56 -67 -160 -67t-166 64q-70 74 -70 196q0 137 74 216q64 68 170 68q97 0 146 -61v235h210v-700zM428 255q0 71 -30 103q-24 26 -63 26q-34 0 -57 -23q-32 -33 -32 -112q0 -76 36 -112q25 -23 57 -23q37 0 59 25q30 35 30 116z" horiz-adv-x="695" unicode="d" glyph-name="d"/>
<glyph d="M404 147h206q-27 -84 -101 -127q-66 -38 -185 -38q-73 0 -127.5 13.5t-97.5 56.5q-69 69 -69 187q0 126 76 205q78 82 220 82q149 0 222 -75q32 -33 48.5 -79.5t19 -75.5t2.5 -72v-12h-373q-2 -48 19 -77q22 -29 64 -29q32 0 50 10q20 11 26 31zM246 312h156q0 44 -22 68 q-19 21 -52 21q-38 0 -57 -22q-23 -24 -25 -67z" horiz-adv-x="648" unicode="e" glyph-name="e"/>
<glyph d="M428 508v-138h-118v-370h-212v370h-93v138h93v8q0 93 47 138q48 46 153 46q52 0 130 -10v-127q-34 8 -55 8q-30 0 -46 -13q-3 -3 -6 -5.5t-4.5 -5t-3 -6t-2 -5t-1 -6t-0.5 -5.5v-6.5v-6.5v-4h118z" horiz-adv-x="433" unicode="f" glyph-name="f"/>
<glyph d="M76 -25h194q0 -23 17 -34q17 -12 46 -12q35 0 56 19q20 20 20 60v56h-5q-52 -44 -143 -44q-109 0 -166 56q-65 63 -65 180q0 125 69 198q62 68 163 68q99 0 155 -61h5v47h197v-432q0 -137 -70 -205q-30 -28 -71.5 -43.5t-72 -18.5t-74.5 -3q-125 0 -186 43 q-64 44 -69 126zM247 267q0 -57 24 -88q22 -29 59 -29q39 0 60 25q27 31 27 93q0 61 -29 92q-24 24 -56 24q-34 0 -55 -23q-30 -30 -30 -94z" horiz-adv-x="684" unicode="g" glyph-name="g"/>
<glyph d="M275 700v-235q65 58 160 58q87 0 136 -47q54 -51 54 -171v-305h-210v272q0 52 -16 75q-17 26 -49 26q-35 0 -55 -29t-20 -74v-270h-210v700h210z" horiz-adv-x="690" unicode="h" glyph-name="h"/>
<glyph d="M65 508h210v-508h-210v508zM65 568v132h210v-132h-210z" horiz-adv-x="340" unicode="i" glyph-name="i"/>
<glyph d="M72 561v139h212v-139h-212zM72 508h211v-507q0 -100 -44 -144q-45 -45 -147 -45q-64 0 -112 10v142q16 -3 32 -3q32 0 45 13q15 15 15 55v479z" horiz-adv-x="349" unicode="j" glyph-name="j"/>
<glyph d="M275 350l137 158h233l-203 -205l208 -303h-233l-105 180l-37 -38v-142h-210v700h210v-350z" horiz-adv-x="640" unicode="k" glyph-name="k"/>
<glyph d="M65 700h210v-700h-210v700z" horiz-adv-x="340" unicode="l" glyph-name="l"/>
<glyph d="M65 508h189v-70h6q24 37 58 60q42 27 98 27q55 0 97 -26q39 -25 56 -70q25 40 65 65q48 31 117 31q87 0 135 -46q58 -55 58 -178v-301h-205v283q0 48 -17 70q-16 23 -44 23q-33 0 -52 -29t-19 -72v-275h-205v287q0 49 -19 71q-16 18 -43 18q-30 0 -50 -28 q-20 -29 -20 -70v-278h-205v508z" horiz-adv-x="1009" unicode="m" glyph-name="m"/>
<glyph d="M266 508v-54h4q26 31 65 49q42 20 98 20q91 0 140 -47q32 -30 42 -70t10 -101v-305h-210v272q0 49 -16 75t-48 26q-36 0 -56 -29q-20 -28 -20 -74v-270h-210v508h201z" horiz-adv-x="690" unicode="n" glyph-name="n"/>
<glyph d="M329 394q-32 0 -51 -20q-32 -35 -32 -120q0 -86 31 -120q17 -20 48 -20t50 20q33 35 33 120q0 87 -32 121q-18 19 -47 19zM624 255q0 -125 -77 -200q-75 -73 -230 -73q-143 0 -212 63q-75 67 -75 198q0 122 76 202q79 81 223 81q143 0 219 -73q76 -72 76 -198z" horiz-adv-x="654" unicode="o" glyph-name="o"/>
<glyph d="M65 508h200v-56h4q53 74 164 74q103 0 160 -55q13 -13 26.5 -31.5t29.5 -67.5t16 -109q0 -143 -75 -219q-60 -62 -167 -62q-96 0 -148 55v-222h-210v693zM266 248q0 -68 26 -102q25 -32 65 -32q37 0 61 26q31 34 31 108q0 76 -31 110q-22 26 -61 26q-37 0 -60 -26 q-31 -33 -31 -110z" horiz-adv-x="695" unicode="p" glyph-name="p"/>
<glyph d="M430 453v55h200v-693h-210v222q-54 -55 -152 -55q-105 0 -164 57q-74 70 -74 204q0 143 76 221q59 62 162 62q110 0 158 -73h4zM429 256q0 74 -31 105q-23 23 -59 23t-59 -23q-34 -34 -34 -113q0 -69 29 -105q23 -29 62 -29q40 0 61 26q31 35 31 116z" horiz-adv-x="695" unicode="q" glyph-name="q"/>
<glyph d="M473 519v-161q-28 5 -55 5q-68 0 -106 -38q-37 -38 -37 -137v-188h-210v508h201v-72q26 40 69 64q42 22 104 22q16 0 34 -3z" horiz-adv-x="488" unicode="r" glyph-name="r"/>
<glyph d="M25 167h205q-6 -33 15 -54q17 -17 51 -17q32 0 51 11q22 13 22 35q0 25 -25 37q-17 8 -67 15l-52 8q-100 15 -139 49q-42 38 -42 99q0 87 70 134q64 43 187 43q117 0 173 -38q64 -44 69 -126h-179q2 28 -15 45q-16 16 -52 16q-29 0 -45 -12q-18 -13 -18 -34t22 -31 q18 -10 63 -16l70 -10q91 -13 132 -52q43 -41 43 -108q0 -88 -68 -136q-62 -44 -200 -44q-79 0 -132.5 13t-89.5 50q-48 50 -49 123z" horiz-adv-x="589" unicode="s" glyph-name="s"/>
<glyph d="M5 370v138h92v150h210v-150h108v-138h-108v-168q0 -40 14 -55q14 -14 47 -14q21 0 47 7v-141q-63 -14 -129 -14q-108 0 -150 42q-39 39 -39 125v218h-92z" horiz-adv-x="441" unicode="t" glyph-name="t"/>
<glyph d="M429 0v56h-5q-65 -70 -173 -70q-87 0 -133 45q-53 52 -53 173v304h210v-273q0 -54 17 -77q16 -22 50 -22q33 0 51 25q21 28 21 77v270h210v-508h-195z" horiz-adv-x="689" unicode="u" glyph-name="u"/>
<glyph d="M283 199l92 309h207l-186 -508h-226l-180 508h211z" horiz-adv-x="572" unicode="v" glyph-name="v"/>
<glyph d="M428 271l-69 -271h-196l-176 508h200l79 -276l68 276h180l67 -276l76 276h202l-170 -508h-192z" horiz-adv-x="849" unicode="w" glyph-name="w"/>
<glyph d="M293 369l78 140h210l-182 -246l182 -263h-203l-86 139l-84 -139h-208l187 263l-177 245h206z" horiz-adv-x="581" unicode="x" glyph-name="x"/>
<glyph d="M62 -173v135q26 -10 56 -10q33 0 50 13q20 14 26 43l5 22l-199 478h212l101 -317l80 317h195l-179 -500q-32 -91 -58 -125q-9 -10 -18 -19q-54 -50 -156 -50q-57 0 -115 13z" horiz-adv-x="588" unicode="y" glyph-name="y"/>
<glyph d="M47 370v138h457v-140l-264 -230l277 1v-139h-492v140l268 230h-246z" horiz-adv-x="542" unicode="z" glyph-name="z"/>
<glyph d="M132 253v108q35 0 58 21q33 29 33 101q0 14 -2 60.5t-2 64.5q0 92 48 136q55 51 154 51h4v-95q-26 -2 -42 -19q-19 -20 -19 -69q0 -52 2 -77t2 -39q0 -43 -9.5 -75t-40.5 -61q-32 -31 -85 -49v-8q53 -18 85 -49q31 -29 40.5 -61t9.5 -75q0 -14 -2 -39t-2 -77 q0 -49 19 -69q16 -17 42 -19v-95h-4q-41 0 -84 13t-70 38q-48 44 -48 136q0 18 2 64.5t2 60.5q0 72 -33 101q-23 21 -58 21z" horiz-adv-x="529" unicode="{" glyph-name="braceleft"/>
<glyph d="M195 -224v1053h85v-1053h-85z" horiz-adv-x="475" unicode="|" glyph-name="bar"/>
<glyph d="M397 361v-108q-35 0 -58 -21q-33 -29 -33 -101q0 -14 2 -60.5t2 -64.5q0 -92 -48 -136q-27 -25 -70 -38t-84 -13h-4v95q26 2 42 19q19 20 19 69q0 52 -2 77t-2 39q0 43 9.5 75t40.5 61q32 31 85 49v8q-53 18 -85 49q-31 29 -40.5 61t-9.5 75q0 14 2 39t2 77q0 49 -19 69 q-16 17 -42 19v95h4q99 0 154 -51q48 -44 48 -136q0 -18 -2 -64.5t-2 -60.5q0 -72 33 -101q23 -21 58 -21z" horiz-adv-x="529" unicode="}" glyph-name="braceright"/>
<glyph d="M125 279l-75 46q23 55 58 90q44 44 111 44q48 0 102 -31l63 -36q37 -22 66 -22q32 0 50 17q16 16 27 40l74 -45q-24 -66 -55 -97q-37 -38 -100 -38q-48 0 -99 28l-73 41q-34 20 -69 20q-34 0 -56 -22q-15 -15 -24 -35z" horiz-adv-x="651" unicode="~" glyph-name="asciitilde"/>
<glyph d="M240 264l59 -264v-182h-224v182l59 264h106zM81 333v191h209v-191h-209z" horiz-adv-x="374" unicode="¡" glyph-name="exclamdown"/>
<glyph d="M451 200h196q-10 -89 -68 -147q-67 -67 -165 -69v-116h-79v116q-108 4 -180 76q-74 74 -74 197q0 128 73 199q71 69 181 71v109h79v-109q100 -4 166 -72q57 -57 63 -144h-193q0 44 -24 68q-18 18 -48 18q-31 0 -51 -21q-30 -32 -30 -108q0 -101 36 -136q19 -18 48 -18 q30 0 47 17q23 23 23 69z" horiz-adv-x="720" unicode="¢" glyph-name="cent"/>
<glyph d="M569 215l92 -143q-52 -54 -93.5 -71t-86.5 -17q-61 0 -109 22l-22 10q-52 23 -86 23q-45 0 -89 -39l-96 149q0 1 18 16t25 22q33 34 33 73q0 23 -11 45h-84v70h56q-30 58 -30 118q0 106 78 165q72 55 196 55q135 0 207 -65q44 -40 57 -86t13 -110v-3h-194v2q0 55 -13 75 q-20 30 -64 30q-30 0 -50 -17q-24 -22 -24 -58q0 -26 22 -62q15 -22 22 -44h97v-70h-86q5 -38 -12 -71q-9 -22 -36 -43l2 -8q35 13 61 13q24 0 61 -11q42 -14 62 -14q48 0 84 44z" horiz-adv-x="720" unicode="£" glyph-name="sterling"/>
<glyph d="M12 57l100 102q-54 78 -54 174t53 173l-101 101l81 83l98 -104q81 58 180 58q101 0 180 -58l101 102l75 -84l-97 -99q52 -80 52 -172q0 -90 -50 -169l101 -107l-82 -78l-100 101q-80 -58 -179 -58t-180 57l-99 -102zM170 333q0 -83 58 -141t141 -58t141 58t58 141 t-58 141t-141 58t-141 -58t-58 -141z" horiz-adv-x="741" unicode="¤" glyph-name="currency"/>
<glyph d="M360 416l118 284h235l-248 -437v-26h82v-66h-82v-33h82v-66h-82v-72h-210v72h-82v66h82v33h-82v66h82v26l-247 437h235z" horiz-adv-x="720" unicode="¥" glyph-name="yen"/>
<glyph d="M195 176h85v-400h-85v400zM280 429h-85v400h85v-400z" horiz-adv-x="475" unicode="¦" glyph-name="brokenbar"/>
<glyph d="M84 23h164q0 -34 16 -51q15 -17 49 -17q22 0 37 11q17 12 17 36q0 20 -16 33q-11 8 -77 27l-71 20q-76 21 -114 55q-49 44 -49 127q0 55 29 101q22 35 56 53q-35 47 -35 99q0 80 51 131q56 56 174 56q111 0 164 -52q24 -24 37.5 -62t9.5 -75h-157q0 28 -13 41 q-15 15 -43 15t-41 -13q-12 -12 -12 -30q0 -16 10 -27q15 -17 86 -33l35 -8q101 -24 141 -63q49 -48 49 -133q0 -59 -29 -102q-20 -30 -58 -55q43 -39 43 -102q0 -82 -53 -135q-59 -59 -171 -59q-113 0 -169 54q-27 27 -43.5 67.5t-16.5 79.5v11zM252 239l150 -39 q15 7 20 14q9 11 9 29q0 19 -12 31q-11 11 -45 21l-152 42q-11 -6 -18 -16q-8 -11 -8 -26q0 -22 14 -36q12 -12 42 -20z" horiz-adv-x="621" unicode="§" glyph-name="section"/>
<glyph d="M50 581v129h172v-129h-172zM319 581v129h172v-129h-172z" horiz-adv-x="541" unicode="¨" glyph-name="dieresis"/>
<glyph d="M420 305h104q-4 -58 -42 -96q-40 -39 -117 -39q-83 0 -130 47q-50 50 -50 138q0 81 43 126q44 46 131 46q83 0 123 -40q34 -34 39 -91h-102q0 16 -14 29t-40 13q-29 0 -46 -18q-21 -23 -21 -67q0 -53 24 -76q18 -16 45 -16q25 0 39 12t14 32zM10 350q0 145 103 248 q103 102 247 102t247 -102q103 -103 103 -248t-103 -248q-102 -102 -247 -102q-144 0 -247 103t-103 247zM90 350q0 -113 78 -191q79 -79 192 -79t192 80q78 79 78 190q0 113 -81 193q-78 77 -189 77q-113 0 -192 -80q-78 -79 -78 -190z" horiz-adv-x="720" unicode="©" glyph-name="copyright"/>
<glyph d="M34 290v55h332v-55h-332zM161 606h-118q3 45 30 74q38 40 130 40q89 0 129 -40q31 -30 31 -84v-140q0 -28 4 -35q6 -11 17 -13v-5h-138l-7 31h-2q-16 -20 -38 -29q-24 -12 -70 -12q-50 0 -78 27q-25 25 -25 64q0 36 23 59q27 25 77 32l30 4q57 8 64 12q14 8 14 22 q0 17 -10 25q-11 7 -25 7q-19 0 -28 -9q-12 -10 -10 -30zM234 531v8q-15 -10 -36 -13q-26 -5 -34 -12q-9 -8 -9 -20q0 -13 7 -22q8 -8 22 -8q19 0 34 13q16 15 16 54z" horiz-adv-x="404" unicode="ª" glyph-name="ordfeminine"/>
<glyph d="M40 356l150 139v-177l-65 -53l65 -55v-179l-150 140v185zM236 357l151 139v-177l-66 -53l66 -55v-180l-151 141v185z" horiz-adv-x="467" unicode="«" glyph-name="guillemotleft"/>
<glyph d="M53 390h566v-224h-85v139h-481v85z" horiz-adv-x="675" unicode="¬" glyph-name="logicalnot"/>
<glyph d="M10 350q0 145 103 248q103 102 247 102t247 -102q103 -103 103 -248t-103 -248q-102 -102 -247 -102q-144 0 -247 103t-103 247zM90 350q0 -113 78 -191q79 -79 192 -79t192 80q78 79 78 190q0 113 -81 193q-78 77 -189 77q-113 0 -192 -80q-78 -79 -78 -190zM218 181 v341h192q54 0 84 -29q29 -28 29 -76q0 -35 -16 -56q-13 -18 -36 -24v-2q20 -5 32 -20t14 -57l1 -28q2 -29 13 -49h-107q-10 15 -12 41l-1 21q-2 35 -10 43q-10 11 -35 11h-42v-116h-106zM324 438v-66h58q21 0 29 6q11 8 11 28q0 18 -10 26q-8 6 -28 6h-60z" horiz-adv-x="720" unicode="®" glyph-name="registered"/>
<glyph d="M50 590v96h406v-96h-406z" horiz-adv-x="506" unicode="¯" glyph-name="macron"/>
<glyph d="M50 590v96h406v-96h-406z" horiz-adv-x="506" unicode="ˉ" glyph-name="macron"/>
<glyph d="M40 605q0 51 36.5 87.5t87.5 36.5t87.5 -36.5t36.5 -87.5t-36.5 -87.5t-87.5 -36.5t-87.5 36.5t-36.5 87.5zM110 605q0 -23 16 -38.5t38 -15.5t38 15.5t16 38.5t-16 38.5t-38 15.5t-38 -15.5t-16 -38.5z" horiz-adv-x="328" unicode="°" glyph-name="degree"/>
<glyph d="M53 450h243v220h85v-220h243v-85h-243v-180h-85v180h-243v85zM53 140h571v-85h-571v85z" horiz-adv-x="680" unicode="±" glyph-name="plusminus"/>
<glyph d="M389 396v-103h-351v8q0 84 39 124q18 19 75 50l46 24q33 18 47 32q21 21 21 52q0 25 -14 39q-15 15 -43 15q-26 0 -40 -16t-14 -52v-6h-120v7q0 72 39 110q47 45 136 45q94 0 143 -47q37 -37 37 -97q0 -51 -33 -84q-24 -24 -66 -43l-13 -6q-23 -11 -46 -21 q-32 -15 -34 -31h191z" horiz-adv-x="435" unicode="²" glyph-name="twosuperior"/>
<glyph d="M35 444h123v-6q0 -30 15 -47q16 -18 50 -18q27 0 43 14q15 15 15 38q0 24 -18 36q-15 10 -49 10h-31v81h30q38 0 46 8q19 11 19 35q0 25 -17 36q-14 10 -41 10q-35 0 -50 -20q-11 -16 -11 -37v-6h-117v6q0 58 41 99q43 42 139 42q81 0 123 -27q49 -30 49 -92 q0 -43 -25 -68q-20 -21 -51 -24v-2q41 -6 65 -32q25 -27 25 -65q0 -67 -55 -104q-41 -27 -129 -27q-102 0 -147 45q-42 40 -42 109v6z" horiz-adv-x="453" unicode="³" glyph-name="threesuperior"/>
<glyph d="M167 700h189l-112 -132h-143z" horiz-adv-x="375" unicode="´" glyph-name="acute"/>
<glyph d="M264 -185h-199v693h205v-236q0 -72 16 -111q21 -48 62 -48q44 0 64 52q14 38 14 107v236h205v-508h-199v77h-7q-7 -38 -25 -63q-21 -30 -53 -30q-33 0 -53 30q-16 23 -24 63h-6v-262z" horiz-adv-x="696" unicode="µ" glyph-name="mu"/>
<glyph d="M264 -185h-199v693h205v-236q0 -72 16 -111q21 -48 62 -48q44 0 64 52q14 38 14 107v236h205v-508h-199v77h-7q-7 -38 -25 -63q-21 -30 -53 -30q-33 0 -53 30q-16 23 -24 63h-6v-262z" horiz-adv-x="696" unicode="μ" glyph-name="mu"/>
<glyph d="M196 -185v555q-78 2 -122 52.5t-44 112.5q0 69 48.5 117t117.5 48h90v-885h-90zM366 -185v885h90v-885h-90z" horiz-adv-x="523" unicode="¶" glyph-name="paragraph"/>
<glyph d="M70 264v206h213v-206h-213z" horiz-adv-x="353" unicode="·" glyph-name="periodcentered"/>
<glyph d="M70 264v206h213v-206h-213z" horiz-adv-x="353" unicode="⋅" glyph-name="periodcentered"/>
<glyph d="M70 264v206h213v-206h-213z" horiz-adv-x="353" unicode="∙" glyph-name="periodcentered"/>
<glyph d="M37 -234l24 70q35 -10 63 -10q30 0 41 5q18 7 18 25q0 20 -23 26q-24 4 -68 4h-14l23 67q19 2 51 2q69 0 103 -20q42 -26 42 -77q0 -57 -43 -85q-33 -23 -102 -23q-74 0 -115 16z" horiz-adv-x="333" unicode="¸" glyph-name="cedilla"/>
<glyph d="M30 560v67h8q49 0 76 15q34 17 44 58h101v-420h-133v280h-96z" horiz-adv-x="334" unicode="¹" glyph-name="onesuperior"/>
<glyph d="M391 553q0 -75 -46 -119t-135 -44t-135 44q-45 43 -45 121t45 121q46 44 135 44t135 -44q46 -42 46 -123zM46 290v55h331v-55h-331zM210 639q-19 0 -31 -12q-18 -18 -18 -74q0 -50 19 -72q12 -12 31 -12q20 0 31 14q17 20 17 70q0 56 -18 74q-12 12 -31 12z" horiz-adv-x="421" unicode="º" glyph-name="ordmasculine"/>
<glyph d="M427 356v-185l-150 -140l-1 177l66 54l-66 55v179zM231 355v-185l-151 -139v176l66 54l-66 55v179z" horiz-adv-x="467" unicode="»" glyph-name="guillemotright"/>
<glyph d="M35 560v67h8q49 0 76 15q34 17 44 58h101v-420h-133v280h-96zM82 0l600 700h108l-600 -700h-108zM654 92h-196v97l203 231h119v-233h54v-95h-54v-92h-126v92zM554 187h107v118z" horiz-adv-x="879" unicode="¼" glyph-name="onequarter"/>
<glyph d="M35 560v67h8q49 0 76 15q34 17 44 58h101v-420h-133v280h-96zM906 103v-103h-351v8q0 84 39 124q18 19 75 50l46 24q33 18 47 32q21 21 21 52q0 25 -14 39q-15 15 -41 15q-28 0 -42 -16t-14 -52v-6h-120v7q0 72 39 110q47 45 136 45q94 0 143 -47q37 -37 37 -97 q0 -51 -33 -84q-24 -24 -66 -43l-13 -6q-14 -6 -24 -10.5t-14.5 -6.5t-7.5 -4q-32 -15 -34 -31h191zM82 0l600 700h108l-600 -700h-108z" horiz-adv-x="952" unicode="½" glyph-name="onehalf"/>
<glyph d="M164 0l600 700h108l-600 -700h-108zM736 92h-196v97l203 231h119v-233h54v-95h-54v-92h-126v92zM636 187h107v118zM35 444h123v-6q0 -30 15 -47q16 -18 50 -18q27 0 43 14q15 15 15 38q0 24 -18 36q-15 10 -49 10h-31v81h30q38 0 46 8q19 11 19 35q0 25 -17 36 q-14 10 -41 10q-35 0 -50 -20q-11 -16 -11 -37v-6h-117v6q0 58 41 99q43 42 139 42q81 0 123 -27q49 -30 49 -92q0 -43 -25 -68q-20 -21 -51 -24v-2q41 -6 65 -32q25 -27 25 -65q0 -67 -55 -104q-41 -27 -129 -27q-102 0 -147 45q-42 40 -42 109v6z" horiz-adv-x="961" unicode="¾" glyph-name="threequarters"/>
<glyph d="M436 529v-187h-213v187h213zM385 56h202v-9q0 -102 -64 -162q-68 -65 -213 -65q-133 0 -196 44q-74 51 -74 145q0 70 47 117q23 23 67 47q45 25 61 41q27 30 27 64v6h164v-17q0 -52 -13 -82q-15 -36 -62 -71l-27 -20q-1 -1 -7.5 -5.5t-8.5 -6t-8.5 -7t-9 -9t-7 -9.5 t-7 -11.5t-4 -13.5t-1.5 -16q0 -28 15 -41q16 -16 48 -16q33 0 52 21q19 22 19 73v3z" horiz-adv-x="627" unicode="¿" glyph-name="questiondown"/>
<glyph d="M245 99l-32 -99h-226l259 700h215l259 -700h-226l-32 99h-217zM288 243h131l-66 210zM368 908l66 -142h-153l-112 142h199z" horiz-adv-x="710" unicode="À" glyph-name="Agrave"/>
<glyph d="M245 99l-32 -99h-226l259 700h215l259 -700h-226l-32 99h-217zM288 243h131l-66 210zM342 908h199l-112 -142h-153z" horiz-adv-x="710" unicode="Á" glyph-name="Aacute"/>
<glyph d="M245 99l-32 -99h-226l259 700h215l259 -700h-226l-32 99h-217zM288 243h131l-66 210zM352 849l-77 -83h-160l125 132h224l125 -132h-160z" horiz-adv-x="710" unicode="Â" glyph-name="Acircumflex"/>
<glyph d="M245 99l-32 -99h-226l259 700h215l259 -700h-226l-32 99h-217zM288 243h131l-66 210zM470 901h106q-9 -67 -47 -105q-29 -30 -76 -30q-33 0 -79 21l-30 14q-32 16 -56 16q-18 0 -29 -11q-10 -12 -12 -29h-107q9 55 41 93q34 40 89 40q32 0 74 -19l26 -12q44 -20 61 -20 q18 0 27 10q10 11 12 32z" horiz-adv-x="710" unicode="Ã" glyph-name="Atilde"/>
<glyph d="M245 99l-32 -99h-226l259 700h215l259 -700h-226l-32 99h-217zM288 243h131l-66 210zM130 779v129h172v-129h-172zM399 779v129h172v-129h-172z" horiz-adv-x="710" unicode="Ä" glyph-name="Adieresis"/>
<glyph d="M245 99l-32 -99h-226l259 700h215l259 -700h-226l-32 99h-217zM288 243h131l-66 210zM244 872q0 47 32 79.5t79 32.5t79 -32.5t32 -79.5q0 -46 -32 -78.5t-79 -32.5t-79 32.5t-32 78.5zM309 872q0 -20 13.5 -33t32.5 -13t32.5 13t13.5 33q0 21 -14.5 34t-31.5 13 t-31.5 -13t-14.5 -34z" horiz-adv-x="710" unicode="Å" glyph-name="Aring"/>
<glyph d="M265 99l-60 -99h-230l426 700h681v-185h-363v-79h311v-165h-311v-86h371v-185h-585v99h-240zM345 243h160v232h-25z" horiz-adv-x="1135" unicode="Æ" glyph-name="AE"/>
<glyph d="M526 258h213q-11 -122 -87 -197q-82 -81 -259 -81q-167 0 -252 80q-101 95 -101 283q0 182 104 283q94 92 263 92q162 0 245 -85q11 -11 23.5 -27.5t32.5 -62t25 -96.5h-211q-6 39 -33 63q-26 22 -75 22q-62 0 -97 -35q-45 -45 -45 -148q0 -96 39 -142q34 -40 97 -40 q53 0 84 27q29 25 34 64zM282 -245l24 70q35 -10 63 -10q30 0 41 5q18 7 18 25q0 20 -23 26q-24 4 -68 4h-14l23 67q19 2 51 2q69 0 103 -20q42 -26 42 -77q0 -57 -43 -85q-33 -23 -102 -23q-74 0 -115 16z" horiz-adv-x="759" unicode="Ç" glyph-name="Ccedilla"/>
<glyph d="M303 436h311v-165h-311v-86h371v-185h-589v700h581v-185h-363v-79zM408 908l66 -142h-153l-112 142h199z" horiz-adv-x="719" unicode="È" glyph-name="Egrave"/>
<glyph d="M303 436h311v-165h-311v-86h371v-185h-589v700h581v-185h-363v-79zM347 908h199l-112 -142h-153z" horiz-adv-x="719" unicode="É" glyph-name="Eacute"/>
<glyph d="M303 436h311v-165h-311v-86h371v-185h-589v700h581v-185h-363v-79zM377 849l-77 -83h-160l125 132h224l125 -132h-160z" horiz-adv-x="719" unicode="Ê" glyph-name="Ecircumflex"/>
<glyph d="M303 436h311v-165h-311v-86h371v-185h-589v700h581v-185h-363v-79zM150 779v129h172v-129h-172zM419 779v129h172v-129h-172z" horiz-adv-x="719" unicode="Ë" glyph-name="Edieresis"/>
<glyph d="M85 700h218v-700h-218v700zM235 908l66 -142h-153l-112 142h199z" horiz-adv-x="388" unicode="Ì" glyph-name="Igrave"/>
<glyph d="M85 700h218v-700h-218v700zM168 908h199l-112 -142h-153z" horiz-adv-x="388" unicode="Í" glyph-name="Iacute"/>
<glyph d="M85 700h218v-700h-218v700zM189 849l-77 -83h-160l125 132h224l125 -132h-160z" horiz-adv-x="388" unicode="Î" glyph-name="Icircumflex"/>
<glyph d="M85 700h218v-700h-218v700zM-31 779v129h172v-129h-172zM238 779v129h172v-129h-172z" horiz-adv-x="388" unicode="Ï" glyph-name="Idieresis"/>
<glyph d="M108 700h336q74 0 133.5 -15.5t109.5 -62.5t75.5 -121.5t25.5 -159.5q0 -178 -102 -268q-52 -46 -110.5 -59.5t-131.5 -13.5h-336v324h-98v99h98v277zM326 516v-93h134v-104h-134v-131h78q75 0 110 33q42 39 42 129q0 93 -38 131q-35 35 -115 35h-77z" horiz-adv-x="823" unicode="Ð" glyph-name="Eth"/>
<glyph d="M303 388h-5l5 -53v-335h-218v700h218l214 -388h5l-5 53v335h218v-700h-218zM522 901h106q-9 -67 -47 -105q-29 -30 -76 -30q-33 0 -79 21l-30 14q-32 16 -56 16q-18 0 -29 -11q-10 -12 -12 -29h-107q9 55 41 93q34 40 89 40q32 0 74 -19l26 -12q44 -20 61 -20q18 0 27 10 q10 11 12 32z" horiz-adv-x="820" unicode="Ñ" glyph-name="Ntilde"/>
<glyph d="M40 348q0 168 99 273q56 59 121.5 78.5t143.5 19.5q186 0 281 -99q93 -95 93 -264q0 -177 -91 -275q-93 -100 -275 -100q-187 0 -282 102q-90 96 -90 265zM272 350q0 -101 44 -148q36 -37 93 -37q61 0 94 37q43 47 43 148q0 103 -43 148q-36 37 -90 37q-59 0 -95 -37 q-46 -48 -46 -148zM448 908l66 -142h-153l-112 142h199z" unicode="Ò" glyph-name="Ograve"/>
<glyph d="M40 348q0 168 99 273q56 59 121.5 78.5t143.5 19.5q186 0 281 -99q93 -95 93 -264q0 -177 -91 -275q-93 -100 -275 -100q-187 0 -282 102q-90 96 -90 265zM272 350q0 -101 44 -148q36 -37 93 -37q61 0 94 37q43 47 43 148q0 103 -43 148q-36 37 -90 37q-59 0 -95 -37 q-46 -48 -46 -148zM407 908h199l-112 -142h-153z" unicode="Ó" glyph-name="Oacute"/>
<glyph d="M40 348q0 168 99 273q56 59 121.5 78.5t143.5 19.5q186 0 281 -99q93 -95 93 -264q0 -177 -91 -275q-93 -100 -275 -100q-187 0 -282 102q-90 96 -90 265zM272 350q0 -101 44 -148q36 -37 93 -37q61 0 94 37q43 47 43 148q0 103 -43 148q-36 37 -90 37q-59 0 -95 -37 q-46 -48 -46 -148zM409 849l-77 -83h-160l125 132h224l125 -132h-160z" unicode="Ô" glyph-name="Ocircumflex"/>
<glyph d="M40 348q0 168 99 273q56 59 121.5 78.5t143.5 19.5q186 0 281 -99q93 -95 93 -264q0 -177 -91 -275q-93 -100 -275 -100q-187 0 -282 102q-90 96 -90 265zM272 350q0 -101 44 -148q36 -37 93 -37q61 0 94 37q43 47 43 148q0 103 -43 148q-36 37 -90 37q-59 0 -95 -37 q-46 -48 -46 -148zM540 901h106q-9 -67 -47 -105q-29 -30 -76 -30q-33 0 -79 21l-30 14q-32 16 -56 16q-18 0 -29 -11q-10 -12 -12 -29h-107q9 55 41 93q34 40 89 40q32 0 74 -19l26 -12q44 -20 61 -20q18 0 27 10q10 11 12 32z" unicode="Õ" glyph-name="Otilde"/>
<glyph d="M40 348q0 168 99 273q56 59 121.5 78.5t143.5 19.5q186 0 281 -99q93 -95 93 -264q0 -177 -91 -275q-93 -100 -275 -100q-187 0 -282 102q-90 96 -90 265zM272 350q0 -101 44 -148q36 -37 93 -37q61 0 94 37q43 47 43 148q0 103 -43 148q-36 37 -90 37q-59 0 -95 -37 q-46 -48 -46 -148zM190 779v129h172v-129h-172zM459 779v129h172v-129h-172z" unicode="Ö" glyph-name="Odieresis"/>
<glyph d="M90 163l182 182l-182 181l60 61l182 -182l182 182l60 -61l-182 -181l182 -183l-60 -60l-182 183l-182 -182z" horiz-adv-x="664" unicode="×" glyph-name="multiply"/>
<glyph d="M40 17l79 85q-74 92 -74 248q0 175 99 273q96 96 273 96q130 0 223 -58l81 87l63 -66l-76 -82q75 -102 75 -254q0 -172 -91 -265q-98 -100 -281 -100q-70 0 -121 12.5t-104 46.5l-83 -89zM285 281l215 228q-34 30 -85 30q-61 0 -95 -37q-43 -47 -43 -152q0 -31 8 -69z M542 425l-217 -231q33 -33 87 -33q60 0 95 37q44 46 44 154q0 42 -9 73z" horiz-adv-x="824" unicode="Ø" glyph-name="Oslash"/>
<glyph d="M733 700v-438q0 -63 -12.5 -109.5t-55.5 -89.5q-81 -82 -255 -82q-176 0 -257 82q-41 42 -54.5 89.5t-13.5 110.5v437h219v-428q0 -60 27 -88q26 -27 78 -27t78 27q27 28 27 88v428h219zM418 908l66 -142h-153l-112 142h199z" unicode="Ù" glyph-name="Ugrave"/>
<glyph d="M733 700v-438q0 -63 -12.5 -109.5t-55.5 -89.5q-81 -82 -255 -82q-176 0 -257 82q-41 42 -54.5 89.5t-13.5 110.5v437h219v-428q0 -60 27 -88q26 -27 78 -27t78 27q27 28 27 88v428h219zM402 908h199l-112 -142h-153z" unicode="Ú" glyph-name="Uacute"/>
<glyph d="M733 700v-438q0 -63 -12.5 -109.5t-55.5 -89.5q-81 -82 -255 -82q-176 0 -257 82q-41 42 -54.5 89.5t-13.5 110.5v437h219v-428q0 -60 27 -88q26 -27 78 -27t78 27q27 28 27 88v428h219zM409 849l-77 -83h-160l125 132h224l125 -132h-160z" unicode="Û" glyph-name="Ucircumflex"/>
<glyph d="M733 700v-438q0 -63 -12.5 -109.5t-55.5 -89.5q-81 -82 -255 -82q-176 0 -257 82q-41 42 -54.5 89.5t-13.5 110.5v437h219v-428q0 -60 27 -88q26 -27 78 -27t78 27q27 28 27 88v428h219zM188 779v129h172v-129h-172zM457 779v129h172v-129h-172z" unicode="Ü" glyph-name="Udieresis"/>
<glyph d="M344 416l116 284h235l-244 -455v-245h-218v245l-243 455h235zM317 908h199l-112 -142h-153z" horiz-adv-x="685" unicode="Ý" glyph-name="Yacute"/>
<glyph d="M85 700h210v-112h146q143 0 212 -70q62 -62 62 -171t-66 -173q-23 -23 -50.5 -37t-59.5 -19t-50 -6t-48 -1h-138v-111h-218v700zM303 420v-141h104q51 0 70 18q19 19 19 54q0 34 -18 50q-20 19 -71 19h-104z" horiz-adv-x="740" unicode="Þ" glyph-name="Thorn"/>
<glyph d="M65 0v447q0 131 64 196q69 70 207 70q105 0 164 -44q66 -48 66 -137q0 -97 -80 -129v-5q59 -11 97 -51q47 -51 47 -140q0 -98 -56 -154q-59 -60 -172 -60q-50 0 -88 10v145q16 -6 37 -6q39 0 60 21q22 20 22 64q0 54 -32 77q-22 16 -78 16h-9v124h6q29 0 45 16 q17 17 17 49q0 30 -14 45q-14 14 -37 14q-31 0 -47 -23q-14 -20 -14 -61v-484h-205z" horiz-adv-x="660" unicode="ß" glyph-name="germandbls"/>
<glyph d="M249 335h-197q6 71 51 118q66 68 214 68q150 0 210 -59q52 -50 52 -145v-229q0 -45 7 -58q8 -16 28 -23v-7h-226l-13 55h-2q-26 -31 -62 -49q-47 -24 -114 -24q-86 0 -128 39q-43 41 -43 110q0 61 38 99q44 44 137 55l60 7q74 9 87 17q3 2 6 5q15 15 15 38q0 22 -13 33 q-15 14 -44 14q-31 0 -47 -16q-18 -18 -16 -48zM369 217v13q-23 -17 -60 -22q-45 -8 -60 -24q-12 -13 -12 -32q0 -20 13 -33t35 -13q35 0 57 23q27 28 27 88zM353 700l66 -132h-143l-112 132h189z" horiz-adv-x="634" unicode="à" glyph-name="agrave"/>
<glyph d="M249 335h-197q6 71 51 118q66 68 214 68q150 0 210 -59q52 -50 52 -145v-229q0 -45 7 -58q8 -16 28 -23v-7h-226l-13 55h-2q-26 -31 -62 -49q-47 -24 -114 -24q-86 0 -128 39q-43 41 -43 110q0 61 38 99q44 44 137 55l60 7q74 9 87 17q3 2 6 5q15 15 15 38q0 22 -13 33 q-15 14 -44 14q-31 0 -47 -16q-18 -18 -16 -48zM369 217v13q-23 -17 -60 -22q-45 -8 -60 -24q-12 -13 -12 -32q0 -20 13 -33t35 -13q35 0 57 23q27 28 27 88zM307 700h189l-112 -132h-143z" horiz-adv-x="634" unicode="á" glyph-name="aacute"/>
<glyph d="M249 335h-197q6 71 51 118q66 68 214 68q150 0 210 -59q52 -50 52 -145v-229q0 -45 7 -58q8 -16 28 -23v-7h-226l-13 55h-2q-26 -31 -62 -49q-47 -24 -114 -24q-86 0 -128 39q-43 41 -43 110q0 61 38 99q44 44 137 55l60 7q74 9 87 17q3 2 6 5q15 15 15 38q0 22 -13 33 q-15 14 -44 14q-31 0 -47 -16q-18 -18 -16 -48zM369 217v13q-23 -17 -60 -22q-45 -8 -60 -24q-12 -13 -12 -32q0 -20 13 -33t35 -13q35 0 57 23q27 28 27 88zM337 656l-77 -88h-160l125 132h224l125 -132h-160z" horiz-adv-x="634" unicode="â" glyph-name="acircumflex"/>
<glyph d="M249 335h-197q6 71 51 118q66 68 214 68q150 0 210 -59q52 -50 52 -145v-229q0 -45 7 -58q8 -16 28 -23v-7h-226l-13 55h-2q-26 -31 -62 -49q-47 -24 -114 -24q-86 0 -128 39q-43 41 -43 110q0 61 38 99q44 44 137 55l60 7q74 9 87 17q3 2 6 5q15 15 15 38q0 22 -13 33 q-15 14 -44 14q-31 0 -47 -16q-18 -18 -16 -48zM369 217v13q-23 -17 -60 -22q-45 -8 -60 -24q-12 -13 -12 -32q0 -20 13 -33t35 -13q35 0 57 23q27 28 27 88zM435 703h106q-9 -66 -46 -105q-29 -30 -76 -30q-34 0 -80 21l-30 14q-32 16 -56 16q-18 0 -29 -11 q-10 -12 -12 -29h-107q9 55 41 93q33 40 87 40q36 0 76 -19l26 -12q44 -20 61 -20q18 0 27 10q10 11 12 32z" horiz-adv-x="634" unicode="ã" glyph-name="atilde"/>
<glyph d="M249 335h-197q6 71 51 118q66 68 214 68q150 0 210 -59q52 -50 52 -145v-229q0 -45 7 -58q8 -16 28 -23v-7h-226l-13 55h-2q-26 -31 -62 -49q-47 -24 -114 -24q-86 0 -128 39q-43 41 -43 110q0 61 38 99q44 44 137 55l60 7q74 9 87 17q3 2 6 5q15 15 15 38q0 22 -13 33 q-15 14 -44 14q-31 0 -47 -16q-18 -18 -16 -48zM369 217v13q-23 -17 -60 -22q-45 -8 -60 -24q-12 -13 -12 -32q0 -20 13 -33t35 -13q35 0 57 23q27 28 27 88zM96 581v129h172v-129h-172zM365 581v129h172v-129h-172z" horiz-adv-x="634" unicode="ä" glyph-name="adieresis"/>
<glyph d="M249 335h-197q6 71 51 118q66 68 214 68q150 0 210 -59q52 -50 52 -145v-229q0 -45 7 -58q8 -16 28 -23v-7h-226l-13 55h-2q-26 -31 -62 -49q-47 -24 -114 -24q-86 0 -128 39q-43 41 -43 110q0 61 38 99q44 44 137 55l60 7q74 9 87 17q3 2 6 5q15 15 15 38q0 22 -13 33 q-15 14 -44 14q-31 0 -47 -16q-18 -18 -16 -48zM369 217v13q-23 -17 -60 -22q-45 -8 -60 -24q-12 -13 -12 -32q0 -20 13 -33t35 -13q35 0 57 23q27 28 27 88zM220 670q0 44 31 75t75 31t75 -31t31 -75t-31 -75t-75 -31t-75 31t-31 75zM282 670q0 -18 13 -31t31 -13t31 13 t13 31t-13 31t-31 13t-31 -13t-13 -31z" horiz-adv-x="634" unicode="å" glyph-name="aring"/>
<glyph d="M738 147h206q-22 -87 -100 -131q-60 -34 -167 -34q-93 0 -145 26q-47 23 -74 72q-32 -50 -79 -74q-46 -24 -140 -24q-116 0 -165 40q-48 39 -48 110q0 69 49 110q40 34 126 43l79 9q52 6 71 19q18 13 18 37q0 23 -17 37q-16 12 -45 12q-32 0 -48 -16t-18 -48h-189 q5 74 55 124q62 62 188 62q71 0 113.5 -16.5t73.5 -50.5q62 72 186 72q131 0 204 -71q80 -78 80 -231v-12h-373q0 -53 26 -82q23 -24 62 -24q29 0 48 11q19 12 23 30zM365 222q-23 -16 -54 -20q-51 -8 -61 -15q-20 -14 -20 -41q0 -21 15 -34q14 -12 43 -12q32 0 52 22 q25 29 25 100zM580 312h156q0 44 -23 69q-19 20 -52 20q-38 0 -57 -21q-22 -24 -24 -68z" horiz-adv-x="982" unicode="æ" glyph-name="ae"/>
<glyph d="M400 200h196q-9 -87 -68 -146q-72 -72 -217 -72q-138 0 -208 67q-73 69 -73 193q0 129 82 211q78 76 213 76q133 0 205 -72q57 -58 62 -146h-193q0 44 -24 68q-18 18 -48 18q-31 0 -51 -21q-30 -32 -30 -117q0 -91 31 -124q19 -21 51 -21q31 0 48 17q24 26 24 69z M190 -234l24 70q35 -10 63 -10q30 0 41 5q18 7 18 25q0 20 -23 26q-24 4 -68 4h-14l23 67q19 2 51 2q69 0 103 -20q42 -26 42 -77q0 -57 -43 -85q-33 -23 -102 -23q-74 0 -115 16z" horiz-adv-x="626" unicode="ç" glyph-name="ccedilla"/>
<glyph d="M404 147h206q-27 -84 -101 -127q-66 -38 -185 -38q-73 0 -127.5 13.5t-97.5 56.5q-69 69 -69 187q0 126 76 205q78 82 220 82q149 0 222 -75q32 -33 48.5 -79.5t19 -75.5t2.5 -72v-12h-373q-2 -48 19 -77q22 -29 64 -29q32 0 50 10q20 11 26 31zM246 312h156q0 44 -22 68 q-19 21 -52 21q-38 0 -57 -22q-23 -24 -25 -67zM333 700l66 -132h-143l-112 132h189z" horiz-adv-x="648" unicode="è" glyph-name="egrave"/>
<glyph d="M404 147h206q-27 -84 -101 -127q-66 -38 -185 -38q-73 0 -127.5 13.5t-97.5 56.5q-69 69 -69 187q0 126 76 205q78 82 220 82q149 0 222 -75q32 -33 48.5 -79.5t19 -75.5t2.5 -72v-12h-373q-2 -48 19 -77q22 -29 64 -29q32 0 50 10q20 11 26 31zM246 312h156q0 44 -22 68 q-19 21 -52 21q-38 0 -57 -22q-23 -24 -25 -67zM322 700h189l-112 -132h-143z" horiz-adv-x="648" unicode="é" glyph-name="eacute"/>
<glyph d="M404 147h206q-27 -84 -101 -127q-66 -38 -185 -38q-73 0 -127.5 13.5t-97.5 56.5q-69 69 -69 187q0 126 76 205q78 82 220 82q149 0 222 -75q32 -33 48.5 -79.5t19 -75.5t2.5 -72v-12h-373q-2 -48 19 -77q22 -29 64 -29q32 0 50 10q20 11 26 31zM246 312h156q0 44 -22 68 q-19 21 -52 21q-38 0 -57 -22q-23 -24 -25 -67zM337 656l-77 -88h-160l125 132h224l125 -132h-160z" horiz-adv-x="648" unicode="ê" glyph-name="ecircumflex"/>
<glyph d="M404 147h206q-27 -84 -101 -127q-66 -38 -185 -38q-73 0 -127.5 13.5t-97.5 56.5q-69 69 -69 187q0 126 76 205q78 82 220 82q149 0 222 -75q32 -33 48.5 -79.5t19 -75.5t2.5 -72v-12h-373q-2 -48 19 -77q22 -29 64 -29q32 0 50 10q20 11 26 31zM246 312h156q0 44 -22 68 q-19 21 -52 21q-38 0 -57 -22q-23 -24 -25 -67zM103 581v129h172v-129h-172zM372 581v129h172v-129h-172z" horiz-adv-x="648" unicode="ë" glyph-name="edieresis"/>
<glyph d="M65 508h210v-508h-210v508zM192 700l66 -132h-143l-112 132h189z" horiz-adv-x="340" unicode="ì" glyph-name="igrave"/>
<glyph d="M65 508h210v-508h-210v508zM142 700h189l-112 -132h-143z" horiz-adv-x="340" unicode="í" glyph-name="iacute"/>
<glyph d="M65 508h210v-508h-210v508zM167 656l-77 -88h-160l125 132h224l125 -132h-160z" horiz-adv-x="340" unicode="î" glyph-name="icircumflex"/>
<glyph d="M65 508h210v-508h-210v508zM-54 581v129h172v-129h-172zM215 581v129h172v-129h-172z" horiz-adv-x="340" unicode="ï" glyph-name="idieresis"/>
<glyph d="M327 394q-28 0 -48 -20q-33 -34 -33 -120t33 -120q20 -20 48 -20t48 20q33 34 33 120t-33 120q-20 20 -48 20zM154 719l15 96q108 -15 203 -53l93 59l53 -61l-71 -42q92 -60 141 -148q51 -94 51 -229q0 -177 -86 -270q-82 -88 -236 -88q-138 0 -213 76q-74 76 -74 202 q0 116 70 188q72 72 197 72q146 0 200 -99h7q-11 78 -59 141q-44 59 -103 89l-163 -95l-50 60l129 75q-54 20 -104 27z" horiz-adv-x="669" unicode="ð" glyph-name="eth"/>
<glyph d="M266 508v-54h4q26 31 65 49q42 20 98 20q91 0 140 -47q32 -30 42 -70t10 -101v-305h-210v272q0 49 -16 75t-48 26q-36 0 -56 -29q-20 -28 -20 -74v-270h-210v508h201zM457 703h106q-9 -66 -46 -105q-29 -30 -76 -30q-34 0 -80 21l-30 14q-32 16 -56 16q-18 0 -29 -11 q-10 -12 -12 -29h-107q9 55 41 93q33 40 87 40q36 0 76 -19l26 -12q44 -20 61 -20q18 0 27 10q10 11 12 32z" horiz-adv-x="690" unicode="ñ" glyph-name="ntilde"/>
<glyph d="M329 394q-32 0 -51 -20q-32 -35 -32 -120q0 -86 31 -120q17 -20 48 -20t50 20q33 35 33 120q0 87 -32 121q-18 19 -47 19zM624 255q0 -125 -77 -200q-75 -73 -230 -73q-143 0 -212 63q-75 67 -75 198q0 122 76 202q79 81 223 81q143 0 219 -73q76 -72 76 -198zM338 700 l66 -132h-143l-112 132h189z" horiz-adv-x="654" unicode="ò" glyph-name="ograve"/>
<glyph d="M329 394q-32 0 -51 -20q-32 -35 -32 -120q0 -86 31 -120q17 -20 48 -20t50 20q33 35 33 120q0 87 -32 121q-18 19 -47 19zM624 255q0 -125 -77 -200q-75 -73 -230 -73q-143 0 -212 63q-75 67 -75 198q0 122 76 202q79 81 223 81q143 0 219 -73q76 -72 76 -198zM317 700 h189l-112 -132h-143z" horiz-adv-x="654" unicode="ó" glyph-name="oacute"/>
<glyph d="M329 394q-32 0 -51 -20q-32 -35 -32 -120q0 -86 31 -120q17 -20 48 -20t50 20q33 35 33 120q0 87 -32 121q-18 19 -47 19zM624 255q0 -125 -77 -200q-75 -73 -230 -73q-143 0 -212 63q-75 67 -75 198q0 122 76 202q79 81 223 81q143 0 219 -73q76 -72 76 -198zM337 656 l-77 -88h-160l125 132h224l125 -132h-160z" horiz-adv-x="654" unicode="ô" glyph-name="ocircumflex"/>
<glyph d="M329 394q-32 0 -51 -20q-32 -35 -32 -120q0 -86 31 -120q17 -20 48 -20t50 20q33 35 33 120q0 87 -32 121q-18 19 -47 19zM624 255q0 -125 -77 -200q-75 -73 -230 -73q-143 0 -212 63q-75 67 -75 198q0 122 76 202q79 81 223 81q143 0 219 -73q76 -72 76 -198zM445 703 h106q-9 -66 -46 -105q-29 -30 -76 -30q-34 0 -80 21l-30 14q-32 16 -56 16q-18 0 -29 -11q-10 -12 -12 -29h-107q9 55 41 93q33 40 87 40q36 0 76 -19l26 -12q44 -20 61 -20q18 0 27 10q10 11 12 32z" horiz-adv-x="654" unicode="õ" glyph-name="otilde"/>
<glyph d="M329 394q-32 0 -51 -20q-32 -35 -32 -120q0 -86 31 -120q17 -20 48 -20t50 20q33 35 33 120q0 87 -32 121q-18 19 -47 19zM624 255q0 -125 -77 -200q-75 -73 -230 -73q-143 0 -212 63q-75 67 -75 198q0 122 76 202q79 81 223 81q143 0 219 -73q76 -72 76 -198zM106 581 v129h172v-129h-172zM375 581v129h172v-129h-172z" horiz-adv-x="654" unicode="ö" glyph-name="odieresis"/>
<glyph d="M50 409h594v-89h-594v89zM270 564q0 33 22 55t55 22t55 -22t22 -55t-22 -55t-55 -22t-55 22t-22 55zM270 165q0 33 22 55t55 22t55 -22t22 -55t-22 -55t-55 -22t-55 22t-22 55z" horiz-adv-x="694" unicode="÷" glyph-name="divide"/>
<glyph d="M241 223l138 153q-21 23 -54 23q-39 0 -62 -29q-26 -35 -26 -101q0 -18 4 -46zM413 309l-147 -164q23 -36 65 -36q40 0 64 37q23 35 23 104q0 31 -5 59zM598 504l-49 -55q75 -77 75 -194q0 -127 -77 -200q-33 -32 -77.5 -49t-78 -20.5t-80.5 -3.5q-50 0 -83.5 6t-73.5 28 l-56 -60l-52 55l48 53q-64 71 -64 175q0 128 76 206q79 81 223 81q87 0 158 -31l57 62z" horiz-adv-x="654" unicode="ø" glyph-name="oslash"/>
<glyph d="M429 0v56h-5q-65 -70 -173 -70q-87 0 -133 45q-53 52 -53 173v304h210v-273q0 -54 17 -77q16 -22 50 -22q33 0 51 25q21 28 21 77v270h210v-508h-195zM373 700l66 -132h-143l-112 132h189z" horiz-adv-x="689" unicode="ù" glyph-name="ugrave"/>
<glyph d="M429 0v56h-5q-65 -70 -173 -70q-87 0 -133 45q-53 52 -53 173v304h210v-273q0 -54 17 -77q16 -22 50 -22q33 0 51 25q21 28 21 77v270h210v-508h-195zM312 700h189l-112 -132h-143z" horiz-adv-x="689" unicode="ú" glyph-name="uacute"/>
<glyph d="M429 0v56h-5q-65 -70 -173 -70q-87 0 -133 45q-53 52 -53 173v304h210v-273q0 -54 17 -77q16 -22 50 -22q33 0 51 25q21 28 21 77v270h210v-508h-195zM352 656l-77 -88h-160l125 132h224l125 -132h-160z" horiz-adv-x="689" unicode="û" glyph-name="ucircumflex"/>
<glyph d="M429 0v56h-5q-65 -70 -173 -70q-87 0 -133 45q-53 52 -53 173v304h210v-273q0 -54 17 -77q16 -22 50 -22q33 0 51 25q21 28 21 77v270h210v-508h-195zM124 581v129h172v-129h-172zM393 581v129h172v-129h-172z" horiz-adv-x="689" unicode="ü" glyph-name="udieresis"/>
<glyph d="M62 -173v135q26 -10 56 -10q33 0 50 13q20 14 26 43l5 22l-199 478h212l101 -317l80 317h195l-179 -500q-32 -91 -58 -125q-9 -10 -18 -19q-54 -50 -156 -50q-57 0 -115 13zM307 700h189l-112 -132h-143z" horiz-adv-x="588" unicode="ý" glyph-name="yacute"/>
<glyph d="M65 700h200v-248h4q53 74 164 74q103 0 160 -55q13 -13 26.5 -31.5t29.5 -67.5t16 -109q0 -143 -75 -219q-60 -62 -167 -62q-96 0 -148 55v-222h-210v885zM266 248q0 -68 26 -102q25 -32 65 -32q37 0 61 26q31 34 31 108q0 76 -31 110q-22 26 -61 26q-37 0 -60 -26 q-31 -33 -31 -110z" horiz-adv-x="695" unicode="þ" glyph-name="thorn"/>
<glyph d="M62 -173v135q26 -10 56 -10q33 0 50 13q20 14 26 43l5 22l-199 478h212l101 -317l80 317h195l-179 -500q-32 -91 -58 -125q-9 -10 -18 -19q-54 -50 -156 -50q-57 0 -115 13zM82 581v129h172v-129h-172zM351 581v129h172v-129h-172z" horiz-adv-x="588" unicode="ÿ" glyph-name="ydieresis"/>
<glyph d="M245 99l-32 -99h-226l259 700h215l259 -700h-226l-32 99h-217zM288 243h131l-66 210zM152 779v96h406v-96h-406z" horiz-adv-x="710" unicode="Ā" glyph-name="Amacron"/>
<glyph d="M249 335h-197q6 71 51 118q66 68 214 68q150 0 210 -59q52 -50 52 -145v-229q0 -45 7 -58q8 -16 28 -23v-7h-226l-13 55h-2q-26 -31 -62 -49q-47 -24 -114 -24q-86 0 -128 39q-43 41 -43 110q0 61 38 99q44 44 137 55l60 7q74 9 87 17q3 2 6 5q15 15 15 38q0 22 -13 33 q-15 14 -44 14q-31 0 -47 -16q-18 -18 -16 -48zM369 217v13q-23 -17 -60 -22q-45 -8 -60 -24q-12 -13 -12 -32q0 -20 13 -33t35 -13q35 0 57 23q27 28 27 88zM120 590v96h406v-96h-406z" horiz-adv-x="634" unicode="ā" glyph-name="amacron"/>
<glyph d="M245 99l-32 -99h-226l259 700h215l259 -700h-226l-32 99h-217zM288 243h131l-66 210zM431 900h122q-4 -53 -40 -89q-51 -51 -158 -51t-158 51q-36 36 -40 89h122q-1 -26 18 -44q19 -17 58 -17t58 17t18 44z" horiz-adv-x="710" unicode="Ă" glyph-name="Abreve"/>
<glyph d="M249 335h-197q6 71 51 118q66 68 214 68q150 0 210 -59q52 -50 52 -145v-229q0 -45 7 -58q8 -16 28 -23v-7h-226l-13 55h-2q-26 -31 -62 -49q-47 -24 -114 -24q-86 0 -128 39q-43 41 -43 110q0 61 38 99q44 44 137 55l60 7q74 9 87 17q3 2 6 5q15 15 15 38q0 22 -13 33 q-15 14 -44 14q-31 0 -47 -16q-18 -18 -16 -48zM369 217v13q-23 -17 -60 -22q-45 -8 -60 -24q-12 -13 -12 -32q0 -20 13 -33t35 -13q35 0 57 23q27 28 27 88zM404 702h122q-4 -53 -40 -89q-51 -51 -158 -51t-158 51q-36 36 -40 89h122q-1 -26 18 -44q19 -17 58 -17t58 17 t18 44z" horiz-adv-x="634" unicode="ă" glyph-name="abreve"/>
<glyph d="M245 99l-32 -99h-226l259 700h215l259 -700q-34 -27 -52.5 -62t-18.5 -68q0 -28 14 -42q12 -13 34 -13q23 0 34 19q11 18 6 42h107q-1 -55 -36 -95q-40 -45 -120 -45q-73 0 -113 33q-40 35 -40 90q0 78 80 141h-121l-32 99h-217zM288 243h131l-66 210z" horiz-adv-x="710" unicode="Ą" glyph-name="Aogonek"/>
<glyph d="M249 335h-197q6 71 51 118q66 68 214 68q150 0 210 -59q52 -50 52 -145v-229q0 -45 7 -58q8 -16 28 -23v-7q-34 -27 -52.5 -62t-18.5 -68q0 -28 14 -42q12 -13 34 -13q23 0 34 19q11 18 6 42h107q-1 -55 -36 -95q-40 -45 -120 -45q-73 0 -113 34q-40 35 -40 90 q0 77 80 140h-121l-13 55h-2q-26 -31 -62 -49q-47 -24 -114 -24q-86 0 -128 39q-43 41 -43 110q0 61 38 99q44 44 137 55l60 7q74 9 87 17q3 2 6 5q15 15 15 38q0 22 -13 33q-15 14 -44 14q-31 0 -47 -16q-18 -18 -16 -48zM369 217v13q-23 -17 -60 -22q-45 -8 -60 -24 q-12 -13 -12 -32q0 -20 13 -33t35 -13q35 0 57 23q27 28 27 88z" horiz-adv-x="634" unicode="ą" glyph-name="aogonek"/>
<glyph d="M526 258h213q-11 -122 -87 -197q-82 -81 -259 -81q-167 0 -252 80q-101 95 -101 283q0 182 104 283q94 92 263 92q162 0 245 -85q11 -11 23.5 -27.5t32.5 -62t25 -96.5h-211q-6 39 -33 63q-26 22 -75 22q-62 0 -97 -35q-45 -45 -45 -148q0 -96 39 -142q34 -40 97 -40 q53 0 84 27q29 25 34 64zM377 908h199l-112 -142h-153z" horiz-adv-x="759" unicode="Ć" glyph-name="Cacute"/>
<glyph d="M400 200h196q-9 -87 -68 -146q-72 -72 -217 -72q-138 0 -208 67q-73 69 -73 193q0 129 82 211q78 76 213 76q133 0 205 -72q57 -58 62 -146h-193q0 44 -24 68q-18 18 -48 18q-31 0 -51 -21q-30 -32 -30 -117q0 -91 31 -124q19 -21 51 -21q31 0 48 17q24 26 24 69z M302 700h189l-112 -132h-143z" horiz-adv-x="626" unicode="ć" glyph-name="cacute"/>
<glyph d="M526 258h213q-11 -122 -87 -197q-82 -81 -259 -81q-167 0 -252 80q-101 95 -101 283q0 182 104 283q94 92 263 92q162 0 245 -85q11 -11 23.5 -27.5t32.5 -62t25 -96.5h-211q-6 39 -33 63q-26 22 -75 22q-62 0 -97 -35q-45 -45 -45 -148q0 -96 39 -142q34 -40 97 -40 q53 0 84 27q29 25 34 64zM407 849l-77 -83h-160l125 132h224l125 -132h-160z" horiz-adv-x="759" unicode="Ĉ" glyph-name="Ccircumflex"/>
<glyph d="M400 200h196q-9 -87 -68 -146q-72 -72 -217 -72q-138 0 -208 67q-73 69 -73 193q0 129 82 211q78 76 213 76q133 0 205 -72q57 -58 62 -146h-193q0 44 -24 68q-18 18 -48 18q-31 0 -51 -21q-30 -32 -30 -117q0 -91 31 -124q19 -21 51 -21q31 0 48 17q24 26 24 69z M327 656l-77 -88h-160l125 132h224l125 -132h-160z" horiz-adv-x="626" unicode="ĉ" glyph-name="ccircumflex"/>
<glyph d="M526 258h213q-11 -122 -87 -197q-82 -81 -259 -81q-167 0 -252 80q-101 95 -101 283q0 182 104 283q94 92 263 92q162 0 245 -85q11 -11 23.5 -27.5t32.5 -62t25 -96.5h-211q-6 39 -33 63q-26 22 -75 22q-62 0 -97 -35q-45 -45 -45 -148q0 -96 39 -142q34 -40 97 -40 q53 0 84 27q29 25 34 64zM407 815l77 83h160l-125 -132h-224l-125 132h160z" horiz-adv-x="759" unicode="Č" glyph-name="Ccaron"/>
<glyph d="M400 200h196q-9 -87 -68 -146q-72 -72 -217 -72q-138 0 -208 67q-73 69 -73 193q0 129 82 211q78 76 213 76q133 0 205 -72q57 -58 62 -146h-193q0 44 -24 68q-18 18 -48 18q-31 0 -51 -21q-30 -32 -30 -117q0 -91 31 -124q19 -21 51 -21q31 0 48 17q24 26 24 69z M327 612l77 88h160l-125 -132h-224l-125 132h160z" horiz-adv-x="626" unicode="č" glyph-name="ccaron"/>
<glyph d="M85 700h336q75 0 134 -15.5t109 -62.5q49 -46 75 -121t26 -161q0 -174 -102 -267q-36 -33 -81 -50t-77 -20t-84 -3h-336v700zM303 516v-328h78q75 0 110 33q42 39 42 129q0 93 -38 131q-35 35 -115 35h-77zM387 815l77 83h160l-125 -132h-224l-125 132h160z" horiz-adv-x="800" unicode="Ď" glyph-name="Dcaron"/>
<glyph d="M630 0h-200v49h-4q-56 -67 -160 -67t-166 64q-70 74 -70 196q0 137 74 216q64 68 170 68q97 0 146 -61v235h210v-700zM428 255q0 71 -30 103q-24 26 -63 26q-34 0 -57 -23q-32 -33 -32 -112q0 -76 36 -112q25 -23 57 -23q37 0 59 25q30 35 30 116zM691 552v148h163v-121 q0 -91 -39 -133q-41 -43 -124 -46v73q51 2 68 20q18 18 18 55v4h-86z" horiz-adv-x="832" unicode="ď" glyph-name="dcaron"/>
<glyph d="M108 700h336q74 0 133.5 -15.5t109.5 -62.5t75.5 -121.5t25.5 -159.5q0 -178 -102 -268q-52 -46 -110.5 -59.5t-131.5 -13.5h-336v324h-98v99h98v277zM326 516v-93h134v-104h-134v-131h78q75 0 110 33q42 39 42 129q0 93 -38 131q-35 35 -115 35h-77z" horiz-adv-x="823" unicode="Đ" glyph-name="Dcroat"/>
<glyph d="M630 0h-200v45h-2q-25 -28 -61 -45q-42 -18 -93 -18q-110 0 -172 64q-72 74 -72 207q0 127 71 200q63 65 178 65q47 0 83 -14q37 -15 58 -41v100h-207v75h207v62h210v-62h88v-75h-88v-563zM428 255q0 72 -29 103q-24 26 -63 26q-34 0 -57 -23q-33 -33 -33 -109 q0 -79 36 -115q23 -23 59 -23q33 0 57 25q30 33 30 116z" horiz-adv-x="695" unicode="đ" glyph-name="dcroat"/>
<glyph d="M303 436h311v-165h-311v-86h371v-185h-589v700h581v-185h-363v-79zM170 779v96h406v-96h-406z" horiz-adv-x="719" unicode="Ē" glyph-name="Emacron"/>
<glyph d="M404 147h206q-27 -84 -101 -127q-66 -38 -185 -38q-73 0 -127.5 13.5t-97.5 56.5q-69 69 -69 187q0 126 76 205q78 82 220 82q149 0 222 -75q32 -33 48.5 -79.5t19 -75.5t2.5 -72v-12h-373q-2 -48 19 -77q22 -29 64 -29q32 0 50 10q20 11 26 31zM246 312h156q0 44 -22 68 q-19 21 -52 21q-38 0 -57 -22q-23 -24 -25 -67zM125 590v96h406v-96h-406z" horiz-adv-x="648" unicode="ē" glyph-name="emacron"/>
<glyph d="M303 436h311v-165h-311v-86h371v-185h-589v700h581v-185h-363v-79zM285 779v129h172v-129h-172z" horiz-adv-x="719" unicode="Ė" glyph-name="Edotaccent"/>
<glyph d="M404 147h206q-27 -84 -101 -127q-66 -38 -185 -38q-73 0 -127.5 13.5t-97.5 56.5q-69 69 -69 187q0 126 76 205q78 82 220 82q149 0 222 -75q32 -33 48.5 -79.5t19 -75.5t2.5 -72v-12h-373q-2 -48 19 -77q22 -29 64 -29q32 0 50 10q20 11 26 31zM246 312h156q0 44 -22 68 q-19 21 -52 21q-38 0 -57 -22q-23 -24 -25 -67zM245 581v129h172v-129h-172z" horiz-adv-x="648" unicode="ė" glyph-name="edotaccent"/>
<glyph d="M303 436h311v-165h-311v-86h371v-185q-31 -25 -51 -59t-20 -70q0 -30 14 -44q10 -12 30 -12q26 0 38 19q11 18 6 42h107q-1 -55 -36 -95q-40 -45 -114 -45q-78 0 -119 34q-40 33 -40 90q0 77 80 140h-484v700h581v-185h-363v-79z" horiz-adv-x="719" unicode="Ę" glyph-name="Eogonek"/>
<glyph d="M472 -124h107q-1 -55 -36 -95q-40 -45 -120 -45q-74 0 -113 32q-40 33 -40 90q0 65 59 124q-12 -1 -33 -1q-128 0 -197 71q-69 69 -69 187q0 126 76 205q78 82 220 82q149 0 222 -75q32 -33 48.5 -79.5t19 -75.5t2.5 -72v-12h-373q-2 -48 19 -77q22 -29 64 -29 q32 0 50 10q20 11 26 31h206q-20 -68 -81 -117q-13 -11 -55 -38t-57 -43q-33 -35 -33 -76q0 -31 14 -45q11 -13 34 -13q22 0 34 19q11 18 6 42zM246 312h156q0 44 -22 68q-19 21 -52 21q-38 0 -57 -22q-23 -24 -25 -67z" horiz-adv-x="648" unicode="ę" glyph-name="eogonek"/>
<glyph d="M303 436h311v-165h-311v-86h371v-185h-589v700h581v-185h-363v-79zM377 815l77 83h160l-125 -132h-224l-125 132h160z" horiz-adv-x="719" unicode="Ě" glyph-name="Ecaron"/>
<glyph d="M404 147h206q-27 -84 -101 -127q-66 -38 -185 -38q-73 0 -127.5 13.5t-97.5 56.5q-69 69 -69 187q0 126 76 205q78 82 220 82q149 0 222 -75q32 -33 48.5 -79.5t19 -75.5t2.5 -72v-12h-373q-2 -48 19 -77q22 -29 64 -29q32 0 50 10q20 11 26 31zM246 312h156q0 44 -22 68 q-19 21 -52 21q-38 0 -57 -22q-23 -24 -25 -67zM332 612l77 88h160l-125 -132h-224l-125 132h160z" horiz-adv-x="648" unicode="ě" glyph-name="ecaron"/>
<glyph d="M449 386h306v-386h-160l-13 59q-32 -39 -79 -59.5t-127 -20.5q-152 0 -235 77q-101 94 -101 276q0 178 106 286q98 99 259 99q156 0 240 -66q38 -30 66.5 -80t36.5 -113h-225q-5 37 -26 58q-29 30 -82 30q-58 0 -93 -37q-46 -49 -46 -159q0 -117 54 -167q33 -32 93 -32 q47 0 80 25q28 22 42 56h-96v154zM412 849l-77 -83h-160l125 132h224l125 -132h-160z" horiz-adv-x="800" unicode="Ĝ" glyph-name="Gcircumflex"/>
<glyph d="M76 -25h194q0 -23 17 -34q17 -12 46 -12q35 0 56 19q20 20 20 60v56h-5q-52 -44 -143 -44q-109 0 -166 56q-65 63 -65 180q0 125 69 198q62 68 163 68q99 0 155 -61h5v47h197v-432q0 -137 -70 -205q-30 -28 -71.5 -43.5t-72 -18.5t-74.5 -3q-125 0 -186 43 q-64 44 -69 126zM247 267q0 -57 24 -88q22 -29 59 -29q39 0 60 25q27 31 27 93q0 61 -29 92q-24 24 -56 24q-34 0 -55 -23q-30 -30 -30 -94zM342 656l-77 -88h-160l125 132h224l125 -132h-160z" horiz-adv-x="684" unicode="ĝ" glyph-name="gcircumflex"/>
<glyph d="M449 386h306v-386h-160l-13 59q-32 -39 -79 -59.5t-127 -20.5q-152 0 -235 77q-101 94 -101 276q0 178 106 286q98 99 259 99q156 0 240 -66q38 -30 66.5 -80t36.5 -113h-225q-5 37 -26 58q-29 30 -82 30q-58 0 -93 -37q-46 -49 -46 -159q0 -117 54 -167q33 -32 93 -32 q47 0 80 25q28 22 42 56h-96v154zM476 900h122q-4 -53 -40 -89q-51 -51 -158 -51t-158 51q-36 36 -40 89h122q-1 -26 18 -44q19 -17 58 -17t58 17t18 44z" horiz-adv-x="800" unicode="Ğ" glyph-name="Gbreve"/>
<glyph d="M76 -25h194q0 -23 17 -34q17 -12 46 -12q35 0 56 19q20 20 20 60v56h-5q-52 -44 -143 -44q-109 0 -166 56q-65 63 -65 180q0 125 69 198q62 68 163 68q99 0 155 -61h5v47h197v-432q0 -137 -70 -205q-30 -28 -71.5 -43.5t-72 -18.5t-74.5 -3q-125 0 -186 43 q-64 44 -69 126zM247 267q0 -57 24 -88q22 -29 59 -29q39 0 60 25q27 31 27 93q0 61 -29 92q-24 24 -56 24q-34 0 -55 -23q-30 -30 -30 -94zM418 702h122q-4 -53 -40 -89q-51 -51 -158 -51t-158 51q-36 36 -40 89h122q-1 -26 18 -44q19 -17 58 -17t58 17t18 44z" horiz-adv-x="684" unicode="ğ" glyph-name="gbreve"/>
<glyph d="M449 386h306v-386h-160l-13 59q-32 -39 -79 -59.5t-127 -20.5q-152 0 -235 77q-101 94 -101 276q0 178 106 286q98 99 259 99q156 0 240 -66q38 -30 66.5 -80t36.5 -113h-225q-5 37 -26 58q-29 30 -82 30q-58 0 -93 -37q-46 -49 -46 -159q0 -117 54 -167q33 -32 93 -32 q47 0 80 25q28 22 42 56h-96v154zM316 -195v132h167v-103q0 -99 -45 -143q-42 -41 -122 -43v75q49 -2 73 23q17 18 17 55v4h-90z" horiz-adv-x="800" unicode="Ģ" glyph-name="Gcommaaccent"/>
<glyph d="M76 -25h194q0 -23 17 -34q17 -12 46 -12q35 0 56 19q20 20 20 60v56h-5q-52 -44 -143 -44q-109 0 -166 56q-65 63 -65 180q0 125 69 198q62 68 163 68q99 0 155 -61h5v47h197v-432q0 -137 -70 -205q-30 -28 -71.5 -43.5t-72 -18.5t-74.5 -3q-125 0 -186 43 q-64 44 -69 126zM247 267q0 -57 24 -88q22 -29 59 -29q39 0 60 25q27 31 27 93q0 61 -29 92q-24 24 -56 24q-34 0 -55 -23q-30 -30 -30 -94zM417 684v-122h-167v89q0 97 45 139q43 39 122 41v-69q-49 3 -73 -23q-17 -18 -17 -51v-4h90z" horiz-adv-x="684" unicode="ģ" glyph-name="gcommaaccent"/>
<glyph d="M303 275v-275h-218v700h218v-241h195v241h218v-700h-218v275h-195zM400 849l-77 -83h-160l125 132h224l125 -132h-160z" horiz-adv-x="801" unicode="Ĥ" glyph-name="Hcircumflex"/>
<glyph d="M275 700v-235q65 58 160 58q87 0 136 -47q54 -51 54 -171v-305h-210v272q0 52 -16 75q-17 26 -49 26q-35 0 -55 -29t-20 -74v-270h-210v700h210zM169 816l-77 -88h-160l125 132h224l125 -132h-160z" horiz-adv-x="690" unicode="ĥ" glyph-name="hcircumflex"/>
<glyph d="M85 700h218v-700h-218v700zM-15 779v96h406v-96h-406z" horiz-adv-x="388" unicode="Ī" glyph-name="Imacron"/>
<glyph d="M65 508h210v-508h-210v508zM-37 590v96h406v-96h-406z" horiz-adv-x="340" unicode="ī" glyph-name="imacron"/>
<glyph d="M85 700h218v-700q-32 -27 -51 -58q-20 -33 -20 -71q0 -29 14 -43q12 -13 34 -13q23 0 34 19q10 15 6 42h107q-1 -55 -36 -95q-40 -45 -120 -45q-73 0 -113 34q-40 33 -40 90q0 78 80 140h-113v700z" horiz-adv-x="388" unicode="Į" glyph-name="Iogonek"/>
<glyph d="M65 508h210v-508q-34 -27 -52.5 -62t-18.5 -68q0 -28 14 -42q12 -13 34 -13q23 0 34 19q11 18 6 42h107q-1 -55 -36 -95q-40 -45 -120 -45q-73 0 -113 33q-40 35 -40 90q0 78 80 141h-105v508zM65 568v132h210v-132h-210z" horiz-adv-x="340" unicode="į" glyph-name="iogonek"/>
<glyph d="M85 700h218v-700h-218v700zM108 779v129h172v-129h-172z" horiz-adv-x="388" unicode="İ" glyph-name="Idotaccent"/>
<glyph d="M65 508h210v-508h-210v508z" horiz-adv-x="340" unicode="ı" glyph-name="dotlessi"/>
<glyph d="M20 276h214v-41q0 -42 14 -60q16 -20 44 -20q26 0 40 19q13 17 13 54v472h218v-440q0 -149 -70 -217q-65 -63 -199 -63q-141 0 -207 67q-30 30 -46 73t-18.5 71.5t-2.5 70.5v14zM324 849l-77 -83h-160l125 132h224l125 -132h-160z" horiz-adv-x="648" unicode="Ĵ" glyph-name="Jcircumflex"/>
<glyph d="M72 508h211v-507q0 -100 -44 -144q-45 -45 -147 -45q-64 0 -112 10v142q16 -3 32 -3q32 0 45 13q15 15 15 55v479zM175 656l-77 -88h-160l125 132h224l125 -132h-160z" horiz-adv-x="348" unicode="ĵ" glyph-name="jcircumflex"/>
<glyph d="M303 471l220 229h255l-279 -291l295 -409h-263l-174 266l-54 -57v-209h-218v700h218v-229zM335 -195v132h167v-103q0 -99 -45 -143q-42 -41 -122 -43v75q49 -2 73 23q17 18 17 55v4h-90z" horiz-adv-x="779" unicode="Ķ" glyph-name="Kcommaaccent"/>
<glyph d="M275 350l137 158h233l-203 -205l208 -303h-233l-105 180l-37 -38v-142h-210v700h210v-350zM265 -185v122h167v-89q0 -97 -45 -139q-43 -39 -122 -41v69q49 -3 73 23q17 18 17 51v4h-90z" horiz-adv-x="640" unicode="ķ" glyph-name="kcommaaccent"/>
<glyph d="M606 185v-185h-521v700h218v-515h303zM187 908h199l-112 -142h-153z" horiz-adv-x="611" unicode="Ĺ" glyph-name="Lacute"/>
<glyph d="M65 700h210v-700h-210v700zM142 870h189l-112 -132h-143z" horiz-adv-x="340" unicode="ĺ" glyph-name="lacute"/>
<glyph d="M606 185v-185h-521v700h218v-515h303zM270 -195v132h167v-103q0 -99 -45 -143q-42 -41 -122 -43v75q49 -2 73 23q17 18 17 55v4h-90z" horiz-adv-x="611" unicode="Ļ" glyph-name="Lcommaaccent"/>
<glyph d="M65 700h210v-700h-210v700zM84 -185v122h167v-89q0 -97 -45 -139q-43 -39 -122 -41v69q49 -3 73 23q17 18 17 51v4h-90z" horiz-adv-x="340" unicode="ļ" glyph-name="lcommaaccent"/>
<glyph d="M606 185v-185h-521v700h218v-515h303zM390 544v156h171v-127q0 -96 -41 -140q-43 -47 -130 -49v77q52 2 71 21t19 58v4h-90z" horiz-adv-x="611" unicode="Ľ" glyph-name="Lcaron"/>
<glyph d="M65 700h210v-700h-210v700zM321 552v148h163v-121q0 -91 -39 -133q-41 -43 -124 -46v73q51 2 68 20q18 18 18 55v4h-86z" horiz-adv-x="466" unicode="ľ" glyph-name="lcaron"/>
<glyph d="M637 185v-185h-521v212l-106 -87v142l106 89v344h218v-204l147 134v-141l-147 -134v-170h303z" horiz-adv-x="637" unicode="Ł" glyph-name="Lslash"/>
<glyph d="M140 700h210v-203l140 98v-104l-140 -101v-390h-210v287l-140 -92v104l140 94v307z" horiz-adv-x="490" unicode="ł" glyph-name="lslash"/>
<glyph d="M303 388h-5l5 -53v-335h-218v700h218l214 -388h5l-5 53v335h218v-700h-218zM384 908h199l-112 -142h-153z" horiz-adv-x="820" unicode="Ń" glyph-name="Nacute"/>
<glyph d="M266 508v-54h4q26 31 65 49q42 20 98 20q91 0 140 -47q32 -30 42 -70t10 -101v-305h-210v272q0 49 -16 75t-48 26q-36 0 -56 -29q-20 -28 -20 -74v-270h-210v508h201zM342 700h189l-112 -132h-143z" horiz-adv-x="690" unicode="ń" glyph-name="nacute"/>
<glyph d="M303 388h-5l5 -53v-335h-218v700h218l214 -388h5l-5 53v335h218v-700h-218zM330 -195v132h167v-103q0 -99 -45 -143q-42 -41 -122 -43v75q49 -2 73 23q17 18 17 55v4h-90z" horiz-adv-x="820" unicode="Ņ" glyph-name="Ncommaaccent"/>
<glyph d="M266 508v-54h4q26 31 65 49q42 20 98 20q91 0 140 -47q32 -30 42 -70t10 -101v-305h-210v272q0 49 -16 75t-48 26q-36 0 -56 -29q-20 -28 -20 -74v-270h-210v508h201zM280 -185v122h167v-89q0 -97 -45 -139q-43 -39 -122 -41v69q49 -3 73 23q17 18 17 51v4h-90z" horiz-adv-x="690" unicode="ņ" glyph-name="ncommaaccent"/>
<glyph d="M303 388h-5l5 -53v-335h-218v700h218l214 -388h5l-5 53v335h218v-700h-218zM410 815l77 83h160l-125 -132h-224l-125 132h160z" horiz-adv-x="820" unicode="Ň" glyph-name="Ncaron"/>
<glyph d="M266 508v-54h4q26 31 65 49q42 20 98 20q91 0 140 -47q32 -30 42 -70t10 -101v-305h-210v272q0 49 -16 75t-48 26q-36 0 -56 -29q-20 -28 -20 -74v-270h-210v508h201zM345 612l77 88h160l-125 -132h-224l-125 132h160z" horiz-adv-x="690" unicode="ň" glyph-name="ncaron"/>
<glyph d="M40 348q0 168 99 273q56 59 121.5 78.5t143.5 19.5q186 0 281 -99q93 -95 93 -264q0 -177 -91 -275q-93 -100 -275 -100q-187 0 -282 102q-90 96 -90 265zM272 350q0 -101 44 -148q36 -37 93 -37q61 0 94 37q43 47 43 148q0 103 -43 148q-36 37 -90 37q-59 0 -95 -37 q-46 -48 -46 -148zM206 779v96h406v-96h-406z" unicode="Ō" glyph-name="Omacron"/>
<glyph d="M329 394q-32 0 -51 -20q-32 -35 -32 -120q0 -86 31 -120q17 -20 48 -20t50 20q33 35 33 120q0 87 -32 121q-18 19 -47 19zM624 255q0 -125 -77 -200q-75 -73 -230 -73q-143 0 -212 63q-75 67 -75 198q0 122 76 202q79 81 223 81q143 0 219 -73q76 -72 76 -198zM124 590 v96h406v-96h-406z" horiz-adv-x="654" unicode="ō" glyph-name="omacron"/>
<glyph d="M40 348q0 168 99 273q56 59 121.5 78.5t143.5 19.5q186 0 281 -99q93 -95 93 -264q0 -177 -91 -275q-93 -100 -275 -100q-187 0 -282 102q-90 96 -90 265zM272 350q0 -101 44 -148q36 -37 93 -37q61 0 94 37q43 47 43 148q0 103 -43 148q-36 37 -90 37q-59 0 -95 -37 q-46 -48 -46 -148zM485 900h122q-4 -53 -40 -89q-51 -51 -158 -51t-158 51q-36 36 -40 89h122q-1 -26 18 -44q19 -17 58 -17t58 17t18 44z" unicode="Ŏ" glyph-name="Obreve"/>
<glyph d="M329 394q-32 0 -51 -20q-32 -35 -32 -120q0 -86 31 -120q17 -20 48 -20t50 20q33 35 33 120q0 87 -32 121q-18 19 -47 19zM624 255q0 -125 -77 -200q-75 -73 -230 -73q-143 0 -212 63q-75 67 -75 198q0 122 76 202q79 81 223 81q143 0 219 -73q76 -72 76 -198zM403 702 h122q-4 -53 -40 -89q-51 -51 -158 -51t-158 51q-36 36 -40 89h122q-1 -26 18 -44q19 -17 58 -17t58 17t18 44z" horiz-adv-x="654" unicode="ŏ" glyph-name="obreve"/>
<glyph d="M40 348q0 168 99 273q56 59 121.5 78.5t143.5 19.5q186 0 281 -99q93 -95 93 -264q0 -177 -91 -275q-93 -100 -275 -100q-187 0 -282 102q-90 96 -90 265zM272 350q0 -101 44 -148q36 -37 93 -37q61 0 94 37q43 47 43 148q0 103 -43 148q-36 37 -90 37q-59 0 -95 -37 q-46 -48 -46 -148zM247 908h187l-97 -132h-147zM480 908h188l-98 -132h-147z" unicode="Ő" glyph-name="Ohungarumlaut"/>
<glyph d="M329 394q-32 0 -51 -20q-32 -35 -32 -120q0 -86 31 -120q17 -20 48 -20t50 20q33 35 33 120q0 87 -32 121q-18 19 -47 19zM624 255q0 -125 -77 -200q-75 -73 -230 -73q-143 0 -212 63q-75 67 -75 198q0 122 76 202q79 81 223 81q143 0 219 -73q76 -72 76 -198zM165 710 h187l-97 -132h-147zM398 710h188l-98 -132h-147z" horiz-adv-x="654" unicode="ő" glyph-name="ohungarumlaut"/>
<glyph d="M580 0v46q-71 -65 -207 -65q-150 0 -234 84q-99 99 -99 282q0 181 99 284q86 88 234 88q134 0 207 -73v54h575v-185h-363v-79h311v-165h-311v-86h371v-185h-583zM272 350q0 -101 44 -148q36 -37 93 -37q61 0 94 37q43 47 43 148q0 103 -43 148q-36 37 -90 37 q-59 0 -95 -37q-46 -48 -46 -148z" horiz-adv-x="1208" unicode="Œ" glyph-name="OE"/>
<glyph d="M771 147h206q-23 -90 -101 -131q-64 -35 -176 -35q-136 0 -196 70q-67 -69 -200 -69t-201 67q-73 71 -73 205q0 128 76 200q74 72 205 72q137 0 195 -85q67 85 201 85q132 0 204 -74q74 -76 74 -228v-12h-373q0 -50 23 -79q22 -27 62 -27q30 0 47 10q18 10 27 31z M242 254q0 -84 33 -120q20 -20 48 -20q30 0 48 20q32 34 32 120t-32 120q-18 20 -48 20q-28 0 -48 -20q-33 -35 -33 -120zM613 312h156q-2 45 -24 69q-17 20 -51 20q-35 0 -55 -21q-24 -26 -26 -68z" horiz-adv-x="1015" unicode="œ" glyph-name="oe"/>
<glyph d="M85 0v700h395q112 0 173 -57q60 -56 60 -160q0 -80 -46 -126q-28 -27 -63 -36v-5q44 -12 71 -47q26 -35 28 -109l2 -57q2 -63 25 -103h-223q-22 33 -24 86l-2 42q0 2 -0.5 13t-0.5 14.5t-1 13.5t-2.5 15t-4 12.5t-7 13.5t-9.5 11q-22 21 -77 21h-76v-242h-218zM303 530 v-138h123q39 0 58 17q22 18 22 54q0 31 -19 49q-20 18 -62 18h-122zM359 908h199l-112 -142h-153z" horiz-adv-x="770" unicode="Ŕ" glyph-name="Racute"/>
<glyph d="M473 519v-161q-28 5 -55 5q-68 0 -106 -38q-37 -38 -37 -137v-188h-210v508h201v-72q26 40 69 64q42 22 104 22q16 0 34 -3zM237 700h189l-112 -132h-143z" horiz-adv-x="488" unicode="ŕ" glyph-name="racute"/>
<glyph d="M85 0v700h395q112 0 173 -57q60 -56 60 -160q0 -80 -46 -126q-28 -27 -63 -36v-5q44 -12 71 -47q26 -35 28 -109l2 -57q2 -63 25 -103h-223q-22 33 -24 86l-2 42q0 2 -0.5 13t-0.5 14.5t-1 13.5t-2.5 15t-4 12.5t-7 13.5t-9.5 11q-22 21 -77 21h-76v-242h-218zM303 530 v-138h123q39 0 58 17q22 18 22 54q0 31 -19 49q-20 18 -62 18h-122zM320 -195v132h167v-103q0 -99 -45 -143q-42 -41 -122 -43v75q49 -2 73 23q17 18 17 55v4h-90z" horiz-adv-x="770" unicode="Ŗ" glyph-name="Rcommaaccent"/>
<glyph d="M473 519v-161q-28 5 -55 5q-68 0 -106 -38q-37 -38 -37 -137v-188h-210v508h201v-72q26 40 69 64q42 22 104 22q16 0 34 -3zM87 -185v122h167v-89q0 -97 -45 -139q-43 -39 -122 -41v69q49 -3 73 23q17 18 17 51v4h-90z" horiz-adv-x="488" unicode="ŗ" glyph-name="rcommaaccent"/>
<glyph d="M85 0v700h395q112 0 173 -57q60 -56 60 -160q0 -80 -46 -126q-28 -27 -63 -36v-5q44 -12 71 -47q26 -35 28 -109l2 -57q2 -63 25 -103h-223q-22 33 -24 86l-2 42q0 2 -0.5 13t-0.5 14.5t-1 13.5t-2.5 15t-4 12.5t-7 13.5t-9.5 11q-22 21 -77 21h-76v-242h-218zM303 530 v-138h123q39 0 58 17q22 18 22 54q0 31 -19 49q-20 18 -62 18h-122zM385 815l77 83h160l-125 -132h-224l-125 132h160z" horiz-adv-x="770" unicode="Ř" glyph-name="Rcaron"/>
<glyph d="M473 519v-161q-28 5 -55 5q-68 0 -106 -38q-37 -38 -37 -137v-188h-210v508h201v-72q26 40 69 64q42 22 104 22q16 0 34 -3zM232 612l77 88h160l-125 -132h-224l-125 132h160z" horiz-adv-x="488" unicode="ř" glyph-name="rcaron"/>
<glyph d="M30 231h219q-3 -47 24 -76q26 -28 85 -28q40 0 62 15q26 17 26 50q0 32 -26 50q-22 15 -82 28l-70 14q-119 24 -173 74q-54 48 -54 132q0 104 82 169q76 59 215 59q148 0 218 -60q29 -25 49.5 -66t22.5 -92h-206q0 31 -16 48q-20 22 -68 22q-40 0 -60 -12 q-24 -15 -24 -41q0 -21 14 -34q3 -3 6 -5.5t7.5 -4.5t8.5 -3.5t10.5 -3.5t10.5 -3t12.5 -3t13.5 -3t15.5 -3.5t16.5 -3.5l68 -15q113 -24 163 -74q54 -54 54 -136q0 -47 -18.5 -94t-47.5 -76q-76 -77 -247 -77q-169 0 -245 79q-28 29 -46.5 75t-19.5 99zM312 908h199 l-112 -142h-153z" horiz-adv-x="684" unicode="Ś" glyph-name="Sacute"/>
<glyph d="M25 167h205q-6 -33 15 -54q17 -17 51 -17q32 0 51 11q22 13 22 35q0 25 -25 37q-17 8 -67 15l-52 8q-100 15 -139 49q-42 38 -42 99q0 87 70 134q64 43 187 43q117 0 173 -38q64 -44 69 -126h-179q2 28 -15 45q-16 16 -52 16q-29 0 -45 -12q-18 -13 -18 -34t22 -31 q18 -10 63 -16l70 -10q91 -13 132 -52q43 -41 43 -108q0 -88 -68 -136q-62 -44 -200 -44q-79 0 -132.5 13t-89.5 50q-48 50 -49 123zM292 700h189l-112 -132h-143z" horiz-adv-x="589" unicode="ś" glyph-name="sacute"/>
<glyph d="M30 231h219q-3 -47 24 -76q26 -28 85 -28q40 0 62 15q26 17 26 50q0 32 -26 50q-22 15 -82 28l-70 14q-119 24 -173 74q-54 48 -54 132q0 104 82 169q76 59 215 59q148 0 218 -60q29 -25 49.5 -66t22.5 -92h-206q0 31 -16 48q-20 22 -68 22q-40 0 -60 -12 q-24 -15 -24 -41q0 -21 14 -34q3 -3 6 -5.5t7.5 -4.5t8.5 -3.5t10.5 -3.5t10.5 -3t12.5 -3t13.5 -3t15.5 -3.5t16.5 -3.5l68 -15q113 -24 163 -74q54 -54 54 -136q0 -47 -18.5 -94t-47.5 -76q-76 -77 -247 -77q-169 0 -245 79q-28 29 -46.5 75t-19.5 99zM342 849l-77 -83 h-160l125 132h224l125 -132h-160z" horiz-adv-x="684" unicode="Ŝ" glyph-name="Scircumflex"/>
<glyph d="M25 167h205q-6 -33 15 -54q17 -17 51 -17q32 0 51 11q22 13 22 35q0 25 -25 37q-17 8 -67 15l-52 8q-100 15 -139 49q-42 38 -42 99q0 87 70 134q64 43 187 43q117 0 173 -38q64 -44 69 -126h-179q2 28 -15 45q-16 16 -52 16q-29 0 -45 -12q-18 -13 -18 -34t22 -31 q18 -10 63 -16l70 -10q91 -13 132 -52q43 -41 43 -108q0 -88 -68 -136q-62 -44 -200 -44q-79 0 -132.5 13t-89.5 50q-48 50 -49 123zM302 656l-77 -88h-160l125 132h224l125 -132h-160z" horiz-adv-x="589" unicode="ŝ" glyph-name="scircumflex"/>
<glyph d="M30 231h219q-3 -47 24 -76q26 -28 85 -28q40 0 62 15q26 17 26 50q0 32 -26 50q-22 15 -82 28l-70 14q-119 24 -173 74q-54 48 -54 132q0 104 82 169q76 59 215 59q148 0 218 -60q29 -25 49.5 -66t22.5 -92h-206q0 31 -16 48q-20 22 -68 22q-40 0 -60 -12 q-24 -15 -24 -41q0 -21 14 -34q3 -3 6 -5.5t7.5 -4.5t8.5 -3.5t10.5 -3.5t10.5 -3t12.5 -3t13.5 -3t15.5 -3.5t16.5 -3.5l68 -15q113 -24 163 -74q54 -54 54 -136q0 -47 -18.5 -94t-47.5 -76q-76 -77 -247 -77q-169 0 -245 79q-28 29 -46.5 75t-19.5 99zM219 -234l24 70 q35 -10 63 -10q30 0 41 5q18 7 18 25q0 20 -23 26q-24 4 -68 4h-14l23 67q19 2 51 2q69 0 103 -20q42 -26 42 -77q0 -57 -43 -85q-33 -23 -102 -23q-74 0 -115 16z" horiz-adv-x="684" unicode="Ş" glyph-name="Scedilla"/>
<glyph d="M30 231h219q-3 -47 24 -76q26 -28 85 -28q40 0 62 15q26 17 26 50q0 32 -26 50q-22 15 -82 28l-70 14q-119 24 -173 74q-54 48 -54 132q0 104 82 169q76 59 215 59q148 0 218 -60q29 -25 49.5 -66t22.5 -92h-206q0 31 -16 48q-20 22 -68 22q-40 0 -60 -12 q-24 -15 -24 -41q0 -21 14 -34q3 -3 6 -5.5t7.5 -4.5t8.5 -3.5t10.5 -3.5t10.5 -3t12.5 -3t13.5 -3t15.5 -3.5t16.5 -3.5l68 -15q113 -24 163 -74q54 -54 54 -136q0 -47 -18.5 -94t-47.5 -76q-76 -77 -247 -77q-169 0 -245 79q-28 29 -46.5 75t-19.5 99zM219 -234l24 70 q35 -10 63 -10q30 0 41 5q18 7 18 25q0 20 -23 26q-24 4 -68 4h-14l23 67q19 2 51 2q69 0 103 -20q42 -26 42 -77q0 -57 -43 -85q-33 -23 -102 -23q-74 0 -115 16z" horiz-adv-x="684" unicode="" glyph-name="Scedilla"/>
<glyph d="M25 167h205q-6 -33 15 -54q17 -17 51 -17q32 0 51 11q22 13 22 35q0 25 -25 37q-17 8 -67 15l-52 8q-100 15 -139 49q-42 38 -42 99q0 87 70 134q64 43 187 43q117 0 173 -38q64 -44 69 -126h-179q2 28 -15 45q-16 16 -52 16q-29 0 -45 -12q-18 -13 -18 -34t22 -31 q18 -10 63 -16l70 -10q91 -13 132 -52q43 -41 43 -108q0 -88 -68 -136q-62 -44 -200 -44q-79 0 -132.5 13t-89.5 50q-48 50 -49 123zM170 -234l24 70q35 -10 63 -10q30 0 41 5q18 7 18 25q0 20 -23 26q-24 4 -68 4h-14l23 67q19 2 51 2q69 0 103 -20q42 -26 42 -77 q0 -57 -43 -85q-33 -23 -102 -23q-74 0 -115 16z" horiz-adv-x="589" unicode="ş" glyph-name="scedilla"/>
<glyph d="M25 167h205q-6 -33 15 -54q17 -17 51 -17q32 0 51 11q22 13 22 35q0 25 -25 37q-17 8 -67 15l-52 8q-100 15 -139 49q-42 38 -42 99q0 87 70 134q64 43 187 43q117 0 173 -38q64 -44 69 -126h-179q2 28 -15 45q-16 16 -52 16q-29 0 -45 -12q-18 -13 -18 -34t22 -31 q18 -10 63 -16l70 -10q91 -13 132 -52q43 -41 43 -108q0 -88 -68 -136q-62 -44 -200 -44q-79 0 -132.5 13t-89.5 50q-48 50 -49 123zM170 -234l24 70q35 -10 63 -10q30 0 41 5q18 7 18 25q0 20 -23 26q-24 4 -68 4h-14l23 67q19 2 51 2q69 0 103 -20q42 -26 42 -77 q0 -57 -43 -85q-33 -23 -102 -23q-74 0 -115 16z" horiz-adv-x="589" unicode="" glyph-name="scedilla"/>
<glyph d="M30 231h219q-3 -47 24 -76q26 -28 85 -28q40 0 62 15q26 17 26 50q0 32 -26 50q-22 15 -82 28l-70 14q-119 24 -173 74q-54 48 -54 132q0 104 82 169q76 59 215 59q148 0 218 -60q29 -25 49.5 -66t22.5 -92h-206q0 31 -16 48q-20 22 -68 22q-40 0 -60 -12 q-24 -15 -24 -41q0 -21 14 -34q3 -3 6 -5.5t7.5 -4.5t8.5 -3.5t10.5 -3.5t10.5 -3t12.5 -3t13.5 -3t15.5 -3.5t16.5 -3.5l68 -15q113 -24 163 -74q54 -54 54 -136q0 -47 -18.5 -94t-47.5 -76q-76 -77 -247 -77q-169 0 -245 79q-28 29 -46.5 75t-19.5 99zM342 815l77 83h160 l-125 -132h-224l-125 132h160z" horiz-adv-x="684" unicode="Š" glyph-name="Scaron"/>
<glyph d="M25 167h205q-6 -33 15 -54q17 -17 51 -17q32 0 51 11q22 13 22 35q0 25 -25 37q-17 8 -67 15l-52 8q-100 15 -139 49q-42 38 -42 99q0 87 70 134q64 43 187 43q117 0 173 -38q64 -44 69 -126h-179q2 28 -15 45q-16 16 -52 16q-29 0 -45 -12q-18 -13 -18 -34t22 -31 q18 -10 63 -16l70 -10q91 -13 132 -52q43 -41 43 -108q0 -88 -68 -136q-62 -44 -200 -44q-79 0 -132.5 13t-89.5 50q-48 50 -49 123zM302 612l77 88h160l-125 -132h-224l-125 132h160z" horiz-adv-x="589" unicode="š" glyph-name="scaron"/>
<glyph d="M208 508h-198v192h614v-192h-198v-508h-218v508zM180 -234l24 70q35 -10 63 -10q30 0 41 5q18 7 18 25q0 20 -23 26q-24 4 -68 4h-14l23 67q19 2 51 2q69 0 103 -20q42 -26 42 -77q0 -57 -43 -85q-33 -23 -102 -23q-74 0 -115 16z" horiz-adv-x="634" unicode="Ţ" glyph-name="Tcedilla"/>
<glyph d="M5 370v138h92v150h210v-150h108v-138h-108v-168q0 -40 14 -55q14 -14 47 -14q21 0 47 7v-141q-63 -14 -129 -14q-108 0 -150 42q-39 39 -39 125v218h-92zM137 -234l24 70q35 -10 63 -10q30 0 41 5q18 7 18 25q0 20 -23 26q-24 4 -68 4h-14l23 67q19 2 51 2q69 0 103 -20 q42 -26 42 -77q0 -57 -43 -85q-33 -23 -102 -23q-74 0 -115 16z" horiz-adv-x="441" unicode="ţ" glyph-name="tcedilla"/>
<glyph d="M208 508h-198v192h614v-192h-198v-508h-218v508zM317 815l77 83h160l-125 -132h-224l-125 132h160z" horiz-adv-x="634" unicode="Ť" glyph-name="Tcaron"/>
<glyph d="M5 370v138h92v150h210v-150h108v-138h-108v-168q0 -40 14 -55q14 -14 47 -14q21 0 47 7v-141q-63 -14 -129 -14q-108 0 -150 42q-39 39 -39 125v218h-92zM356 712v148h163v-121q0 -91 -39 -133q-41 -43 -124 -46v73q51 2 68 20q18 18 18 55v4h-86z" horiz-adv-x="490" unicode="ť" glyph-name="tcaron"/>
<glyph d="M733 700v-438q0 -63 -12.5 -109.5t-55.5 -89.5q-81 -82 -255 -82q-176 0 -257 82q-41 42 -54.5 89.5t-13.5 110.5v437h219v-428q0 -60 27 -88q26 -27 78 -27t78 27q27 28 27 88v428h219zM521 901h106q-9 -67 -47 -105q-29 -30 -76 -30q-33 0 -79 21l-30 14q-32 16 -56 16 q-18 0 -29 -11q-10 -12 -12 -29h-107q9 55 41 93q34 40 89 40q32 0 74 -19l26 -12q44 -20 61 -20q18 0 27 10q10 11 12 32z" unicode="Ũ" glyph-name="Utilde"/>
<glyph d="M429 0v56h-5q-65 -70 -173 -70q-87 0 -133 45q-53 52 -53 173v304h210v-273q0 -54 17 -77q16 -22 50 -22q33 0 51 25q21 28 21 77v270h210v-508h-195zM456 703h106q-9 -66 -46 -105q-29 -30 -76 -30q-34 0 -80 21l-30 14q-32 16 -56 16q-18 0 -29 -11q-10 -12 -12 -29 h-107q9 55 41 93q33 40 87 40q36 0 76 -19l26 -12q44 -20 61 -20q18 0 27 10q10 11 12 32z" horiz-adv-x="689" unicode="ũ" glyph-name="utilde"/>
<glyph d="M733 700v-438q0 -63 -12.5 -109.5t-55.5 -89.5q-81 -82 -255 -82q-176 0 -257 82q-41 42 -54.5 89.5t-13.5 110.5v437h219v-428q0 -60 27 -88q26 -27 78 -27t78 27q27 28 27 88v428h219zM206 779v96h406v-96h-406z" unicode="Ū" glyph-name="Umacron"/>
<glyph d="M429 0v56h-5q-65 -70 -173 -70q-87 0 -133 45q-53 52 -53 173v304h210v-273q0 -54 17 -77q16 -22 50 -22q33 0 51 25q21 28 21 77v270h210v-508h-195zM141 590v96h406v-96h-406z" horiz-adv-x="689" unicode="ū" glyph-name="umacron"/>
<glyph d="M733 700v-438q0 -63 -12.5 -109.5t-55.5 -89.5q-81 -82 -255 -82q-176 0 -257 82q-41 42 -54.5 89.5t-13.5 110.5v437h219v-428q0 -60 27 -88q26 -27 78 -27t78 27q27 28 27 88v428h219zM485 900h122q-4 -53 -40 -89q-51 -51 -158 -51t-158 51q-36 36 -40 89h122 q-1 -26 18 -44q19 -17 58 -17t58 17t18 44z" unicode="Ŭ" glyph-name="Ubreve"/>
<glyph d="M429 0v56h-5q-65 -70 -173 -70q-87 0 -133 45q-53 52 -53 173v304h210v-273q0 -54 17 -77q16 -22 50 -22q33 0 51 25q21 28 21 77v270h210v-508h-195zM420 702h122q-4 -53 -40 -89q-51 -51 -158 -51t-158 51q-36 36 -40 89h122q-1 -26 18 -44q19 -17 58 -17t58 17t18 44z " horiz-adv-x="689" unicode="ŭ" glyph-name="ubreve"/>
<glyph d="M733 700v-438q0 -63 -12.5 -109.5t-55.5 -89.5q-81 -82 -255 -82q-176 0 -257 82q-41 42 -54.5 89.5t-13.5 110.5v437h219v-428q0 -60 27 -88q26 -27 78 -27t78 27q27 28 27 88v428h219zM298 872q0 47 32 79.5t79 32.5t79 -32.5t32 -79.5q0 -46 -32 -78.5t-79 -32.5 t-79 32.5t-32 78.5zM363 872q0 -20 13.5 -33t32.5 -13t32.5 13t13.5 33q0 21 -14.5 34t-31.5 13t-31.5 -13t-14.5 -34z" unicode="Ů" glyph-name="Uring"/>
<glyph d="M429 0v56h-5q-65 -70 -173 -70q-87 0 -133 45q-53 52 -53 173v304h210v-273q0 -54 17 -77q16 -22 50 -22q33 0 51 25q21 28 21 77v270h210v-508h-195zM238 670q0 44 31 75t75 31t75 -31t31 -75t-31 -75t-75 -31t-75 31t-31 75zM300 670q0 -18 13 -31t31 -13t31 13t13 31 t-13 31t-31 13t-31 -13t-13 -31z" horiz-adv-x="689" unicode="ů" glyph-name="uring"/>
<glyph d="M733 700v-438q0 -63 -12.5 -109.5t-55.5 -89.5q-81 -82 -255 -82q-176 0 -257 82q-41 42 -54.5 89.5t-13.5 110.5v437h219v-428q0 -60 27 -88q26 -27 78 -27t78 27q27 28 27 88v428h219zM247 908h187l-97 -132h-147zM480 908h188l-98 -132h-147z" unicode="Ű" glyph-name="Uhungarumlaut"/>
<glyph d="M429 0v56h-5q-65 -70 -173 -70q-87 0 -133 45q-53 52 -53 173v304h210v-273q0 -54 17 -77q16 -22 50 -22q33 0 51 25q21 28 21 77v270h210v-508h-195zM182 710h187l-97 -132h-147zM415 710h188l-98 -132h-147z" horiz-adv-x="689" unicode="ű" glyph-name="uhungarumlaut"/>
<glyph d="M575 -124h107q-1 -55 -36 -95q-40 -45 -120 -45q-73 0 -113 34t-40 92q0 71 58 119q-11 -1 -37 -1q-141 0 -218 62q-91 72 -91 221v437h219v-428q0 -60 27 -88q26 -27 78 -27t78 27q27 28 27 88v428h219v-438q0 -62 -13 -109.5t-55 -89.5q-22 -22 -66 -49 q-54 -32 -71 -49q-41 -41 -41 -95q0 -28 14 -42q12 -13 34 -13q23 0 34 19q11 18 6 42z" unicode="Ų" glyph-name="Uogonek"/>
<glyph d="M429 0v56h-5q-65 -70 -173 -70q-87 0 -133 45q-53 52 -53 173v304h210v-273q0 -54 17 -77q16 -22 50 -22q33 0 51 25q21 28 21 77v270h210v-508q-34 -27 -52.5 -62t-18.5 -68q0 -28 14 -42q12 -13 34 -13q23 0 34 19q9 16 7 42h106q-1 -55 -36 -95q-40 -45 -120 -45 q-73 0 -113 34q-40 33 -40 90q0 78 80 140h-90z" horiz-adv-x="689" unicode="ų" glyph-name="uogonek"/>
<glyph d="M344 416l116 284h235l-244 -455v-245h-218v245l-243 455h235zM122 779v129h172v-129h-172zM391 779v129h172v-129h-172z" horiz-adv-x="685" unicode="Ÿ" glyph-name="Ydieresis"/>
<glyph d="M356 508h-302v192h575v-155l-340 -353h367v-192h-616v189zM322 908h199l-112 -142h-153z" horiz-adv-x="696" unicode="Ź" glyph-name="Zacute"/>
<glyph d="M47 370v138h457v-140l-264 -230l277 1v-139h-492v140l268 230h-246zM257 700h189l-112 -132h-143z" horiz-adv-x="542" unicode="ź" glyph-name="zacute"/>
<glyph d="M356 508h-302v192h575v-155l-340 -353h367v-192h-616v189zM262 779v129h172v-129h-172z" horiz-adv-x="696" unicode="Ż" glyph-name="Zdotaccent"/>
<glyph d="M47 370v138h457v-140l-264 -230l277 1v-139h-492v140l268 230h-246zM200 581v129h172v-129h-172z" horiz-adv-x="542" unicode="ż" glyph-name="zdotaccent"/>
<glyph d="M356 508h-302v192h575v-155l-340 -353h367v-192h-616v189zM348 815l77 83h160l-125 -132h-224l-125 132h160z" horiz-adv-x="696" unicode="Ž" glyph-name="Zcaron"/>
<glyph d="M47 370v138h457v-140l-264 -230l277 1v-139h-492v140l268 230h-246zM282 612l77 88h160l-125 -132h-224l-125 132h160z" horiz-adv-x="542" unicode="ž" glyph-name="zcaron"/>
<glyph d="M590 508l-29 -138h-118l-80 -378q-20 -89 -61 -130q-25 -25 -60 -37.5t-60 -14.5t-67 -2q-52 0 -103 10l26 124q15 -5 39 -5q32 0 48 12q19 13 28 51l78 370h-93l29 138h93l2 8q20 84 61 125q59 59 183 59q63 0 123 -10l-27 -127q-27 8 -58 8q-34 0 -51 -17 q-14 -14 -20 -42l-1 -4h118z" horiz-adv-x="720" unicode="ƒ" glyph-name="florin"/>
<glyph d="M85 700h218v-700h-218v700zM193 815l77 83h160l-125 -132h-224l-125 132h160z" horiz-adv-x="388" unicode="Ǐ" glyph-name="Icaron"/>
<glyph d="M65 508h210v-508h-210v508zM167 612l77 88h160l-125 -132h-224l-125 132h160z" horiz-adv-x="340" unicode="ǐ" glyph-name="icaron"/>
<glyph d="M449 386h306v-386h-160l-13 59q-32 -39 -79 -59.5t-127 -20.5q-152 0 -235 77q-101 94 -101 276q0 178 106 286q98 99 259 99q156 0 240 -66q38 -30 66.5 -80t36.5 -113h-225q-5 37 -26 58q-29 30 -82 30q-58 0 -93 -37q-46 -49 -46 -159q0 -117 54 -167q33 -32 93 -32 q47 0 80 25q28 22 42 56h-96v154zM400 815l77 83h160l-125 -132h-224l-125 132h160z" horiz-adv-x="800" unicode="Ǧ" glyph-name="Gcaron"/>
<glyph d="M76 -25h194q0 -23 17 -34q17 -12 46 -12q35 0 56 19q20 20 20 60v56h-5q-52 -44 -143 -44q-109 0 -166 56q-65 63 -65 180q0 125 69 198q62 68 163 68q99 0 155 -61h5v47h197v-432q0 -137 -70 -205q-30 -28 -71.5 -43.5t-72 -18.5t-74.5 -3q-125 0 -186 43 q-64 44 -69 126zM247 267q0 -57 24 -88q22 -29 59 -29q39 0 60 25q27 31 27 93q0 61 -29 92q-24 24 -56 24q-34 0 -55 -23q-30 -30 -30 -94zM342 612l77 88h160l-125 -132h-224l-125 132h160z" horiz-adv-x="684" unicode="ǧ" glyph-name="gcaron"/>
<glyph d="M30 231h219q-3 -47 24 -76q26 -28 85 -28q40 0 62 15q26 17 26 50q0 32 -26 50q-22 15 -82 28l-70 14q-119 24 -173 74q-54 48 -54 132q0 104 82 169q76 59 215 59q148 0 218 -60q29 -25 49.5 -66t22.5 -92h-206q0 31 -16 48q-20 22 -68 22q-40 0 -60 -12 q-24 -15 -24 -41q0 -21 14 -34q3 -3 6 -5.5t7.5 -4.5t8.5 -3.5t10.5 -3.5t10.5 -3t12.5 -3t13.5 -3t15.5 -3.5t16.5 -3.5l68 -15q113 -24 163 -74q54 -54 54 -136q0 -47 -18.5 -94t-47.5 -76q-76 -77 -247 -77q-169 0 -245 79q-28 29 -46.5 75t-19.5 99zM270 -195v132h167 v-103q0 -99 -45 -143q-42 -41 -122 -43v75q49 -2 73 23q17 18 17 55v4h-90z" horiz-adv-x="684" unicode="Ș" glyph-name="Scommaaccent"/>
<glyph d="M25 167h205q-6 -33 15 -54q17 -17 51 -17q32 0 51 11q22 13 22 35q0 25 -25 37q-17 8 -67 15l-52 8q-100 15 -139 49q-42 38 -42 99q0 87 70 134q64 43 187 43q117 0 173 -38q64 -44 69 -126h-179q2 28 -15 45q-16 16 -52 16q-29 0 -45 -12q-18 -13 -18 -34t22 -31 q18 -10 63 -16l70 -10q91 -13 132 -52q43 -41 43 -108q0 -88 -68 -136q-62 -44 -200 -44q-79 0 -132.5 13t-89.5 50q-48 50 -49 123zM211 -185v122h167v-89q0 -97 -45 -139q-43 -39 -122 -41v69q49 -3 73 23q17 18 17 51v4h-90z" horiz-adv-x="589" unicode="ș" glyph-name="scommaaccent"/>
<glyph d="M208 508h-198v192h614v-192h-198v-508h-218v508zM233 -195v132h167v-103q0 -99 -45 -143q-42 -41 -122 -43v75q49 -2 73 23q17 18 17 55v4h-90z" horiz-adv-x="634" unicode="Ț" glyph-name="Tcommaaccent"/>
<glyph d="M5 370v138h92v150h210v-150h108v-138h-108v-168q0 -40 14 -55q14 -14 47 -14q21 0 47 7v-141q-63 -14 -129 -14q-108 0 -150 42q-39 39 -39 125v218h-92zM200 -185v122h167v-89q0 -97 -45 -139q-43 -39 -122 -41v69q49 -3 73 23q17 18 17 51v4h-90z" horiz-adv-x="441" unicode="ț" glyph-name="tcommaaccent"/>
<glyph d="M303 436h311v-165h-311v-86h371v-185h-589v700h581v-185h-363v-79zM269 -234l24 70q35 -10 63 -10q30 0 41 5q18 7 18 25q0 20 -23 26q-24 4 -68 4h-14l23 67q19 2 51 2q69 0 103 -20q42 -26 42 -77q0 -57 -43 -85q-33 -23 -102 -23q-74 0 -115 16z" horiz-adv-x="719" unicode="Ȩ" glyph-name="Ecedilla"/>
<glyph d="M404 147h206q-27 -84 -101 -127q-66 -38 -185 -38q-73 0 -127.5 13.5t-97.5 56.5q-69 69 -69 187q0 126 76 205q78 82 220 82q149 0 222 -75q32 -33 48.5 -79.5t19 -75.5t2.5 -72v-12h-373q-2 -48 19 -77q22 -29 64 -29q32 0 50 10q20 11 26 31zM246 312h156q0 44 -22 68 q-19 21 -52 21q-38 0 -57 -22q-23 -24 -25 -67zM200 -234l24 70q35 -10 63 -10q30 0 41 5q18 7 18 25q0 20 -23 26q-24 4 -68 4h-14l23 67q19 2 51 2q69 0 103 -20q42 -26 42 -77q0 -57 -43 -85q-33 -23 -102 -23q-74 0 -115 16z" horiz-adv-x="648" unicode="ȩ" glyph-name="ecedilla"/>
<glyph d="M136 552v148h163v-121q0 -91 -39 -133q-41 -43 -124 -46v73q51 2 68 20q18 18 18 55v4h-86z" horiz-adv-x="303" unicode="ʼ" glyph-name="afii57929"/>
<glyph d="M287 656l-77 -88h-160l125 132h224l125 -132h-160z" horiz-adv-x="574" unicode="ˆ" glyph-name="circumflex"/>
<glyph d="M287 612l77 88h160l-125 -132h-224l-125 132h160z" horiz-adv-x="574" unicode="ˇ" glyph-name="caron"/>
<glyph d="M324 702h122q-4 -53 -40 -89q-51 -51 -158 -51t-158 51q-36 36 -40 89h122q-1 -26 18 -44q19 -17 58 -17t58 17t18 44z" horiz-adv-x="496" unicode="˘" glyph-name="breve"/>
<glyph d="M50 581v129h172v-129h-172z" horiz-adv-x="272" unicode="˙" glyph-name="dotaccent"/>
<glyph d="M50 670q0 44 31 75t75 31t75 -31t31 -75t-31 -75t-75 -31t-75 31t-31 75zM112 670q0 -18 13 -31t31 -13t31 13t13 31t-13 31t-31 13t-31 -13t-13 -31z" horiz-adv-x="312" unicode="˚" glyph-name="ring"/>
<glyph d="M155 0h105q-34 -27 -52.5 -62t-18.5 -68q0 -28 14 -42q12 -13 34 -13q23 0 34 19q11 18 6 42h107q-1 -55 -36 -95q-40 -45 -120 -45q-73 0 -113 34q-40 35 -40 90q0 77 80 140z" horiz-adv-x="408" unicode="˛" glyph-name="ogonek"/>
<glyph d="M380 703h106q-9 -66 -46 -105q-29 -30 -76 -30q-34 0 -80 21l-30 14q-32 16 -56 16q-18 0 -29 -11q-10 -12 -12 -29h-107q9 55 41 93q33 40 87 40q36 0 76 -19l26 -12q44 -20 61 -20q18 0 27 10q10 11 12 32z" horiz-adv-x="536" unicode="˜" glyph-name="tilde"/>
<glyph d="M122 710h187l-97 -132h-147zM355 710h188l-98 -132h-147z" horiz-adv-x="568" unicode="˝" glyph-name="hungarumlaut"/>
<glyph d="M-318 700h189l-112 -132h-143z" horiz-adv-x="2" unicode="́" glyph-name="accent"/>
<glyph d="M-318 700h189l-112 -132h-143z" horiz-adv-x="2" unicode="" glyph-name="accent"/>
<glyph d="M136 552v148h163v-121q0 -91 -39 -133q-41 -43 -124 -46v73q51 2 68 20q18 18 18 55v4h-86z" horiz-adv-x="303" unicode="̓" glyph-name="uni0313"/>
<glyph d="M136 552v148h163v-121q0 -91 -39 -133q-41 -43 -124 -46v73q51 2 68 20q18 18 18 55v4h-86z" horiz-adv-x="303" unicode="̕" glyph-name="uni0315"/>
<glyph d="M70 -185v122h167v-89q0 -97 -45 -139q-43 -39 -122 -41v69q49 -3 73 23q17 18 17 51v4h-90z" horiz-adv-x="307" unicode="̦" glyph-name="uni0326"/>
<glyph d="M70 264v206h213v-206h-213z" horiz-adv-x="353" unicode="·" glyph-name="anoteleia"/>
<glyph d="M787 0h-797l331 700h132zM207 144h297l-148 325z" horiz-adv-x="777" unicode="Δ" glyph-name="Delta"/>
<glyph d="M787 0h-797l331 700h132zM207 144h297l-148 325z" horiz-adv-x="777" unicode="∆" glyph-name="Delta"/>
<glyph d="M439 0v284q41 9 69 41q31 36 31 91q0 66 -40 105q-41 40 -115 40t-117 -41q-44 -42 -44 -108q0 -54 29 -88q25 -30 71 -40v-284h-300v166h164v23q-67 9 -115 61q-57 61 -57 162q0 136 90 219q97 90 275 90q181 0 278 -89q89 -81 89 -213q0 -112 -65 -175 q-42 -41 -107 -55v-23h164v-166h-300z" horiz-adv-x="762" unicode="Ω" glyph-name="Omega"/>
<glyph d="M439 0v284q41 9 69 41q31 36 31 91q0 66 -40 105q-41 40 -115 40t-117 -41q-44 -42 -44 -108q0 -54 29 -88q25 -30 71 -40v-284h-300v166h164v23q-67 9 -115 61q-57 61 -57 162q0 136 90 219q97 90 275 90q181 0 278 -89q89 -81 89 -213q0 -112 -65 -175 q-42 -41 -107 -55v-23h164v-166h-300z" horiz-adv-x="762" unicode="Ω" glyph-name="Omega"/>
<glyph d="M94 0v376q-25 1 -49 -6q-16 -4 -35 -13v128q18 12 45 18q26 5 63 5h572v-132h-70v-206q0 -28 11 -39q9 -9 35 -9h10v-120q-38 -6 -93 -6q-93 0 -129 35q-34 34 -34 105v240h-126v-376h-200z" horiz-adv-x="705" unicode="π" glyph-name="pi"/>
<glyph d="M304 437h325v-165h-325v-87h385v-185h-604v700h595v-185h-376v-78zM175 773v118h166v-118h-166zM433 773v118h167v-118h-167z" horiz-adv-x="734" unicode="Ё" glyph-name="afii10023"/>
<glyph d="M5 700h614v-188h-198v-102q79 11 140 11q123 0 192 -43q91 -58 91 -180q0 -99 -56 -156q-27 -28 -63.5 -42.5t-61.5 -17t-63 -2.5q-69 0 -119 19v141q36 -8 61 -8q39 0 59 17t20 46q0 38 -30 54q-22 13 -75 13q-20 0 -95 -8v-254h-218v512h-198v188z" horiz-adv-x="864" unicode="Ђ" glyph-name="afii10051"/>
<glyph d="M303 508v-508h-218v700h497v-192h-279zM312 908h199l-112 -142h-153z" horiz-adv-x="597" unicode="Ѓ" glyph-name="afii10052"/>
<glyph d="M760 461h-220q-7 41 -38 65q-32 25 -89 25q-65 0 -101 -37q-34 -35 -39 -93h219v-141h-219q-2 -29 7.5 -60t28.5 -50q34 -35 103 -35q62 0 97 30q26 23 36 59h219q-18 -115 -108 -181q-86 -63 -261 -63q-176 0 -263 85q-92 88 -92 261q0 190 103 291q98 98 278 98 q162 0 244 -66q85 -67 95 -188z" horiz-adv-x="784" unicode="Є" glyph-name="afii10053"/>
<glyph d="M30 231h219q-3 -47 24 -76q26 -28 85 -28q40 0 62 15q26 17 26 50q0 32 -26 50q-22 15 -82 28l-70 14q-119 24 -173 74q-54 48 -54 132q0 104 82 169q76 59 215 59q148 0 218 -60q29 -25 49.5 -66t22.5 -92h-206q0 31 -16 48q-20 22 -68 22q-40 0 -60 -12 q-24 -15 -24 -41q0 -21 14 -34q3 -3 6 -5.5t7.5 -4.5t8.5 -3.5t10.5 -3.5t10.5 -3t12.5 -3t13.5 -3t15.5 -3.5t16.5 -3.5l68 -15q113 -24 163 -74q54 -54 54 -136q0 -47 -18.5 -94t-47.5 -76q-76 -77 -247 -77q-169 0 -245 79q-28 29 -46.5 75t-19.5 99z" horiz-adv-x="684" unicode="Ѕ" glyph-name="afii10054"/>
<glyph d="M85 700h218v-700h-218v700z" horiz-adv-x="388" unicode="І" glyph-name="afii10055"/>
<glyph d="M85 700h218v-700h-218v700zM13 779v119h153v-119h-153zM223 779v119h152v-119h-152z" horiz-adv-x="388" unicode="Ї" glyph-name="afii10056"/>
<glyph d="M20 276h214v-41q0 -42 14 -60q16 -20 44 -20q26 0 40 19q13 17 13 54v472h218v-440q0 -149 -70 -217q-65 -63 -199 -63q-141 0 -207 67q-30 30 -46 73t-18.5 71.5t-2.5 70.5v14z" horiz-adv-x="648" unicode="Ј" glyph-name="afii10057"/>
<glyph d="M722 700v-237h150q141 0 211 -70q60 -60 60 -163q0 -111 -61 -170q-62 -60 -209 -60h-363v508h-154l-5 -231q-1 -38 -2 -55.5t-6 -54.5t-18 -65.5t-34 -51.5q-57 -60 -182 -60q-54 0 -109 11v180q22 -5 45 -5q49 0 70 20q14 13 21.5 39t8.5 47t2 61l5 357h570zM722 297 v-125h114q42 0 61 18q16 15 16 46q0 30 -21 46q-20 15 -56 15h-114z" horiz-adv-x="1148" unicode="Љ" glyph-name="afii10058"/>
<glyph d="M714 700v-237h145q141 0 211 -70q60 -60 60 -163q0 -111 -61 -170q-62 -60 -209 -60h-362v297h-195v-297h-218v700h218v-237h195v237h216zM714 297v-131h114q38 0 58 18q19 18 19 50q0 33 -21 48q-20 15 -56 15h-114z" horiz-adv-x="1135" unicode="Њ" glyph-name="afii10059"/>
<glyph d="M839 0h-219v134q0 67 -22 90q-25 26 -94 26q-39 0 -78 -6v-244h-218v512h-198v188h614v-188h-198v-104q82 10 147 10q106 0 169 -31q61 -29 79 -77t18 -117v-193z" horiz-adv-x="899" unicode="Ћ" glyph-name="afii10060"/>
<glyph d="M308 411l187 289h249l-248 -326l269 -374h-259l-198 338h-5v-338h-218v700h218v-289h5zM367 908h199l-112 -142h-153z" horiz-adv-x="750" unicode="Ќ" glyph-name="afii10061"/>
<glyph d="M352 392l95 308h227l-221 -535q-38 -91 -91 -133q-25 -19 -53.5 -28.5t-45.5 -11t-46 -1.5q-81 0 -136 20v174q32 -17 74 -17q61 0 80 49l-235 483h239zM419 900h122q-4 -53 -40 -89q-51 -51 -158 -51t-158 51q-36 36 -40 89h122q-1 -26 18 -44q19 -17 58 -17t58 17 t18 44z" horiz-adv-x="661" unicode="Ў" glyph-name="afii10062"/>
<glyph d="M303 192h197v508h218v-700h-226v-224h-181v224h-226v700h218v-508z" horiz-adv-x="803" unicode="Џ" glyph-name="afii10145"/>
<glyph d="M245 99l-32 -99h-226l259 700h215l259 -700h-226l-32 99h-217zM288 243h131l-66 210z" horiz-adv-x="710" unicode="А" glyph-name="afii10017"/>
<glyph d="M303 528v-87h162q141 0 203 -60q58 -56 58 -159t-61 -161q-63 -61 -190 -61h-390v700h590v-172h-372zM303 291v-126h105q53 0 70 16t17 46q0 31 -18 47q-18 17 -67 17h-107z" horiz-adv-x="766" unicode="Б" glyph-name="afii10018"/>
<glyph d="M85 700h396q115 0 166 -42q56 -46 56 -133q0 -64 -43 -108q-31 -32 -71 -42v-4q62 -12 99 -49q50 -48 50 -131q0 -95 -66 -143q-63 -48 -194 -48h-393v700zM303 542v-112h112q39 0 54 14q16 14 16 42q0 29 -18 43q-17 13 -55 13h-109zM303 285v-127h132q40 0 57 15 q19 17 19 49q0 34 -20 49q-18 14 -57 14h-131z" horiz-adv-x="778" unicode="В" glyph-name="afii10019"/>
<glyph d="M303 508v-508h-218v700h497v-192h-279z" horiz-adv-x="597" unicode="Г" glyph-name="afii10020"/>
<glyph d="M713 192h98l-9 -338h-176v146h-441v-146h-178l-7 340h86q42 72 58 144q15 62 15 187v175h554v-508zM501 522h-145v-74q0 -78 -11 -133q-12 -66 -47 -137h203v344z" horiz-adv-x="826" unicode="Д" glyph-name="afii10021"/>
<glyph d="M303 436h311v-165h-311v-86h371v-185h-589v700h581v-185h-363v-79z" horiz-adv-x="719" unicode="Е" glyph-name="afii10022"/>
<glyph d="M414 0v298l-173 -298h-251l254 379l-242 321h245l167 -262v262h196v-262l167 262h245l-241 -321l253 -379h-251l-173 298v-298h-196z" horiz-adv-x="1024" unicode="Ж" glyph-name="afii10024"/>
<glyph d="M35 249h211q1 -49 33 -81q32 -30 95 -30q59 0 86 18q34 21 34 64q0 34 -33 50q-29 13 -84 13h-62v138h70q43 0 66 15q23 17 23 50q0 35 -28 57q-26 20 -75 20q-54 0 -81 -29q-24 -26 -22 -74h-212q-1 108 63 172q83 84 268 84q191 0 269 -75q53 -51 53 -127 q0 -64 -36 -103q-32 -35 -82 -41v-6q57 -10 93 -48q42 -42 42 -110q0 -107 -82 -164q-52 -37 -116 -48.5t-147 -11.5q-50 0 -85.5 3t-83.5 17t-82 41q-91 70 -95 206z" horiz-adv-x="761" unicode="З" glyph-name="afii10025"/>
<glyph d="M297 325l211 375h212v-700h-212v379l-211 -379h-212v700h212v-375z" horiz-adv-x="805" unicode="И" glyph-name="afii10026"/>
<glyph d="M297 325l211 375h212v-700h-212v379l-211 -379h-212v700h212v-375zM474 907h141q-3 -61 -42 -103q-50 -51 -172 -51t-172 51q-39 42 -42 103h141q0 -30 15 -45q16 -17 58 -17t58 17q15 15 15 45z" horiz-adv-x="805" unicode="Й" glyph-name="afii10027"/>
<glyph d="M308 411l187 289h249l-248 -326l269 -374h-259l-198 338h-5v-338h-218v700h218v-289h5z" horiz-adv-x="750" unicode="К" glyph-name="afii10028"/>
<glyph d="M0 1v180q22 -5 45 -5q49 0 70 20q14 13 21.5 39t8.5 47t2 61l5 357h578v-700h-220v508h-154l-5 -231q-1 -38 -2 -55.5t-6 -54.5t-18 -65.5t-34 -51.5q-57 -60 -182 -60q-54 0 -109 11z" horiz-adv-x="815" unicode="Л" glyph-name="afii10029"/>
<glyph d="M423 0l-140 465l-5 -1l5 -53v-411h-198v700h296l113 -396l6 -48h5l7 48l112 396h296v-700h-198v411l5 53l-5 1l-140 -465h-159z" horiz-adv-x="1005" unicode="М" glyph-name="afii10030"/>
<glyph d="M303 275v-275h-218v700h218v-241h195v241h218v-700h-218v275h-195z" horiz-adv-x="801" unicode="Н" glyph-name="afii10031"/>
<glyph d="M40 348q0 170 99 273q95 98 267 98q182 0 279 -99q93 -97 93 -266q0 -175 -91 -273q-93 -100 -275 -100q-187 0 -282 102q-90 96 -90 265zM272 350q0 -101 44 -148q36 -37 93 -37q61 0 94 37q43 47 43 148q0 103 -43 148q-36 37 -90 37q-59 0 -95 -37q-46 -48 -46 -148z " unicode="О" glyph-name="afii10032"/>
<glyph d="M303 515v-515h-218v700h642v-700h-218v515h-206z" horiz-adv-x="812" unicode="П" glyph-name="afii10033"/>
<glyph d="M85 700h356q138 0 207 -66q67 -64 67 -181q0 -124 -66 -188q-23 -23 -50.5 -37t-59.5 -19t-50 -6t-48 -1h-138v-202h-218v700zM303 511v-141h104q48 0 69 20q20 18 20 56q0 31 -18 47q-20 18 -71 18h-104z" horiz-adv-x="740" unicode="Р" glyph-name="afii10034"/>
<glyph d="M526 258h213q-11 -122 -87 -197q-49 -49 -111 -65t-142 -16q-173 0 -258 80q-101 95 -101 283q0 182 104 283q94 92 263 92q162 0 245 -85q11 -11 23.5 -27.5t32.5 -62t25 -96.5h-211q-6 39 -33 63q-26 22 -75 22q-62 0 -97 -35q-45 -45 -45 -148q0 -96 39 -142 q34 -40 97 -40q53 0 84 27q29 25 34 64z" horiz-adv-x="759" unicode="С" glyph-name="afii10035"/>
<glyph d="M208 508h-198v192h614v-192h-198v-508h-218v508z" horiz-adv-x="634" unicode="Т" glyph-name="afii10036"/>
<glyph d="M352 392l95 308h227l-221 -535q-38 -91 -91 -133q-25 -19 -53.5 -28.5t-45.5 -11t-46 -1.5q-81 0 -136 20v174q32 -17 74 -17q61 0 80 49l-235 483h239z" horiz-adv-x="661" unicode="У" glyph-name="afii10037"/>
<glyph d="M404 -24v93h-17q-93 0 -157.5 17t-111.5 63q-78 78 -78 206q0 122 80 204q47 48 111 67t159 19h14v89h218v-89h14q187 0 271 -84q37 -37 58 -91.5t21 -112.5q0 -132 -78 -208q-47 -46 -112 -63t-157 -17h-17v-93h-218zM421 232v250h-18q-70 0 -104 -25q-45 -34 -45 -103 t47 -100q33 -22 100 -22h20zM606 232h20q67 0 100 22q47 31 47 100t-45 103q-34 25 -104 25h-18v-250z" horiz-adv-x="1026" unicode="Ф" glyph-name="afii10038"/>
<glyph d="M379 204l-119 -204h-270l260 366l-225 334h240l114 -195l116 195h246l-233 -334l252 -366h-265z" horiz-adv-x="750" unicode="Х" glyph-name="afii10039"/>
<glyph d="M303 192h211v508h218v-508h99l-6 -338h-190v146h-550v700h218v-508z" horiz-adv-x="841" unicode="Ц" glyph-name="afii10040"/>
<glyph d="M35 700h209v-162q0 -67 23 -90q24 -25 86 -25q38 0 85 7v270h218v-700h-218v271q-84 -8 -129 -8q-139 0 -198 42q-76 51 -76 182v213z" horiz-adv-x="741" unicode="Ч" glyph-name="afii10041"/>
<glyph d="M283 178h162v522h198v-522h162v522h198v-700h-918v700h198v-522z" horiz-adv-x="1088" unicode="Ш" glyph-name="afii10042"/>
<glyph d="M283 178h164v522h198v-522h164v522h198v-508h97l-5 -338h-189v146h-825v700h198v-522z" horiz-adv-x="1115" unicode="Щ" glyph-name="afii10043"/>
<glyph d="M393 700v-237h149q141 0 211 -70q60 -60 60 -163q0 -111 -61 -170q-62 -60 -209 -60h-366v508h-162v192h378zM393 297v-125h114q42 0 61 18q16 15 16 46q0 30 -21 46q-20 15 -56 15h-114z" horiz-adv-x="828" unicode="Ъ" glyph-name="afii10044"/>
<glyph d="M759 700h218v-700h-218v700zM302 700v-237h139q141 0 211 -70q60 -60 60 -163q0 -111 -61 -170q-62 -60 -209 -60h-357v700h217zM302 297v-125h114q42 0 61 18q16 15 16 46q0 30 -21 46q-20 15 -56 15h-114z" horiz-adv-x="1062" unicode="Ы" glyph-name="afii10045"/>
<glyph d="M302 700v-237h149q141 0 211 -70q60 -60 60 -163q0 -111 -61 -170q-62 -60 -209 -60h-367v700h217zM302 297v-125h114q42 0 61 18q16 15 16 46q0 30 -21 46q-20 15 -56 15h-114z" horiz-adv-x="737" unicode="Ь" glyph-name="afii10046"/>
<glyph d="M246 450h-218q12 104 87 176q95 89 270 89q184 0 275 -94q89 -91 89 -263q0 -185 -94 -282q-93 -96 -280 -96t-275 88q-69 69 -80 177h219q4 -44 35 -75q36 -35 101 -35q66 0 99 32q19 18 30.5 50.5t11.5 62.5h-219v141h219q2 58 -35 95q-35 35 -101 35q-57 0 -92 -27 q-34 -27 -42 -74z" horiz-adv-x="789" unicode="Э" glyph-name="afii10047"/>
<glyph d="M385 276h-82v-276h-218v700h218v-246h88q19 98 83 165q95 100 272 100t274 -101q93 -97 93 -262q0 -175 -102 -279q-57 -57 -124.5 -76.5t-148.5 -19.5q-173 0 -260 84q-86 82 -93 211zM607 350q0 -101 44 -148q36 -37 93 -37q61 0 94 37q43 47 43 148q0 103 -43 148 q-36 37 -90 37q-59 0 -95 -37q-46 -48 -46 -148z" horiz-adv-x="1153" unicode="Ю" glyph-name="afii10048"/>
<glyph d="M457 230h-40l-139 -230h-252l181 248q-70 12 -116 56q-58 56 -58 154q0 106 62 170q70 72 205 72h375v-700h-218v230zM457 526h-124q-42 0 -63 -21q-17 -17 -17 -46q0 -33 19 -50q22 -20 67 -20h118v137z" horiz-adv-x="741" unicode="Я" glyph-name="afii10049"/>
<glyph d="M249 335h-197q6 71 51 118q66 68 214 68q150 0 210 -59q52 -50 52 -145v-229q0 -45 7 -58q8 -16 28 -23v-7h-226l-13 55h-2q-26 -31 -62 -49q-47 -24 -114 -24q-86 0 -128 39q-43 41 -43 110q0 61 38 99q44 44 137 55l60 7q74 9 87 17q3 2 6 5q15 15 15 38q0 22 -13 33 q-15 14 -44 14q-31 0 -47 -16q-18 -18 -16 -48zM369 217v13q-23 -17 -60 -22q-45 -8 -60 -24q-12 -13 -12 -32q0 -20 13 -33t35 -13q35 0 57 23q27 28 27 88z" horiz-adv-x="634" unicode="а" glyph-name="afii10065"/>
<glyph d="M450 757h160q-2 -70 -46 -114q-19 -19 -52 -31.5t-55 -16.5t-70 -10q-126 -16 -169 -45q-72 -49 -74 -160h8q19 43 58 73q62 47 161 47q124 0 193 -67q70 -66 70 -182q0 -118 -74 -194q-45 -45 -97.5 -60t-117.5 -15q-147 0 -221 75q-84 84 -84 278q0 207 90 296 q52 50 146 73q45 11 78.5 13.5t64.5 11.5q27 8 31 28zM263 245q0 -78 33 -115q20 -20 51 -20q28 0 46 17q31 30 31 118q0 84 -31 115q-22 19 -48 19q-29 0 -50 -21q-32 -32 -32 -113z" horiz-adv-x="664" unicode="б" glyph-name="afii10066"/>
<glyph d="M65 508h353q93 0 133 -35q36 -32 36 -89q0 -50 -30 -80q-29 -29 -75 -36v-6q59 -2 96 -37q34 -33 34 -89t-32 -91q-41 -45 -147 -45h-368v508zM271 403v-98h51q33 0 49 12q17 13 17 39q0 23 -16 36q-14 11 -43 11h-58zM271 211v-105h74q31 0 46 13q16 12 16 39 q0 25 -15 38q-16 15 -53 15h-68z" horiz-adv-x="638" unicode="в" glyph-name="afii10067"/>
<glyph d="M279 371v-371h-214v508h432v-137h-218z" horiz-adv-x="502" unicode="г" glyph-name="afii10068"/>
<glyph d="M0 132h67q39 57 58 126q16 59 16 150l1 100h480v-376h81l-10 -263h-161v131h-361v-131h-161zM420 376h-101l-1 -40q-2 -65 -12 -105q-13 -52 -42 -99h156v244z" horiz-adv-x="716" unicode="д" glyph-name="afii10069"/>
<glyph d="M404 147h206q-27 -84 -101 -127q-66 -38 -185 -38q-73 0 -127.5 13.5t-97.5 56.5q-69 69 -69 187q0 126 76 205q78 82 220 82q149 0 222 -75q32 -33 48.5 -79.5t19 -75.5t2.5 -72v-12h-373q-2 -48 19 -77q22 -29 64 -29q32 0 50 10q20 11 26 31zM246 312h156q0 44 -22 68 q-19 21 -52 21q-38 0 -57 -22q-23 -24 -25 -67z" horiz-adv-x="648" unicode="е" glyph-name="afii10070"/>
<glyph d="M329 508h190v-197l125 197h201l-176 -241l190 -267h-215l-125 210v-210h-190v210l-124 -210h-215l187 265l-174 243h202l124 -197v197z" horiz-adv-x="849" unicode="ж" glyph-name="afii10072"/>
<glyph d="M25 181h190q0 -33 19 -54q21 -23 69 -23q44 0 62 17q16 16 16 37q0 24 -19 37q-16 12 -53 12h-46v103h33q40 0 55 12t15 35t-19 37q-19 13 -52 13q-38 0 -58 -20q-19 -22 -18 -58h-183q4 78 53 129q66 69 220 69q156 0 216 -55q43 -38 43 -95q0 -47 -28 -75 q-25 -25 -63 -30v-6q51 -7 80 -36q32 -30 32 -80q0 -37 -19.5 -72.5t-58.5 -58.5q-64 -37 -192 -37q-51 0 -87 3t-82 18.5t-74 44.5q-52 54 -51 133z" horiz-adv-x="614" unicode="з" glyph-name="afii10073"/>
<glyph d="M265 222l179 286h208v-508h-200v260l4 27h-4l-179 -287h-208v508h200v-260l-4 -26h4z" horiz-adv-x="717" unicode="и" glyph-name="afii10074"/>
<glyph d="M426 731h145q0 -66 -45 -111q-54 -54 -166 -54q-115 0 -169 54q-44 44 -44 111h145q-2 -42 21 -62q16 -13 46 -13t46 13q23 20 21 62zM265 222l179 286h208v-508h-200v260l4 27h-4l-179 -287h-208v508h200v-260l-4 -26h4z" horiz-adv-x="717" unicode="й" glyph-name="afii10075"/>
<glyph d="M275 298h2l140 210h215l-181 -241l196 -267h-238l-132 221h-2v-221h-210v508h210v-210z" horiz-adv-x="637" unicode="к" glyph-name="afii10076"/>
<glyph d="M0 0v139q15 -3 31 -3q38 0 55 17q25 24 25 139v216h507v-508h-210v370h-103v-95q0 -87 -11 -142.5t-49 -92.5q-51 -49 -150 -49q-51 0 -95 9z" horiz-adv-x="683" unicode="л" glyph-name="afii10077"/>
<glyph d="M363 0l-106 300h-4l4 -26v-274h-192v508h263l99 -319h3l99 319h263v-508h-192v274l4 26h-4l-105 -300h-132z" horiz-adv-x="857" unicode="м" glyph-name="afii10078"/>
<glyph d="M275 199v-199h-210v508h210v-177h133v177h210v-508h-210v199h-133z" horiz-adv-x="683" unicode="н" glyph-name="afii10079"/>
<glyph d="M327 394q-28 0 -48 -20q-33 -34 -33 -120q0 -87 34 -121q19 -19 47 -19t48 20q33 34 33 120t-33 120q-20 20 -48 20zM624 255q0 -127 -76 -199q-77 -74 -221 -74t-221 74q-76 73 -76 199q0 124 77 197q76 74 221 74q144 0 221 -74q75 -72 75 -197z" horiz-adv-x="654" unicode="о" glyph-name="afii10080"/>
<glyph d="M275 370v-370h-210v508h560v-508h-210v370h-140z" horiz-adv-x="690" unicode="п" glyph-name="afii10081"/>
<glyph d="M65 508h200v-56h4q53 74 164 74q103 0 160 -55q13 -13 26.5 -31.5t29.5 -67.5t16 -109q0 -143 -75 -219q-60 -62 -167 -62q-96 0 -148 55v-222h-210v693zM266 248q0 -68 26 -102q25 -32 65 -32q37 0 61 26q31 34 31 108q0 76 -31 110q-22 26 -61 26q-37 0 -60 -26 q-31 -33 -31 -110z" horiz-adv-x="695" unicode="р" glyph-name="afii10082"/>
<glyph d="M400 200h196q-9 -87 -68 -146q-72 -72 -217 -72q-138 0 -208 67q-73 69 -73 193q0 129 82 211q78 76 213 76q133 0 205 -72q57 -58 62 -146h-193q0 44 -24 68q-18 18 -48 18q-31 0 -51 -21q-30 -32 -30 -117q0 -91 31 -124q19 -21 51 -21q31 0 48 17q24 26 24 69z" horiz-adv-x="626" unicode="с" glyph-name="afii10083"/>
<glyph d="M169 371h-164v137h542v-139h-164v-369h-214v371z" horiz-adv-x="552" unicode="т" glyph-name="afii10084"/>
<glyph d="M62 -173v135q26 -10 56 -10q33 0 50 13q20 14 26 43l5 22l-199 478h212l101 -317l80 317h195l-179 -500q-32 -91 -58 -125q-9 -10 -18 -19q-54 -50 -156 -50q-57 0 -115 13z" horiz-adv-x="588" unicode="у" glyph-name="afii10085"/>
<glyph d="M336 -185v171h-8q-41 0 -70 2.5t-74.5 19t-78.5 46.5q-75 69 -75 198q0 123 73 192q77 75 228 75h5v181h210v-181h6q150 0 227 -74q73 -71 73 -193q0 -127 -75 -198q-73 -68 -223 -68h-8v-171h-210zM527 387v-269h10q57 0 91 34q36 35 36 105q0 67 -39 101q-35 29 -91 29 h-7zM355 387h-7q-58 0 -91 -30q-39 -35 -39 -100q0 -70 36 -105q34 -34 91 -34h10v269z" horiz-adv-x="882" unicode="ф" glyph-name="afii10086"/>
<glyph d="M293 369l78 140h210l-182 -246l182 -263h-203l-86 139l-84 -139h-208l187 263l-177 245h206z" horiz-adv-x="581" unicode="х" glyph-name="afii10087"/>
<glyph d="M275 139h135v369h210v-369h82l-6 -268h-161v129h-470v508h210v-369z" horiz-adv-x="717" unicode="ц" glyph-name="afii10088"/>
<glyph d="M26 508h198v-133q0 -41 13 -56q17 -19 63 -19q24 0 45 4v204h210v-508h-210v183q-48 -7 -96 -7q-130 0 -181 49q-25 24 -33.5 56.5t-8.5 82.5v144z" horiz-adv-x="620" unicode="ч" glyph-name="afii10089"/>
<glyph d="M263 139h128v369h198v-371h128v371h198v-508h-850v508h198v-369z" horiz-adv-x="980" unicode="ш" glyph-name="afii10090"/>
<glyph d="M263 139h128v369h198v-369h128v369h198v-369h79l-8 -268h-161v129h-760v508h198v-369z" horiz-adv-x="1009" unicode="щ" glyph-name="afii10091"/>
<glyph d="M0 370v138h351v-174h113q117 0 167 -47q45 -43 45 -119q0 -80 -45 -123q-47 -45 -147 -45h-343v370h-141zM351 224v-117h52q34 0 51 14q18 15 18 47q0 27 -20 43q-17 13 -50 13h-51z" horiz-adv-x="686" unicode="ъ" glyph-name="afii10092"/>
<glyph d="M635 508h208v-508h-208v508zM275 508v-174h102q117 0 167 -47q45 -43 45 -119q0 -80 -45 -123q-47 -45 -147 -45h-332v508h210zM275 224v-117h52q34 0 51 14q18 15 18 47q0 27 -20 43q-17 13 -50 13h-51z" horiz-adv-x="908" unicode="ы" glyph-name="afii10093"/>
<glyph d="M275 508v-174h113q117 0 167 -47q45 -43 45 -119q0 -80 -45 -123q-47 -45 -147 -45h-343v508h210zM275 224v-117h52q34 0 51 14q18 15 18 47q0 27 -20 43q-17 13 -50 13h-51z" horiz-adv-x="610" unicode="ь" glyph-name="afii10094"/>
<glyph d="M262 204v103h144q-1 39 -26 64t-70 25q-48 0 -73 -26q-23 -24 -26 -58h-179q10 86 65 141q71 72 218 72q160 0 237 -81q64 -69 64 -187q0 -131 -74 -205q-73 -71 -226 -71q-144 0 -212 58q-67 57 -74 155h181q3 -33 25 -56q25 -26 75 -26q43 0 67 23q26 25 28 69h-144z " horiz-adv-x="646" unicode="э" glyph-name="afii10095"/>
<glyph d="M616 394q-28 0 -48 -20q-33 -34 -33 -120q0 -87 34 -121q19 -19 47 -19t48 20q33 34 33 120t-33 120q-20 20 -48 20zM273 331h66q15 80 70 129q71 66 204 66q148 0 225 -74q75 -73 75 -196q0 -121 -72 -196q-76 -78 -226 -78q-140 0 -211 66q-60 56 -70 151h-61v-199 h-208v508h208v-177z" horiz-adv-x="943" unicode="ю" glyph-name="afii10096"/>
<glyph d="M338 166l-98 -166h-215l131 175q-49 11 -81 41q-43 41 -43 110q0 85 49 132q52 50 160 50h325v-508h-210v166h-18zM356 396h-44q-40 0 -59 -15q-21 -17 -21 -49q0 -27 18 -43q20 -17 68 -17h38v124z" horiz-adv-x="631" unicode="я" glyph-name="afii10097"/>
<glyph d="M83 581v125h195v-125h-195zM364 581v125h195v-125h-195zM404 147h206q-26 -84 -102 -128q-64 -37 -184 -37q-73 0 -127.5 13.5t-97.5 56.5q-69 69 -69 187q0 126 76 205q78 82 221 82q147 0 221 -75q32 -33 48.5 -79.5t19 -75.5t2.5 -72v-12h-373q-2 -48 19 -77 q22 -29 64 -29q32 0 50 10q20 11 26 31zM246 312h156q0 44 -22 68q-19 21 -52 21q-38 0 -57 -22q-23 -24 -25 -67z" horiz-adv-x="648" unicode="ё" glyph-name="afii10071"/>
<glyph d="M284 700v-63h221v-100h-221v-100q26 25 62 42q42 19 99 19q89 0 135 -47q37 -38 48 -103t11 -162q0 -73 -3 -119t-21.5 -105t-53.5 -92q-63 -60 -190 -60h-38v129h8q32 0 51 17q16 14 24 50.5t9 65.5t1 92q0 87 -3.5 123t-14.5 53q-15 23 -42 23q-37 0 -60 -29 q-22 -29 -22 -78v-256h-210v537h-94v100h94v63h210z" horiz-adv-x="699" unicode="ђ" glyph-name="afii10099"/>
<glyph d="M279 371v-371h-214v508h432v-137h-218zM247 700h189l-112 -132h-143z" horiz-adv-x="502" unicode="ѓ" glyph-name="afii10100"/>
<glyph d="M373 204h-144q2 -42 25 -68q24 -26 72 -26q43 0 69 22q22 19 29 51h186q-18 -91 -85 -145q-71 -57 -204 -57q-147 0 -219 71q-72 72 -72 200q0 123 76 197q79 76 223 76q124 0 196 -53q68 -52 80 -142h-181q-5 34 -31 52q-24 18 -67 18q-44 0 -70 -27q-24 -26 -27 -66 h144v-103z" horiz-adv-x="640" unicode="є" glyph-name="afii10101"/>
<glyph d="M25 167h205q-6 -33 15 -54q17 -17 51 -17q32 0 51 11q22 13 22 35q0 25 -25 37q-17 8 -67 15l-52 8q-100 15 -139 49q-42 38 -42 99q0 87 70 134q64 43 187 43q117 0 173 -38q64 -44 69 -126h-179q2 28 -15 45q-16 16 -52 16q-29 0 -45 -12q-18 -13 -18 -34t22 -31 q18 -10 63 -16l70 -10q91 -13 132 -52q43 -41 43 -108q0 -88 -68 -136q-62 -44 -200 -44q-79 0 -132.5 13t-89.5 50q-48 50 -49 123z" horiz-adv-x="589" unicode="ѕ" glyph-name="afii10102"/>
<glyph d="M65 508h210v-508h-210v508zM65 568v132h210v-132h-210z" horiz-adv-x="340" unicode="і" glyph-name="afii10103"/>
<glyph d="M65 508h210v-508h-210v508zM9 581v119h143v-119h-143zM189 581v119h142v-119h-142z" horiz-adv-x="340" unicode="ї" glyph-name="afii10104"/>
<glyph d="M72 561v139h212v-139h-212zM72 508h211v-507q0 -100 -44 -144q-45 -45 -147 -45q-64 0 -112 10v142q16 -3 32 -3q32 0 45 13q15 15 15 55v479z" horiz-adv-x="349" unicode="ј" glyph-name="afii10105"/>
<glyph d="M612 334h108q35 0 59 -2.5t55 -14t52 -33.5q43 -43 43 -119q0 -78 -45 -121q-46 -44 -147 -44h-329v370h-103v-95q0 -87 -11 -142.5t-49 -92.5q-51 -49 -150 -49q-51 0 -95 9v139q15 -3 31 -3q38 0 55 17q25 24 25 139v216h501v-174zM612 225v-120h52q32 0 49 15t17 45 t-15 45q-14 15 -47 15h-56z" horiz-adv-x="934" unicode="љ" glyph-name="afii10106"/>
<glyph d="M408 508h210v-174h108q118 0 166 -46q43 -43 43 -119q0 -80 -45 -123q-47 -46 -147 -46h-335v220h-133v-220h-210v508h210v-174h133v174zM618 220v-115h52q34 0 50 15t16 44q0 28 -14 42q-15 14 -48 14h-56z" horiz-adv-x="940" unicode="њ" glyph-name="afii10107"/>
<glyph d="M284 700v-65h236v-95h-236v-100q65 58 160 58q87 0 136 -47q54 -51 54 -171v-280h-210v262q0 52 -16 75q-17 26 -49 26q-35 0 -55 -29t-20 -74v-260h-210v540h-94v95h94v65h210z" horiz-adv-x="694" unicode="ћ" glyph-name="afii10108"/>
<glyph d="M275 298h2l140 210h215l-181 -241l196 -267h-238l-132 221h-2v-221h-210v508h210v-210zM322 700h189l-112 -132h-143z" horiz-adv-x="637" unicode="ќ" glyph-name="afii10109"/>
<glyph d="M62 -173v135q26 -10 56 -10q33 0 50 13q20 14 26 43l5 22l-199 478h212l101 -317l80 317h195l-179 -500q-32 -91 -58 -125q-9 -10 -18 -19q-54 -50 -156 -50q-57 0 -115 13zM369 702h122q-4 -53 -40 -89q-51 -51 -158 -51t-158 51q-36 36 -40 89h122q-1 -26 18 -44 q19 -17 58 -17t58 17t18 44z" horiz-adv-x="588" unicode="ў" glyph-name="afii10110"/>
<glyph d="M275 139h135v369h210v-508h-195v-170h-155v170h-205v508h210v-369z" horiz-adv-x="685" unicode="џ" glyph-name="afii10193"/>
<glyph d="M132 520h-132v130h132v50h216v-50h180v-130h-180v-79h147q141 0 209 -66q61 -59 61 -159q0 -115 -72 -171q-60 -45 -196 -45h-365v520zM348 287v-125h122q37 0 54 17q15 15 15 47q0 28 -16 44q-17 17 -61 17h-114z" horiz-adv-x="775" unicode="Ѣ" glyph-name="afii10146"/>
<glyph d="M132 508v192h210v-192h150v-116h-150v-63h113q105 0 155 -39q54 -43 54 -124q0 -84 -49 -127q-45 -39 -143 -39h-340v392h-132v116h132zM342 219v-111h52q33 0 50 14q16 14 16 42t-15 42q-15 13 -47 13h-56z" horiz-adv-x="669" unicode="ѣ" glyph-name="afii10194"/>
<glyph d="M281 425h255q-3 52 -36 89q-33 36 -90 36q-56 0 -90 -35q-32 -34 -39 -90zM537 281h-260q2 -57 33 -93q33 -38 95 -38q59 0 92 35q34 36 40 96zM40 348q0 170 99 273q95 98 268 98q183 0 278 -99q93 -97 93 -266q0 -175 -91 -273q-93 -100 -275 -100q-187 0 -282 102 q-90 96 -90 265z" unicode="Ѳ" glyph-name="afii10147"/>
<glyph d="M244 310h166q-2 42 -20 67q-20 27 -61 27q-39 0 -61 -27q-21 -26 -24 -67zM412 207h-170q0 -48 22 -76q22 -27 59 -27q40 0 63 27q24 28 26 76zM624 251q0 -121 -77 -196q-76 -73 -231 -73q-142 0 -211 62q-75 69 -75 196q0 125 76 205q77 81 223 81q143 0 219 -73 t76 -202z" horiz-adv-x="654" unicode="ѳ" glyph-name="afii10195"/>
<glyph d="M350 256l8 52l53 206q25 100 70 144q57 55 166 55q64 0 119 -13v-161q-29 10 -56 10q-43 0 -65 -20q-24 -20 -36 -64l-141 -465h-233l-235 700h235l101 -392l9 -52h5z" horiz-adv-x="746" unicode="Ѵ" glyph-name="afii10148"/>
<glyph d="M-10 508h198l84 -309l43 156q22 80 56 114q48 48 140 48q42 0 92 -9v-127q-20 5 -39 5q-35 0 -55 -18q-18 -16 -32 -58l-107 -310h-200z" horiz-adv-x="588" unicode="ѵ" glyph-name="afii10196"/>
<glyph d="M303 508v-508h-218v700h355l1 158h160l12 -350h-310z" horiz-adv-x="623" unicode="Ґ" glyph-name="afii10050"/>
<glyph d="M279 371v-371h-214v508h303v133h135l14 -270h-238z" horiz-adv-x="522" unicode="ґ" glyph-name="afii10098"/>
<glyph d="M303 275v-275h-218v700h218v-241h195v241h218v-508h97l-10 -338h-184v146h-121v275h-195z" horiz-adv-x="813" unicode="Ң" glyph-name="cyrEndesc"/>
<glyph d="M275 199v-199h-210v508h210v-177h133v177h210v-369h82l-12 -268h-155v129h-125v199h-133z" horiz-adv-x="700" unicode="ң" glyph-name="cyrendesc"/>
<glyph d="M342 416l118 284h235l-244 -455v-245h-218v245l-243 455h235z" horiz-adv-x="685" unicode="Ү" glyph-name="cyrstraightU"/>
<glyph d="M370 508h195l-180 -487v-234h-210v234l-180 487h195l90 -343z" horiz-adv-x="560" unicode="ү" glyph-name="cyrstraightu"/>
<glyph d="M716 0h-219v153q0 67 -22 90q-25 26 -89 26q-11 0 -83 -6v-263h-218v700h218v-277q84 10 143 10q107 0 173 -31q60 -29 78.5 -75t18.5 -119v-208z" horiz-adv-x="776" unicode="Һ" glyph-name="cyrH"/>
<glyph d="M275 700v-235q65 58 160 58q87 0 136 -47q54 -51 54 -171v-305h-210v272q0 52 -16 75q-17 26 -49 26q-35 0 -55 -29t-20 -74v-270h-210v700h210z" horiz-adv-x="690" unicode="һ" glyph-name="cyrh"/>
<glyph d="M414 0v298l-173 -298h-251l254 379l-242 321h245l167 -262v262h196v-262l167 262h245l-241 -321l253 -379h-251l-173 298v-298h-196zM585 907h141q-3 -61 -42 -103q-50 -51 -172 -51t-172 51q-39 42 -42 103h141q0 -30 15 -45q16 -17 58 -17t58 17q15 15 15 45z" horiz-adv-x="1024" unicode="Ӂ" glyph-name="cyrZhecyrbreve"/>
<glyph d="M329 508h190v-197l125 197h201l-176 -241l190 -267h-215l-125 210v-210h-190v210l-124 -210h-215l187 265l-174 243h202l124 -197v197zM491 731h145q0 -66 -45 -111q-54 -54 -166 -54q-115 0 -169 54q-44 44 -44 111h145q-2 -42 21 -62q16 -13 46 -13t46 13q23 20 21 62z " horiz-adv-x="849" unicode="ӂ" glyph-name="cyrzhecyrbreve"/>
<glyph d="M245 99l-32 -99h-226l259 700h215l259 -700h-226l-32 99h-217zM288 243h131l-66 210zM431 900h122q-4 -53 -40 -89q-51 -51 -158 -51t-158 51q-36 36 -40 89h122q-1 -26 18 -44q19 -17 58 -17t58 17t18 44z" horiz-adv-x="710" unicode="Ӑ" glyph-name="cyrAcyrbreve"/>
<glyph d="M249 335h-197q6 71 51 118q66 68 214 68q150 0 210 -59q52 -50 52 -145v-229q0 -45 7 -58q8 -16 28 -23v-7h-226l-13 55h-2q-26 -31 -62 -49q-47 -24 -114 -24q-86 0 -128 39q-43 41 -43 110q0 61 38 99q44 44 137 55l60 7q74 9 87 17q3 2 6 5q15 15 15 38q0 22 -13 33 q-15 14 -44 14q-31 0 -47 -16q-18 -18 -16 -48zM369 217v13q-23 -17 -60 -22q-45 -8 -60 -24q-12 -13 -12 -32q0 -20 13 -33t35 -13q35 0 57 23q27 28 27 88zM393 702h122q-4 -53 -40 -89q-51 -51 -158 -51t-158 51q-36 36 -40 89h122q-1 -26 18 -44q19 -17 58 -17t58 17 t18 44z" horiz-adv-x="634" unicode="ӑ" glyph-name="cyracyrbreve"/>
<glyph d="M245 99l-32 -99h-226l259 700h215l259 -700h-226l-32 99h-217zM288 243h131l-66 210zM134 779v129h172v-129h-172zM403 779v129h172v-129h-172z" horiz-adv-x="710" unicode="Ӓ" glyph-name="cyrAdieresis"/>
<glyph d="M249 335h-197q6 71 51 118q66 68 214 68q150 0 210 -59q52 -50 52 -145v-229q0 -45 7 -58q8 -16 28 -23v-7h-226l-13 55h-2q-26 -31 -62 -49q-47 -24 -114 -24q-86 0 -128 39q-43 41 -43 110q0 61 38 99q44 44 137 55l60 7q74 9 87 17q3 2 6 5q15 15 15 38q0 22 -13 33 q-15 14 -44 14q-31 0 -47 -16q-18 -18 -16 -48zM369 217v13q-23 -17 -60 -22q-45 -8 -60 -24q-12 -13 -12 -32q0 -20 13 -33t35 -13q35 0 57 23q27 28 27 88zM96 581v129h172v-129h-172zM365 581v129h172v-129h-172z" horiz-adv-x="634" unicode="ӓ" glyph-name="cyradieresis"/>
<glyph d="M265 99l-60 -99h-230l426 700h681v-185h-363v-79h311v-165h-311v-86h371v-185h-585v99h-240zM345 243h160v232h-25z" horiz-adv-x="1135" unicode="Ӕ" glyph-name="cyrAE"/>
<glyph d="M738 147h206q-22 -87 -100 -131q-60 -34 -167 -34q-93 0 -145 26q-47 23 -74 72q-32 -50 -79 -74q-46 -24 -140 -24q-116 0 -165 40q-48 39 -48 110q0 69 49 110q40 34 126 43l79 9q52 6 71 19q18 13 18 37q0 23 -17 37q-16 12 -45 12q-32 0 -48 -16t-18 -48h-189 q5 74 55 124q62 62 188 62q71 0 113.5 -16.5t73.5 -50.5q62 72 186 72q131 0 204 -71q80 -78 80 -231v-12h-373q0 -53 26 -82q23 -24 62 -24q29 0 48 11q19 12 23 30zM365 222q-23 -16 -54 -20q-51 -8 -61 -15q-20 -14 -20 -41q0 -21 15 -34q14 -12 43 -12q32 0 52 22 q25 29 25 100zM580 312h156q0 44 -23 69q-19 20 -52 20q-38 0 -57 -21q-22 -24 -24 -68z" horiz-adv-x="982" unicode="ӕ" glyph-name="cyrae"/>
<glyph d="M303 436h311v-165h-311v-86h371v-185h-589v700h581v-185h-363v-79zM459 900h122q-4 -53 -40 -89q-51 -51 -158 -51t-158 51q-36 36 -40 89h122q-1 -26 18 -44q19 -17 58 -17t58 17t18 44z" horiz-adv-x="719" unicode="Ӗ" glyph-name="cyrIecyrbreve"/>
<glyph d="M404 147h206q-27 -84 -101 -127q-66 -38 -185 -38q-73 0 -127.5 13.5t-97.5 56.5q-69 69 -69 187q0 126 76 205q78 82 220 82q149 0 222 -75q32 -33 48.5 -79.5t19 -75.5t2.5 -72v-12h-373q-2 -48 19 -77q22 -29 64 -29q32 0 50 10q20 11 26 31zM246 312h156q0 44 -22 68 q-19 21 -52 21q-38 0 -57 -22q-23 -24 -25 -67zM400 702h122q-4 -53 -40 -89q-51 -51 -158 -51t-158 51q-36 36 -40 89h122q-1 -26 18 -44q19 -17 58 -17t58 17t18 44z" horiz-adv-x="648" unicode="ӗ" glyph-name="cyriecyrbreve"/>
<glyph d="M414 0v298l-173 -298h-251l254 379l-242 321h245l167 -262v262h196v-262l167 262h245l-241 -321l253 -379h-251l-173 298v-298h-196zM291 779v129h172v-129h-172zM560 779v129h172v-129h-172z" horiz-adv-x="1024" unicode="Ӝ" glyph-name="cyrZhedieresis"/>
<glyph d="M329 508h190v-197l125 197h201l-176 -241l190 -267h-215l-125 210v-210h-190v210l-124 -210h-215l187 265l-174 243h202l124 -197v197zM200 581v129h172v-129h-172zM469 581v129h172v-129h-172z" horiz-adv-x="849" unicode="ӝ" glyph-name="cyrzhedieresis"/>
<glyph d="M35 249h211q1 -49 33 -81q32 -30 95 -30q59 0 86 18q34 21 34 64q0 34 -33 50q-29 13 -84 13h-62v138h70q43 0 66 15q23 17 23 50q0 35 -28 57q-26 20 -75 20q-54 0 -81 -29q-24 -26 -22 -74h-212q-1 108 63 172q83 84 268 84q191 0 269 -75q53 -51 53 -127 q0 -64 -36 -103q-32 -35 -82 -41v-6q57 -10 93 -48q42 -42 42 -110q0 -107 -82 -164q-52 -37 -116 -48.5t-147 -11.5q-50 0 -85.5 3t-83.5 17t-82 41q-91 70 -95 206zM162 779v129h172v-129h-172zM431 779v129h172v-129h-172z" horiz-adv-x="761" unicode="Ӟ" glyph-name="cyrZedieresis"/>
<glyph d="M25 181h190q0 -33 19 -54q21 -23 69 -23q44 0 62 17q16 16 16 37q0 24 -19 37q-16 12 -53 12h-46v103h33q40 0 55 12t15 35t-19 37q-19 13 -52 13q-38 0 -58 -20q-19 -22 -18 -58h-183q4 78 53 129q66 69 220 69q156 0 216 -55q43 -38 43 -95q0 -47 -28 -75 q-25 -25 -63 -30v-6q51 -7 80 -36q32 -30 32 -80q0 -37 -19.5 -72.5t-58.5 -58.5q-64 -37 -192 -37q-51 0 -87 3t-82 18.5t-74 44.5q-52 54 -51 133zM86 581v129h172v-129h-172zM355 581v129h172v-129h-172z" horiz-adv-x="614" unicode="ӟ" glyph-name="cyrzedieresis"/>
<glyph d="M297 325l211 375h212v-700h-212v379l-211 -379h-212v700h212v-375zM199 779v96h406v-96h-406z" horiz-adv-x="805" unicode="Ӣ" glyph-name="cyrImacron"/>
<glyph d="M265 222l179 286h208v-508h-200v260l4 27h-4l-179 -287h-208v508h200v-260l-4 -26h4zM155 590v96h406v-96h-406z" horiz-adv-x="717" unicode="ӣ" glyph-name="cyrimacron"/>
<glyph d="M297 325l211 375h212v-700h-212v379l-211 -379h-212v700h212v-375zM182 779v129h172v-129h-172zM451 779v129h172v-129h-172z" horiz-adv-x="805" unicode="Ӥ" glyph-name="cyrIdieresis"/>
<glyph d="M265 222l179 286h208v-508h-200v260l4 27h-4l-179 -287h-208v508h200v-260l-4 -26h4zM138 581v129h172v-129h-172zM407 581v129h172v-129h-172z" horiz-adv-x="717" unicode="ӥ" glyph-name="cyridieresis"/>
<glyph d="M40 348q0 170 99 273q95 98 267 98q182 0 279 -99q93 -97 93 -266q0 -175 -91 -273q-93 -100 -275 -100q-187 0 -282 102q-90 96 -90 265zM272 350q0 -101 44 -148q36 -37 93 -37q61 0 94 37q43 47 43 148q0 103 -43 148q-36 37 -90 37q-59 0 -95 -37q-46 -48 -46 -148z M188 779v129h172v-129h-172zM457 779v129h172v-129h-172z" unicode="Ӧ" glyph-name="cyrOdieresis"/>
<glyph d="M327 394q-28 0 -48 -20q-33 -34 -33 -120q0 -87 34 -121q19 -19 47 -19t48 20q33 34 33 120t-33 120q-20 20 -48 20zM624 255q0 -127 -76 -199q-77 -74 -221 -74t-221 74q-76 73 -76 199q0 124 77 197q76 74 221 74q144 0 221 -74q75 -72 75 -197zM106 581v129h172v-129 h-172zM375 581v129h172v-129h-172z" horiz-adv-x="654" unicode="ӧ" glyph-name="cyrodieresis"/>
<glyph d="M281 425h255q-3 52 -36 89q-33 36 -90 36q-56 0 -90 -35q-32 -34 -39 -90zM537 281h-260q2 -57 33 -93q33 -38 95 -38q59 0 92 35q34 36 40 96zM40 348q0 170 99 273q95 98 268 98q183 0 278 -99q93 -97 93 -266q0 -175 -91 -273q-93 -100 -275 -100q-187 0 -282 102 q-90 96 -90 265z" unicode="Ө" glyph-name="cyrObar"/>
<glyph d="M244 310h166q-2 42 -20 67q-20 27 -61 27q-39 0 -61 -27q-21 -26 -24 -67zM412 207h-170q0 -48 22 -76q22 -27 59 -27q40 0 63 27q24 28 26 76zM624 251q0 -121 -77 -196q-76 -73 -231 -73q-142 0 -211 62q-75 69 -75 196q0 125 76 205q77 81 223 81q143 0 219 -73 t76 -202z" horiz-adv-x="654" unicode="ө" glyph-name="cyrobar"/>
<glyph d="M281 425h255q-3 52 -36 89q-33 36 -90 36q-56 0 -90 -35q-32 -34 -39 -90zM537 281h-260q2 -57 33 -93q33 -38 95 -38q59 0 92 35q34 36 40 96zM40 348q0 170 99 273q95 98 268 98q183 0 278 -99q93 -97 93 -266q0 -175 -91 -273q-93 -100 -275 -100q-187 0 -282 102 q-90 96 -90 265zM188 779v129h172v-129h-172zM457 779v129h172v-129h-172z" unicode="Ӫ" glyph-name="cyrObardieresis"/>
<glyph d="M244 310h166q-2 42 -20 67q-20 27 -61 27q-39 0 -61 -27q-21 -26 -24 -67zM412 207h-170q0 -48 22 -76q22 -27 59 -27q40 0 63 27q24 28 26 76zM624 251q0 -121 -77 -196q-76 -73 -231 -73q-142 0 -211 62q-75 69 -75 196q0 125 76 205q77 81 223 81q143 0 219 -73 t76 -202zM106 581v129h172v-129h-172zM375 581v129h172v-129h-172z" horiz-adv-x="654" unicode="ӫ" glyph-name="cyrobardieresis"/>
<glyph d="M352 392l95 308h227l-221 -535q-38 -91 -91 -133q-25 -19 -53.5 -28.5t-45.5 -11t-46 -1.5q-81 0 -136 20v174q32 -17 74 -17q61 0 80 49l-235 483h239zM140 779v96h406v-96h-406z" horiz-adv-x="661" unicode="Ӯ" glyph-name="cyrUmacron"/>
<glyph d="M62 -173v135q26 -10 56 -10q33 0 50 13q20 14 26 43l5 22l-199 478h212l101 -317l80 317h195l-179 -500q-32 -91 -58 -125q-9 -10 -18 -19q-54 -50 -156 -50q-57 0 -115 13zM90 590v96h406v-96h-406z" horiz-adv-x="588" unicode="ӯ" glyph-name="cyrumacron"/>
<glyph d="M352 392l95 308h227l-221 -535q-38 -91 -91 -133q-25 -19 -53.5 -28.5t-45.5 -11t-46 -1.5q-81 0 -136 20v174q32 -17 74 -17q61 0 80 49l-235 483h239zM112 779v129h172v-129h-172zM381 779v129h172v-129h-172z" horiz-adv-x="661" unicode="Ӱ" glyph-name="cyrUdieresis"/>
<glyph d="M62 -173v135q26 -10 56 -10q33 0 50 13q20 14 26 43l5 22l-199 478h212l101 -317l80 317h195l-179 -500q-32 -91 -58 -125q-9 -10 -18 -19q-54 -50 -156 -50q-57 0 -115 13zM72 581v129h172v-129h-172zM341 581v129h172v-129h-172z" horiz-adv-x="588" unicode="ӱ" glyph-name="cyrudieresis"/>
<glyph d="M352 392l95 308h227l-221 -535q-38 -91 -91 -133q-25 -19 -53.5 -28.5t-45.5 -11t-46 -1.5q-81 0 -136 20v174q32 -17 74 -17q61 0 80 49l-235 483h239zM192 908h187l-97 -132h-147zM425 908h188l-98 -132h-147z" horiz-adv-x="661" unicode="Ӳ" glyph-name="cyrUdblacute"/>
<glyph d="M62 -173v135q26 -10 56 -10q33 0 50 13q20 14 26 43l5 22l-199 478h212l101 -317l80 317h195l-179 -500q-32 -91 -58 -125q-9 -10 -18 -19q-54 -50 -156 -50q-57 0 -115 13zM131 710h187l-97 -132h-147zM364 710h188l-98 -132h-147z" horiz-adv-x="588" unicode="ӳ" glyph-name="cyrudblacute"/>
<glyph d="M35 700h209v-162q0 -67 23 -90q24 -25 86 -25q38 0 85 7v270h218v-700h-218v271q-84 -8 -129 -8q-139 0 -198 42q-76 51 -76 182v213zM125 779v129h172v-129h-172zM394 779v129h172v-129h-172z" horiz-adv-x="741" unicode="Ӵ" glyph-name="cyrChedieresis"/>
<glyph d="M26 508h198v-133q0 -41 13 -56q17 -19 63 -19q24 0 45 4v204h210v-508h-210v183q-48 -7 -96 -7q-130 0 -181 49q-25 24 -33.5 56.5t-8.5 82.5v144zM75 581v129h172v-129h-172zM344 581v129h172v-129h-172z" horiz-adv-x="620" unicode="ӵ" glyph-name="cyrchedieresis"/>
<glyph d="M759 700h218v-700h-218v700zM302 700v-237h139q141 0 211 -70q60 -60 60 -163q0 -111 -61 -170q-62 -60 -209 -60h-357v700h217zM302 297v-125h114q42 0 61 18q16 15 16 46q0 30 -21 46q-20 15 -56 15h-114zM310 779v129h172v-129h-172zM579 779v129h172v-129h-172z" horiz-adv-x="1062" unicode="Ӹ" glyph-name="cyrYerudieresis"/>
<glyph d="M635 508h208v-508h-208v508zM275 508v-174h102q117 0 167 -47q45 -43 45 -119q0 -80 -45 -123q-47 -45 -147 -45h-332v508h210zM275 224v-117h52q34 0 51 14q18 15 18 47q0 27 -20 43q-17 13 -50 13h-51zM233 581v129h172v-129h-172zM502 581v129h172v-129h-172z" horiz-adv-x="908" unicode="ӹ" glyph-name="cyryerudieresis"/>
<glyph d="M53 310h566v-85h-566v85z" horiz-adv-x="672" unicode="–" glyph-name="endash"/>
<glyph d="M53 258v85h660v-85h-660z" horiz-adv-x="766" unicode="—" glyph-name="emdash"/>
<glyph d="M262 682v-180h-192v155q0 104 55 156q47 45 132 45h5v-91h-4q-52 0 -74 -23q-23 -25 -23 -62h101z" horiz-adv-x="332" unicode="‘" glyph-name="quoteleft"/>
<glyph d="M92 678v180h192v-155q0 -104 -55 -156q-47 -45 -132 -45h-5v91h4q52 0 74 23q23 25 23 62h-101z" horiz-adv-x="337" unicode="’" glyph-name="quoteright"/>
<glyph d="M70 14v180h192v-155q0 -104 -55 -156q-47 -45 -132 -45h-5v91h4q52 0 74 23q23 25 23 62h-101z" horiz-adv-x="332" unicode="‚" glyph-name="quotesinglbase"/>
<glyph d="M502 682v-180h-192v157q0 102 54 154q47 45 132 45h6v-91h-4q-52 0 -75 -23q-23 -25 -23 -62h102zM262 682v-180h-192v155q0 104 55 156q47 45 132 45h5v-91h-4q-52 0 -74 -23q-23 -25 -23 -62h101z" horiz-adv-x="572" unicode="“" glyph-name="quotedblleft"/>
<glyph d="M70 678v180h192v-157q0 -102 -54 -154q-47 -45 -132 -45h-6v91h4q52 0 75 23q23 25 23 62h-102zM310 678v180h192v-155q0 -104 -55 -156q-47 -45 -132 -45h-5v91h4q52 0 74 23q23 25 23 62h-101z" horiz-adv-x="572" unicode="”" glyph-name="quotedblright"/>
<glyph d="M70 0v180h192v-157q0 -102 -54 -154q-47 -45 -132 -45h-6v91h4q52 0 75 23q23 25 23 62h-102zM310 0v180h192v-155q0 -104 -55 -156q-47 -45 -132 -45h-5v91h4q52 0 74 23q23 25 23 62h-101z" horiz-adv-x="572" unicode="„" glyph-name="quotedblbase"/>
<glyph d="M232 700h198v-182h206v-186h-206v-517h-198v517h-207v186h207v182z" horiz-adv-x="661" unicode="†" glyph-name="dagger"/>
<glyph d="M232 700h198v-182h206v-182h-206v-143h206v-182h-206v-196h-198v196h-207v182h207v143h-207v182h207v182z" horiz-adv-x="661" unicode="‡" glyph-name="daggerdbl"/>
<glyph d="M155 365q0 83 58 141.5t140 58.5q83 0 140.5 -58.5t57.5 -141.5q0 -81 -57.5 -139.5t-140.5 -58.5t-140.5 58t-57.5 140z" horiz-adv-x="711" unicode="•" glyph-name="bullet"/>
<glyph d="M70 0v206h213v-206h-213zM453 0v206h213v-206h-213zM836 0v206h213v-206h-213z" horiz-adv-x="1119" unicode="…" glyph-name="ellipsis"/>
<glyph d="M400 522q0 -96 -59 -151q-51 -49 -133 -49q-83 0 -134 48q-59 55 -59 152q0 94 59 151q53 49 134 49q82 0 133 -49q59 -55 59 -151zM206 607q-28 0 -43 -22q-15 -20 -15 -63q0 -44 17 -65q15 -20 41 -20t41 20q17 23 17 65q0 45 -16 65q-15 20 -42 20zM161 0l472 713h101 l-467 -713h-106zM870 178q0 -96 -59 -151q-51 -49 -133 -49q-83 0 -134 48q-59 55 -59 152q0 94 59 151q53 49 134 49q82 0 133 -49q59 -55 59 -151zM676 263q-28 0 -43 -22q-15 -20 -15 -63q0 -44 17 -65q15 -20 41 -20t41 20q17 23 17 65q0 45 -16 65q-15 20 -42 20z M1310 178q0 -96 -59 -151q-51 -49 -133 -49q-83 0 -134 48q-59 55 -59 152q0 94 59 151q53 49 134 49q82 0 133 -49q59 -55 59 -151zM1116 263q-28 0 -43 -22q-15 -20 -15 -63q0 -44 17 -65q15 -20 41 -20t41 20q17 23 17 65q0 45 -16 65q-15 20 -42 20z" horiz-adv-x="1325" unicode="‰" glyph-name="perthousand"/>
<glyph d="M40 356l150 139v-177l-65 -53l65 -55v-179l-150 140v185z" horiz-adv-x="270" unicode="‹" glyph-name="guilsinglleft"/>
<glyph d="M231 356v-185l-151 -140v177l66 54l-66 55v179z" horiz-adv-x="271" unicode="›" glyph-name="guilsinglright"/>
<glyph d="M35 0l600 700h108l-600 -700h-108z" horiz-adv-x="788" unicode="⁄" glyph-name="fraction"/>
<glyph d="M650 222v-186q-40 -23 -84 -36q-66 -20 -138 -20q-168 0 -255 81q-78 72 -94 193h-99l40 78h54q-4 25 0 46h-91l40 78h58q24 113 104 181q95 82 269 82q143 0 236 -79l-94 -149q-59 61 -148 61q-62 0 -98 -31q-30 -24 -39 -65h263l-40 -78h-238q-5 -23 0 -46h220l-40 -78 h-172q10 -48 49 -76q42 -29 104 -29q51 0 108 24q44 18 85 49z" horiz-adv-x="720" unicode="€" glyph-name="Euro"/>
<glyph d="M808 0v137h390v-137h-390zM1006 608q92 0 143 -51q55 -55 55 -146q0 -94 -57 -151q-53 -53 -148 -53q-92 0 -145 53t-53 143q0 102 63 159q52 46 142 46zM1005 506q-27 0 -44 -18q-25 -27 -25 -78q0 -52 21 -79q17 -22 47 -22q28 0 47 27q18 27 18 75q0 54 -22 78 q-15 17 -42 17zM303 392h-5l5 -53v-339h-218v700h218l214 -392h5l-5 53v339h218v-700h-218z" horiz-adv-x="1264" unicode="№" glyph-name="afii61352"/>
<glyph d="M10 350q0 145 103 248q103 102 247 102t247 -102q103 -103 103 -248t-103 -248q-102 -102 -247 -102q-144 0 -247 103t-103 247zM90 350q0 -113 78 -191q79 -79 192 -79t192 80q78 79 78 190q0 113 -81 193q-78 77 -189 77q-113 0 -192 -80q-78 -79 -78 -190zM228 522 h172q68 0 102 -33q31 -30 31 -89q0 -58 -32 -89q-31 -30 -101 -30h-67v-99h-105v340zM333 430v-68h51q21 0 31 6q12 8 12 27q0 18 -8 26q-8 9 -35 9h-51z" horiz-adv-x="720" unicode="℗" glyph-name="published"/>
<glyph d="M135 606h-115v94h376v-97h-114v-255h-147v258zM658 348l-73 217h-4l4 -22v-195h-133v352h182l68 -221h3l68 221h182v-352h-133v195l4 22h-4l-72 -217h-92z" horiz-adv-x="1010" unicode="™" glyph-name="trademark"/>
<glyph d="M235 680l31 90q76 -5 157 -31t135 -80q86 -86 86 -231q0 -93 -31.5 -194.5t-92.5 -164.5q-53 -54 -111 -71t-130 -17q-127 0 -193 61q-66 60 -66 169q0 127 85 210q82 81 218 81q85 0 138 -33q47 -30 64 -80h8v7q0 60 -12 103t-54 86q-75 76 -232 95zM347 374 q-44 0 -75 -34q-22 -25 -37 -69.5t-15 -86.5q0 -35 15 -53q18 -22 49 -22q36 0 65 26q27 25 45 74.5t18 88.5t-19 58q-18 18 -46 18z" horiz-adv-x="664" unicode="∂" glyph-name="partialdiff"/>
<glyph d="M299 516v-701h-214v701h-55v184h712v-184h-55v-701h-214v701h-174z" horiz-adv-x="772" unicode="∏" glyph-name="product"/>
<glyph d="M10 700h581v-185h-363l210 -250l-220 -287h381v-185h-589v170l234 302l-234 270v165z" horiz-adv-x="604" unicode="∑" glyph-name="summation"/>
<glyph d="M53 390h566v-85h-566v85z" horiz-adv-x="675" unicode="−" glyph-name="minus"/>
<glyph d="M0 -185l367 885h85l-367 -885h-85z" horiz-adv-x="452" unicode="∕" glyph-name="division"/>
<glyph d="M286 515l114 -383l116 717h229v-91h-133l-152 -858h-136l-168 524h-136v91h266z" horiz-adv-x="765" unicode="√" glyph-name="radical"/>
<glyph d="M486 287q-46 -58 -89 -87q-63 -43 -135 -43q-91 0 -144 58q-48 53 -48 129q0 89 57 145q58 57 155 57q80 0 146 -41q58 -35 98 -94q44 58 92 92q63 43 135 43q91 0 144 -58q48 -53 48 -129q0 -89 -57 -145q-58 -57 -155 -57q-82 0 -146 41q-52 33 -101 89zM444 336 q-44 69 -89 105q-44 35 -103 35q-57 0 -89 -36q-30 -33 -30 -91q0 -56 32 -88q34 -34 96 -34q58 0 106 33q42 29 77 76zM566 366q47 -72 90 -104q46 -35 103 -35t89 36q30 33 30 91q0 56 -32 88q-34 34 -96 34q-58 0 -106 -33q-43 -28 -78 -77z" horiz-adv-x="1015" unicode="∞" glyph-name="infinity"/>
<glyph d="M172 130l-85 207q-47 113 -47 197q0 82 42 130q51 57 143 57q64 0 106 -27q44 -30 44 -74q0 -23 -16 -38q-15 -14 -40 -14q-29 0 -44 15q-5 5 -7.5 10t-3.5 8.5t-2 10t-2 9.5q-8 32 -39 32q-18 0 -31 -14q-15 -16 -15 -45q0 -36 22 -95q1 -2 5 -12.5t15 -37.5t26 -64 l85 -207q47 -118 47 -197q0 -82 -42 -130q-51 -57 -143 -57q-64 0 -106 27q-44 30 -44 74q0 23 16 38q15 14 40 14q29 0 44 -15q5 -5 7.5 -10t3.5 -8.5t2 -10t2 -9.5q8 -32 39 -32q18 0 31 14q15 16 15 45q0 36 -22 95q-1 2 -5 12.5t-15 37.5t-26 64z" horiz-adv-x="415" unicode="∫" glyph-name="integral"/>
<glyph d="M125 356l-75 46q24 54 58 89q44 45 106 45q55 0 112 -33l48 -28q48 -28 80 -28q31 0 49 20q7 7 24 37l74 -45q-20 -59 -55 -96q-39 -39 -95 -39q-53 0 -113 33l-57 32q-44 24 -74 24q-34 0 -55 -21q-14 -14 -27 -36zM135 145l-75 46q29 57 57 87q45 47 110 47 q45 0 103 -31l64 -36q39 -22 66 -22q29 0 48 17q14 13 29 40l74 -45q-23 -64 -59 -100q-36 -35 -93 -35q-51 0 -102 28l-73 41q-36 20 -68 20t-54 -20q-17 -17 -27 -37z" horiz-adv-x="661" unicode="≈" glyph-name="approxequal"/>
<glyph d="M50 462h295l46 110h85l-46 -110h186v-85h-221l-40 -95h261v-85h-296l-46 -110h-85l46 110h-185v85h220l40 95h-260v85z" horiz-adv-x="666" unicode="≠" glyph-name="notequal"/>
<glyph d="M41 178l41 75l506 -293l-41 -75zM142 413l456 -255l-41 -80l-506 283v104l506 283l41 -80z" horiz-adv-x="658" unicode="≤" glyph-name="lessequal"/>
<glyph d="M617 178l-506 -293l-41 75l506 293zM516 413l-456 255l41 80l506 -283v-104l-506 -283l-41 80z" horiz-adv-x="658" unicode="≥" glyph-name="greaterequal"/>
<glyph d="M431 350l-190 -350l-191 350l191 350zM321 350l-80 165l-80 -165l82 -165z" horiz-adv-x="481" unicode="◊" glyph-name="lozenge"/>
<glyph d="M40 605q0 51 36.5 87.5t87.5 36.5t87.5 -36.5t36.5 -87.5t-36.5 -87.5t-87.5 -36.5t-87.5 36.5t-36.5 87.5zM110 605q0 -23 16 -38.5t38 -15.5t38 15.5t16 38.5t-16 38.5t-38 15.5t-38 -15.5t-16 -38.5z" horiz-adv-x="328" unicode="◦" glyph-name="openbullet"/>
<glyph d="M319 560v-10q-76 -44 -148 -44q-48 0 -87 15q14 82 55 151q184 69 401 69q227 0 413 -69q41 -69 55 -151q-39 -15 -87 -15q-72 0 -148 44v10q-6 23 -19 36t-64.5 24.5t-143.5 11.5t-143.5 -11.5t-64.5 -24.5t-19 -36zM319 521v-18q0 -51 -29 -81t-113 -30q-61 0 -77 19.5 t-16 65.5v21q52 -16 90 -16q78 0 145 39zM773 503v18q67 -39 145 -39q38 0 90 16v-21q0 -23 -2 -35.5t-11 -25.5t-28.5 -18.5t-51.5 -5.5q-84 0 -113 30t-29 81zM473 494h146v66h108v-91l126 -204q49 -79 49 -151v-114h-712v114q0 72 49 151l126 204v91h108v-66z" horiz-adv-x="1092" unicode="☆" glyph-name="star"/>
<glyph d="M-378 908h199l-112 -142h-153z" horiz-adv-x="2" unicode="" glyph-name="Accent"/>
<glyph d="M324 900h122q-4 -53 -40 -89q-51 -51 -158 -51t-158 51q-36 36 -40 89h122q-1 -26 18 -44q19 -17 58 -17t58 17t18 44z" horiz-adv-x="496" unicode="" glyph-name="Breve"/>
<glyph d="M37 -234l24 70q35 -10 63 -10q30 0 41 5q18 7 18 25q0 20 -23 26q-24 4 -68 4h-14l23 67q19 2 51 2q69 0 103 -20q42 -26 42 -77q0 -57 -43 -85q-33 -23 -102 -23q-74 0 -115 16z" horiz-adv-x="333" unicode="" glyph-name="Cedilla"/>
<glyph d="M287 849l-77 -83h-160l125 132h224l125 -132h-160z" horiz-adv-x="574" unicode="" glyph-name="Circumflex"/>
<glyph d="M70 -195v132h167v-103q0 -99 -45 -143q-42 -41 -122 -43v75q49 -2 73 23q17 18 17 55v4h-90z" horiz-adv-x="307" unicode="" glyph-name="Commaaccent"/>
<glyph d="M70 544v156h171v-127q0 -96 -41 -140q-43 -47 -130 -49v77q52 2 71 21t19 58v4h-90z" horiz-adv-x="311" unicode="" glyph-name="Apostrophe"/>
<glyph d="M50 779v129h172v-129h-172z" horiz-adv-x="272" unicode="" glyph-name="Dotaccent"/>
<glyph d="M50 872q0 47 32 79.5t79 32.5t79 -32.5t32 -79.5q0 -46 -32 -78.5t-79 -32.5t-79 32.5t-32 78.5zM115 872q0 -20 13.5 -33t32.5 -13t32.5 13t13.5 33q0 21 -14.5 34t-31.5 13t-31.5 -13t-14.5 -34z" horiz-adv-x="322" unicode="" glyph-name="Ring"/>
<glyph d="M380 901h106q-9 -67 -47 -105q-29 -30 -76 -30q-33 0 -79 21l-30 14q-32 16 -56 16q-18 0 -29 -11q-10 -12 -12 -29h-107q9 55 41 93q34 40 89 40q32 0 74 -19l26 -12q44 -20 61 -20q18 0 27 10q10 11 12 32z" horiz-adv-x="536" unicode="" glyph-name="Tilde"/>
<glyph d="M155 0h105q-34 -27 -52.5 -62t-18.5 -68q0 -28 14 -42q12 -13 34 -13q23 0 34 19q11 18 6 42h107q-1 -55 -36 -95q-40 -45 -120 -45q-73 0 -113 34q-40 35 -40 90q0 77 80 140z" horiz-adv-x="408" unicode="" glyph-name="Ogonek"/>
<glyph d="M733 700v-438q0 -63 -12.5 -109.5t-55.5 -89.5q-81 -82 -255 -82q-176 0 -257 82q-41 42 -54.5 89.5t-13.5 110.5v437h219v-428q0 -60 27 -88q26 -27 78 -27t78 27q27 28 27 88v428h219zM323 779v129h172v-129h-172z" unicode="" glyph-name="Udotaccent"/>
<glyph d="M429 0v56h-5q-65 -70 -173 -70q-87 0 -133 45q-53 52 -53 173v304h210v-273q0 -54 17 -77q16 -22 50 -22q33 0 51 25q21 28 21 77v270h210v-508h-195zM258 581v129h172v-129h-172z" horiz-adv-x="689" unicode="" glyph-name="udotaccent"/>
<glyph d="M245 99l-32 -99h-226l259 700h215l259 -700h-226l-32 99h-217zM288 243h131l-66 210zM226 -234l24 70q35 -10 63 -10q30 0 41 5q18 7 18 25q0 20 -23 26q-24 4 -68 4h-14l23 67q19 2 51 2q69 0 103 -20q42 -26 42 -77q0 -57 -43 -85q-33 -23 -102 -23q-74 0 -115 16z" horiz-adv-x="710" unicode="" glyph-name="Acedilla"/>
<glyph d="M249 335h-197q6 71 51 118q66 68 214 68q150 0 210 -59q52 -50 52 -145v-229q0 -45 7 -58q8 -16 28 -23v-7h-226l-13 55h-2q-26 -31 -62 -49q-47 -24 -114 -24q-86 0 -128 39q-43 41 -43 110q0 61 38 99q44 44 137 55l60 7q74 9 87 17q3 2 6 5q15 15 15 38q0 22 -13 33 q-15 14 -44 14q-31 0 -47 -16q-18 -18 -16 -48zM369 217v13q-23 -17 -60 -22q-45 -8 -60 -24q-12 -13 -12 -32q0 -20 13 -33t35 -13q35 0 57 23q27 28 27 88zM189 -234l24 70q35 -10 63 -10q30 0 41 5q18 7 18 25q0 20 -23 26q-24 4 -68 4h-14l23 67q19 2 51 2q69 0 103 -20 q42 -26 42 -77q0 -57 -43 -85q-33 -23 -102 -23q-74 0 -115 16z" horiz-adv-x="634" unicode="" glyph-name="acedilla"/>
<glyph d="M356 508h-302v192h575v-155l-340 -353h367v-192h-616v189zM237 872q0 47 32 79.5t79 32.5t79 -32.5t32 -79.5q0 -46 -32 -78.5t-79 -32.5t-79 32.5t-32 78.5zM302 872q0 -20 13 -33t33 -13t33 13t13 33q0 21 -14.5 34t-31.5 13t-31.5 -13t-14.5 -34z" horiz-adv-x="696" unicode="" glyph-name="Zring"/>
<glyph d="M47 370v138h457v-140l-264 -230l277 1v-139h-492v140l268 230h-246zM180 670q0 44 31 75t75 31t75 -31t31 -75t-31 -75t-75 -31t-75 31t-31 75zM242 670q0 -18 13 -31t31 -13t31 13t13 31t-13 31t-31 13t-31 -13t-13 -31z" horiz-adv-x="542" unicode="" glyph-name="zring"/>
<glyph d="M703 231h219q-3 -47 24 -76q26 -28 85 -28q40 0 62 15q26 17 26 50q0 32 -26 50q-22 15 -82 28l-70 14q-119 24 -173 74q-54 48 -54 132q0 104 82 169q76 59 215 59q148 0 218 -60q29 -25 49.5 -66t22.5 -92h-206q0 31 -16 48q-20 22 -68 22q-40 0 -60 -12 q-24 -15 -24 -41q0 -21 14 -34q3 -3 6 -5.5t7.5 -4.5t8.5 -3.5t10.5 -3.5t10.5 -3t12.5 -3t13.5 -3t15.5 -3.5t16.5 -3.5l68 -15q113 -24 163 -74q54 -54 54 -136q0 -47 -18.5 -94t-47.5 -76q-76 -77 -247 -77q-169 0 -245 79q-28 29 -46.5 75t-19.5 99zM30 231h219 q-3 -47 24 -76q26 -28 85 -28q40 0 62 15q26 17 26 50q0 32 -26 50q-22 15 -82 28l-70 14q-119 24 -173 74q-54 48 -54 132q0 104 82 169q76 59 215 59q148 0 218 -60q29 -25 49.5 -66t22.5 -92h-206q0 31 -16 48q-20 22 -68 22q-40 0 -60 -12q-24 -15 -24 -41q0 -21 14 -34 q3 -3 6 -5.5t7.5 -4.5t8.5 -3.5t10.5 -3.5t10.5 -3t12.5 -3t13.5 -3t15.5 -3.5t16.5 -3.5l68 -15q113 -24 163 -74q54 -54 54 -136q0 -47 -18.5 -94t-47.5 -76q-76 -77 -247 -77q-169 0 -245 79q-28 29 -46.5 75t-19.5 99z" horiz-adv-x="1354" unicode="" glyph-name="Germandbls"/>
<glyph d="M208 508h-198v192h614v-192h-198v-508h-218v508zM179 -234l24 70q35 -10 63 -10q30 0 41 5q18 7 18 25q0 20 -23 26q-24 4 -68 4h-14l23 67q19 2 51 2q69 0 103 -20q42 -26 42 -77q0 -57 -43 -85q-33 -23 -102 -23q-74 0 -115 16z" horiz-adv-x="634" unicode="" glyph-name="cyrTecedilla"/>
<glyph d="M169 371h-164v137h542v-139h-164v-369h-214v371zM146 -234l24 70q35 -10 63 -10q30 0 41 5q18 7 18 25q0 20 -23 26q-24 4 -68 4h-14l23 67q19 2 51 2q69 0 103 -20q42 -26 42 -77q0 -57 -43 -85q-33 -23 -102 -23q-74 0 -115 16z" horiz-adv-x="552" unicode="" glyph-name="cyrtecedilla"/>
<glyph d="M526 258h213q-11 -122 -87 -197q-82 -81 -259 -81q-167 0 -252 80q-101 95 -101 283q0 182 104 283q94 92 263 92q162 0 245 -85q11 -11 23.5 -27.5t32.5 -62t25 -96.5h-211q-6 39 -33 63q-26 22 -75 22q-62 0 -97 -35q-45 -45 -45 -148q0 -96 39 -142q34 -40 97 -40 q53 0 84 27q29 25 34 64zM281 -234l24 70q35 -10 63 -10q30 0 41 5q18 7 18 25q0 20 -23 26q-24 4 -68 4h-14l23 67q19 2 51 2q69 0 103 -20q42 -26 42 -77q0 -57 -43 -85q-33 -23 -102 -23q-74 0 -115 16z" horiz-adv-x="759" unicode="" glyph-name="cyrEscedilla"/>
<glyph d="M400 200h196q-9 -87 -68 -146q-72 -72 -217 -72q-138 0 -208 67q-73 69 -73 193q0 129 82 211q78 76 213 76q133 0 205 -72q57 -58 62 -146h-193q0 44 -24 68q-18 18 -48 18q-31 0 -51 -21q-30 -32 -30 -117q0 -91 31 -124q19 -21 51 -21q31 0 48 17q24 26 24 69z M190 -234l24 70q35 -10 63 -10q30 0 41 5q18 7 18 25q0 20 -23 26q-24 4 -68 4h-14l23 67q19 2 51 2q69 0 103 -20q42 -26 42 -77q0 -57 -43 -85q-33 -23 -102 -23q-74 0 -115 16z" horiz-adv-x="626" unicode="" glyph-name="cyrescedilla"/>
<glyph d="M352 392l95 308h227l-221 -535q-38 -91 -91 -133q-25 -19 -53.5 -28.5t-45.5 -11t-46 -1.5q-81 0 -136 20v174q32 -17 74 -17q61 0 80 49l-235 483h239zM307 908h199l-112 -142h-153z" horiz-adv-x="661" unicode="" glyph-name="cyrUacute"/>
<glyph d="M62 -173v135q26 -10 56 -10q33 0 50 13q20 14 26 43l5 22l-199 478h212l101 -317l80 317h195l-179 -500q-32 -91 -58 -125q-9 -10 -18 -19q-54 -50 -156 -50q-57 0 -115 13zM272 700h189l-112 -132h-143z" horiz-adv-x="588" unicode="" glyph-name="cyruacute"/>
<glyph d="M363 -10q-147 0 -227 79q-99 97 -99 285q0 185 97 278q86 81 229 81q147 0 230 -81q93 -91 93 -278q0 -90 -20.5 -161.5t-79.5 -126.5q-82 -76 -223 -76zM363 141q39 0 65 24q48 43 48 191q0 136 -49 182q-26 24 -64 24q-42 0 -70 -30q-43 -46 -43 -173q0 -149 45 -193 q25 -25 68 -25z" horiz-adv-x="724" unicode="" glyph-name="uniF639"/>
<glyph d="M620 171v-171h-579v9q0 69 14.5 117t58.5 93q43 44 116 84l88 49q52 28 75 50q37 34 37 83q0 37 -22 59q-22 23 -68 23t-70 -23q-32 -31 -25 -97h-199q-5 55 14.5 106t59.5 87q82 74 232 74q153 0 227 -74q59 -59 59 -153q0 -85 -54 -142q-34 -36 -116 -76l-23 -11 q-69 -32 -77 -36q-52 -27 -63 -51h315z" horiz-adv-x="679" unicode="" glyph-name="uniF63A"/>
<glyph d="M32 253h199v-5q0 -60 24 -85q27 -29 76 -29q50 0 73 20q27 23 27 64t-30 61q-26 17 -80 17h-39v131h48q52 0 77 17q30 20 30 59q0 35 -27 54q-21 16 -63 16q-54 0 -81 -30q-25 -27 -25 -78h-192q-1 118 87 187q77 59 218 59q128 0 196 -47q77 -54 77 -147q0 -66 -43 -109 q-33 -33 -80 -43v-5q55 -9 90 -44q44 -42 44 -112q0 -107 -84 -166q-70 -50 -216 -50q-165 0 -238 73q-68 68 -68 189v3z" horiz-adv-x="677" unicode="" glyph-name="uniF63B"/>
<glyph d="M344 149h-330v164l340 387h202v-393h90v-158h-90v-149h-212v149zM174 307h180v198z" horiz-adv-x="678" unicode="" glyph-name="uniF63C"/>
<glyph d="M39 215h202q1 -32 24 -55q24 -24 65 -24q45 0 70 26q30 31 30 93q0 56 -31 83q-23 19 -66 19q-59 0 -81 -45h-205l42 388h496v-155h-357l-11 -102q56 44 153 44q129 0 196 -63t67 -170q0 -122 -70 -192q-76 -76 -240 -76q-134 0 -203 56q-80 65 -81 173z" horiz-adv-x="671" unicode="" glyph-name="uniF63D"/>
<glyph d="M632 526h-185q-6 27 -27 39q-21 13 -57 13q-57 0 -90 -33q-38 -38 -43 -103q56 45 149 45q116 0 183 -58q76 -66 76 -174q0 -116 -76 -192q-78 -78 -226 -78q-66 0 -119.5 15.5t-98.5 64.5q-81 87 -81 250q0 94 26.5 176.5t78.5 135.5q85 86 231 86q116 0 180 -49 q65 -49 79 -138zM346 360q-53 0 -83 -28q-33 -31 -33 -88q0 -59 33 -90q31 -29 79 -29t77 29q35 35 35 94q0 53 -31 84q-28 28 -77 28z" horiz-adv-x="675" unicode="" glyph-name="uniF63E"/>
<glyph d="M30 529v171h592v-154q-111 -113 -169 -269q-47 -125 -45 -277h-224q-1 69 21.5 156.5t56.5 153.5q56 108 151 219h-383z" horiz-adv-x="646" unicode="" glyph-name="uniF63F"/>
<glyph d="M348 309q-55 0 -83 -26q-28 -25 -28 -63q0 -40 30 -64q28 -23 79 -23q47 0 77 21q35 25 35 71q0 39 -30 61q-30 23 -80 23zM349 581q-50 0 -75 -21q-31 -26 -31 -63t23 -58q26 -25 81 -25q48 0 75 21q30 23 30 64t-31 64q-25 18 -72 18zM348 713q128 0 204 -52 q86 -60 86 -154q0 -56 -30 -94q-26 -32 -68 -46q43 -12 75 -47q43 -49 43 -116q0 -101 -70 -158q-46 -37 -103.5 -48.5t-136.5 -11.5t-136.5 11.5t-103.5 48.5q-70 57 -70 158q0 67 43 116q32 35 75 47q-42 14 -68 46q-30 38 -30 94q0 94 86 154q76 52 204 52z" horiz-adv-x="696" unicode="" glyph-name="uniF640"/>
<glyph d="M43 172h185q6 -27 27 -39q21 -13 57 -13q57 0 90 33q38 38 43 103q-56 -45 -149 -45q-116 0 -183 58q-76 66 -76 174q0 116 76 192q78 78 226 78q66 0 119.5 -15.5t98.5 -64.5q81 -87 81 -250q0 -94 -26.5 -176.5t-78.5 -135.5q-85 -86 -231 -86q-116 0 -180 49 q-65 49 -79 138zM329 338q53 0 83 28q33 31 33 88q0 59 -33 90q-31 29 -79 29t-77 -29q-35 -35 -35 -94q0 -53 31 -84q28 -28 77 -28z" horiz-adv-x="675" unicode="" glyph-name="uniF641"/>
<glyph d="M72 508h211v-507q0 -100 -44 -144q-45 -45 -147 -45q-64 0 -112 10v142q16 -3 32 -3q32 0 45 13q15 15 15 55v479z" horiz-adv-x="348" unicode="" glyph-name="dotlessj"/>
<glyph d="M70 -185v122h167v-89q0 -97 -45 -139q-43 -39 -122 -41v69q49 -3 73 23q17 18 17 51v4h-90z" horiz-adv-x="307" unicode="" glyph-name="commaaccent"/>
<glyph d="M167 908h199l-112 -142h-153z" horiz-adv-x="385" unicode="" glyph-name="Acute"/>
<glyph d="M287 815l77 83h160l-125 -132h-224l-125 132h160z" horiz-adv-x="574" unicode="" glyph-name="Caron"/>
<glyph d="M50 779v129h172v-129h-172zM319 779v129h172v-129h-172z" horiz-adv-x="541" unicode="" glyph-name="Dieresis"/>
<glyph d="M218 908l66 -142h-153l-112 142h199z" horiz-adv-x="385" unicode="" glyph-name="Grave"/>
<glyph d="M122 908h187l-97 -132h-147zM355 908h188l-98 -132h-147z" horiz-adv-x="568" unicode="" glyph-name="Hungarumlaut"/>
<glyph d="M50 779v96h406v-96h-406z" horiz-adv-x="506" unicode="" glyph-name="Macron"/>
<glyph d="M372 907h141q-3 -61 -42 -103q-50 -51 -172 -51t-172 51q-39 42 -42 103h141q0 -30 15 -45q16 -17 58 -17t58 17q15 15 15 45z" horiz-adv-x="598" unicode="" glyph-name="cyrBreve"/>
<glyph d="M344 731h145q0 -66 -45 -111q-54 -54 -166 -54q-115 0 -169 54q-44 44 -44 111h145q-2 -42 21 -62q16 -13 46 -13t46 13q23 20 21 62z" horiz-adv-x="554" unicode="" glyph-name="cyrbreve"/>
<glyph d="M6 466v110h12q73 0 122 26q59 30 78 98h171v-700h-222v466h-161z" horiz-adv-x="440" unicode="" glyph-name="uniF6DC"/>
<glyph d="M808 656q-108 -82 -108 -195q0 -71 36.5 -127t100.5 -81q-25 -71 -72 -144q-79 -124 -158 -124q-30 0 -83 19t-92 19q-29 0 -53 -9l-57 -21q-26 -10 -55 -10q-64 0 -125 79q-142 179 -142 382q0 136 67 221q68 86 175 86q40 0 120 -23q42 -13 66 -13q27 0 90 22 q54 19 100 19q117 0 190 -100zM608 982q2 -18 2 -27q0 -87 -67 -157q-22 -24 -46 -38q-30 -18 -87 -20q2 16 3 42q10 75 61 130.5t134 69.5z" horiz-adv-x="833" unicode="" glyph-name="apple"/>
<glyph d="M65 508h210v-508h-210v508z" horiz-adv-x="340" glyph-name="dotlessi1"/>
<glyph d="M53 205v185h399v-185h-399z" horiz-adv-x="505" glyph-name="hyphenminus"/>
<glyph d="M543 215l92 -143q-52 -54 -93.5 -71t-86.5 -17q-61 0 -109 22l-22 10q-52 23 -86 23q-45 0 -89 -39l-96 149q0 1 18 16t25 22q33 34 33 73q0 23 -11 45h-84v70h56q-30 58 -30 118q0 106 78 165q72 55 196 55q135 0 207 -65q44 -40 57 -86t13 -110v-3h-194v2q0 55 -13 75 q-20 30 -64 30q-30 0 -50 -17q-24 -22 -24 -58q0 -26 22 -62q15 -22 22 -44h97v-70h-86q5 -38 -12 -71q-9 -22 -36 -43l2 -8q35 13 61 13q24 0 61 -11q42 -14 62 -14q48 0 84 44z" horiz-adv-x="669" glyph-name="sterling.fitted"/>
<glyph d="M264 -185h-199v693h205v-236q0 -72 16 -111q21 -48 62 -48q44 0 64 52q14 38 14 107v236h205v-508h-199v77h-7q-7 -38 -25 -63q-21 -30 -53 -30q-33 0 -53 30q-16 23 -24 63h-6v-262z" horiz-adv-x="696" glyph-name="mu1"/>
<glyph d="M502 0h-96l26 163h-161l-26 -163h-97l26 163h-152l18 103h152l33 187h-154l18 103h152l25 144h97l-24 -144h160l25 144h96l-23 -144h152l-18 -103h-151l-32 -187h153l-19 -103h-153zM451 266l33 187h-162l-33 -187h162z" horiz-adv-x="770" glyph-name="numbersign.fitted"/>
<glyph d="M26 239h197q0 -43 23 -71q23 -27 61 -28v141q-146 31 -208 93q-52 52 -52 132q0 91 58 148q68 67 200 65v75h79v-75q43 0 91.5 -13.5t80.5 -39.5q71 -58 71 -168v-5h-182v5q0 34 -17 54q-17 19 -48 23v-129q154 -38 207 -93q54 -54 54 -139q0 -121 -90 -185 q-70 -48 -167 -48v-77h-79v77q-129 -2 -204 65t-75 193zM382 269v-129q30 2 48 18q20 18 20 50q0 29 -23 45q-17 12 -45 16zM309 460v117q-29 0 -47 -15q-20 -17 -20 -45q0 -24 18 -38q17 -13 49 -19z" horiz-adv-x="669" glyph-name="dollar.fitted"/>
<glyph d="M391 200h196q-10 -89 -68 -147q-67 -67 -165 -69v-116h-79v116q-108 4 -180 76q-74 74 -74 197q0 128 73 199q71 69 181 71v109h79v-109q100 -4 166 -72q57 -57 63 -144h-193q0 44 -24 68q-18 18 -48 18q-31 0 -51 -21q-30 -32 -30 -108q0 -101 36 -136q19 -18 48 -18 q30 0 47 17q23 23 23 69z" horiz-adv-x="604" glyph-name="cent.fitted"/>
<glyph horiz-adv-x="233" glyph-name="nbspace"/>
<glyph d="M376 416l118 284h235l-248 -437v-26h82v-66h-82v-33h82v-66h-82v-72h-210v72h-82v66h82v33h-82v66h82v26l-247 437h235z" horiz-adv-x="753" glyph-name="yen.fitted"/>
<glyph d="M594 508l-29 -138h-118l-80 -378q-20 -89 -61 -130q-25 -25 -60 -37.5t-60 -14.5t-67 -2q-52 0 -103 10l26 124q15 -5 39 -5q32 0 48 12q19 13 28 51l78 370h-93l29 138h93l2 8q20 84 61 125q59 59 183 59q63 0 123 -10l-27 -127q-27 8 -58 8q-34 0 -51 -17 q-14 -14 -20 -42l-1 -4h118z" horiz-adv-x="647" glyph-name="florin.fitted"/>
<glyph d="M692 222v-186q-40 -23 -84 -36q-66 -20 -138 -20q-168 0 -255 81q-78 72 -94 193h-99l40 78h54q-4 25 0 46h-91l40 78h58q24 113 104 181q95 82 269 82q143 0 236 -79l-94 -149q-59 61 -148 61q-62 0 -98 -31q-30 -24 -39 -65h263l-40 -78h-238q-5 -23 0 -46h220l-40 -78 h-172q10 -48 49 -76q42 -29 104 -29q51 0 108 24q44 18 85 49z" horiz-adv-x="770" glyph-name="Euro.fitted"/>
<glyph d="M-318 700h189l-112 -132h-143z" horiz-adv-x="2" glyph-name="acutecomb"/>
</font>
</defs>
</svg>
